<?xml version="1.0" encoding="utf-8" standalone="no"?>
<!DOCTYPE svg PUBLIC "-//W3C//DTD SVG 1.1//EN"
  "http://www.w3.org/Graphics/SVG/1.1/DTD/svg11.dtd">
<svg xmlns:xlink="http://www.w3.org/1999/xlink" width="262.844094pt" height="272.639pt" viewBox="0 0 262.844094 272.639" xmlns="http://www.w3.org/2000/svg" version="1.1">
 <metadata>
  <rdf:RDF xmlns:dc="http://purl.org/dc/elements/1.1/" xmlns:cc="http://creativecommons.org/ns#" xmlns:rdf="http://www.w3.org/1999/02/22-rdf-syntax-ns#">
   <cc:Work>
    <dc:type rdf:resource="http://purl.org/dc/dcmitype/StillImage"/>
    <dc:date>2023-09-16T00:34:44.240726</dc:date>
    <dc:format>image/svg+xml</dc:format>
    <dc:creator>
     <cc:Agent>
      <dc:title>Matplotlib v3.5.3, https://matplotlib.org/</dc:title>
     </cc:Agent>
    </dc:creator>
   </cc:Work>
  </rdf:RDF>
 </metadata>
 <defs>
  <style type="text/css">*{stroke-linejoin: round; stroke-linecap: butt}</style>
 </defs>
 <g id="figure_1">
  <g id="patch_1">
   <path d="M 0 272.639 
L 262.844094 272.639 
L 262.844094 0 
L 0 0 
z
" style="fill: #ffffff"/>
  </g>
  <g id="axes_1">
   <g id="patch_2">
    <path d="M 32.444094 246.357656 
L 255.644094 246.357656 
L 255.644094 24.597656 
L 32.444094 24.597656 
z
" style="fill: #ffffff"/>
   </g>
   <g id="matplotlib.axis_1">
    <g id="xtick_1">
     <g id="text_1">
      <!-- 0 -->
      <g style="fill: #262626" transform="translate(39.440111 263.380109)scale(0.099 -0.099)">
       <defs>
        <path id="DejaVuSans-30" d="M 2034 4250 
Q 1547 4250 1301 3770 
Q 1056 3291 1056 2328 
Q 1056 1369 1301 889 
Q 1547 409 2034 409 
Q 2525 409 2770 889 
Q 3016 1369 3016 2328 
Q 3016 3291 2770 3770 
Q 2525 4250 2034 4250 
z
M 2034 4750 
Q 2819 4750 3233 4129 
Q 3647 3509 3647 2328 
Q 3647 1150 3233 529 
Q 2819 -91 2034 -91 
Q 1250 -91 836 529 
Q 422 1150 422 2328 
Q 422 3509 836 4129 
Q 1250 4750 2034 4750 
z
" transform="scale(0.015625)"/>
       </defs>
       <use xlink:href="#DejaVuSans-30"/>
      </g>
     </g>
    </g>
    <g id="xtick_2">
     <g id="text_2">
      <!-- 5 -->
      <g style="fill: #262626" transform="translate(73.293557 263.380109)scale(0.099 -0.099)">
       <defs>
        <path id="DejaVuSans-35" d="M 691 4666 
L 3169 4666 
L 3169 4134 
L 1269 4134 
L 1269 2991 
Q 1406 3038 1543 3061 
Q 1681 3084 1819 3084 
Q 2600 3084 3056 2656 
Q 3513 2228 3513 1497 
Q 3513 744 3044 326 
Q 2575 -91 1722 -91 
Q 1428 -91 1123 -41 
Q 819 9 494 109 
L 494 744 
Q 775 591 1075 516 
Q 1375 441 1709 441 
Q 2250 441 2565 725 
Q 2881 1009 2881 1497 
Q 2881 1984 2565 2268 
Q 2250 2553 1709 2553 
Q 1456 2553 1204 2497 
Q 953 2441 691 2322 
L 691 4666 
z
" transform="scale(0.015625)"/>
       </defs>
       <use xlink:href="#DejaVuSans-35"/>
      </g>
     </g>
    </g>
    <g id="xtick_3">
     <g id="text_3">
      <!-- 10 -->
      <g style="fill: #262626" transform="translate(103.997565 263.380109)scale(0.099 -0.099)">
       <defs>
        <path id="DejaVuSans-31" d="M 794 531 
L 1825 531 
L 1825 4091 
L 703 3866 
L 703 4441 
L 1819 4666 
L 2450 4666 
L 2450 531 
L 3481 531 
L 3481 0 
L 794 0 
L 794 531 
z
" transform="scale(0.015625)"/>
       </defs>
       <use xlink:href="#DejaVuSans-31"/>
       <use xlink:href="#DejaVuSans-30" x="63.623047"/>
      </g>
     </g>
    </g>
    <g id="xtick_4">
     <g id="text_4">
      <!-- 15 -->
      <g style="fill: #262626" transform="translate(137.851011 263.380109)scale(0.099 -0.099)">
       <use xlink:href="#DejaVuSans-31"/>
       <use xlink:href="#DejaVuSans-35" x="63.623047"/>
      </g>
     </g>
    </g>
    <g id="xtick_5">
     <g id="text_5">
      <!-- 20 -->
      <g style="fill: #262626" transform="translate(171.704457 263.380109)scale(0.099 -0.099)">
       <defs>
        <path id="DejaVuSans-32" d="M 1228 531 
L 3431 531 
L 3431 0 
L 469 0 
L 469 531 
Q 828 903 1448 1529 
Q 2069 2156 2228 2338 
Q 2531 2678 2651 2914 
Q 2772 3150 2772 3378 
Q 2772 3750 2511 3984 
Q 2250 4219 1831 4219 
Q 1534 4219 1204 4116 
Q 875 4013 500 3803 
L 500 4441 
Q 881 4594 1212 4672 
Q 1544 4750 1819 4750 
Q 2544 4750 2975 4387 
Q 3406 4025 3406 3419 
Q 3406 3131 3298 2873 
Q 3191 2616 2906 2266 
Q 2828 2175 2409 1742 
Q 1991 1309 1228 531 
z
" transform="scale(0.015625)"/>
       </defs>
       <use xlink:href="#DejaVuSans-32"/>
       <use xlink:href="#DejaVuSans-30" x="63.623047"/>
      </g>
     </g>
    </g>
    <g id="xtick_6">
     <g id="text_6">
      <!-- 25 -->
      <g style="fill: #262626" transform="translate(205.557902 263.380109)scale(0.099 -0.099)">
       <use xlink:href="#DejaVuSans-32"/>
       <use xlink:href="#DejaVuSans-35" x="63.623047"/>
      </g>
     </g>
    </g>
    <g id="xtick_7">
     <g id="text_7">
      <!-- 30 -->
      <g style="fill: #262626" transform="translate(239.411348 263.380109)scale(0.099 -0.099)">
       <defs>
        <path id="DejaVuSans-33" d="M 2597 2516 
Q 3050 2419 3304 2112 
Q 3559 1806 3559 1356 
Q 3559 666 3084 287 
Q 2609 -91 1734 -91 
Q 1441 -91 1130 -33 
Q 819 25 488 141 
L 488 750 
Q 750 597 1062 519 
Q 1375 441 1716 441 
Q 2309 441 2620 675 
Q 2931 909 2931 1356 
Q 2931 1769 2642 2001 
Q 2353 2234 1838 2234 
L 1294 2234 
L 1294 2753 
L 1863 2753 
Q 2328 2753 2575 2939 
Q 2822 3125 2822 3475 
Q 2822 3834 2567 4026 
Q 2313 4219 1838 4219 
Q 1578 4219 1281 4162 
Q 984 4106 628 3988 
L 628 4550 
Q 988 4650 1302 4700 
Q 1616 4750 1894 4750 
Q 2613 4750 3031 4423 
Q 3450 4097 3450 3541 
Q 3450 3153 3228 2886 
Q 3006 2619 2597 2516 
z
" transform="scale(0.015625)"/>
       </defs>
       <use xlink:href="#DejaVuSans-33"/>
       <use xlink:href="#DejaVuSans-30" x="63.623047"/>
      </g>
     </g>
    </g>
   </g>
   <g id="matplotlib.axis_2">
    <g id="ytick_1">
     <g id="text_8">
      <!-- 0.2 -->
      <g style="fill: #262626" transform="translate(7.2 222.758883)scale(0.099 -0.099)">
       <defs>
        <path id="DejaVuSans-2e" d="M 684 794 
L 1344 794 
L 1344 0 
L 684 0 
L 684 794 
z
" transform="scale(0.015625)"/>
       </defs>
       <use xlink:href="#DejaVuSans-30"/>
       <use xlink:href="#DejaVuSans-2e" x="63.623047"/>
       <use xlink:href="#DejaVuSans-32" x="95.410156"/>
      </g>
     </g>
    </g>
    <g id="ytick_2">
     <g id="text_9">
      <!-- 0.4 -->
      <g style="fill: #262626" transform="translate(7.2 176.678883)scale(0.099 -0.099)">
       <defs>
        <path id="DejaVuSans-34" d="M 2419 4116 
L 825 1625 
L 2419 1625 
L 2419 4116 
z
M 2253 4666 
L 3047 4666 
L 3047 1625 
L 3713 1625 
L 3713 1100 
L 3047 1100 
L 3047 0 
L 2419 0 
L 2419 1100 
L 313 1100 
L 313 1709 
L 2253 4666 
z
" transform="scale(0.015625)"/>
       </defs>
       <use xlink:href="#DejaVuSans-30"/>
       <use xlink:href="#DejaVuSans-2e" x="63.623047"/>
       <use xlink:href="#DejaVuSans-34" x="95.410156"/>
      </g>
     </g>
    </g>
    <g id="ytick_3">
     <g id="text_10">
      <!-- 0.6 -->
      <g style="fill: #262626" transform="translate(7.2 130.598883)scale(0.099 -0.099)">
       <defs>
        <path id="DejaVuSans-36" d="M 2113 2584 
Q 1688 2584 1439 2293 
Q 1191 2003 1191 1497 
Q 1191 994 1439 701 
Q 1688 409 2113 409 
Q 2538 409 2786 701 
Q 3034 994 3034 1497 
Q 3034 2003 2786 2293 
Q 2538 2584 2113 2584 
z
M 3366 4563 
L 3366 3988 
Q 3128 4100 2886 4159 
Q 2644 4219 2406 4219 
Q 1781 4219 1451 3797 
Q 1122 3375 1075 2522 
Q 1259 2794 1537 2939 
Q 1816 3084 2150 3084 
Q 2853 3084 3261 2657 
Q 3669 2231 3669 1497 
Q 3669 778 3244 343 
Q 2819 -91 2113 -91 
Q 1303 -91 875 529 
Q 447 1150 447 2328 
Q 447 3434 972 4092 
Q 1497 4750 2381 4750 
Q 2619 4750 2861 4703 
Q 3103 4656 3366 4563 
z
" transform="scale(0.015625)"/>
       </defs>
       <use xlink:href="#DejaVuSans-30"/>
       <use xlink:href="#DejaVuSans-2e" x="63.623047"/>
       <use xlink:href="#DejaVuSans-36" x="95.410156"/>
      </g>
     </g>
    </g>
    <g id="ytick_4">
     <g id="text_11">
      <!-- 0.8 -->
      <g style="fill: #262626" transform="translate(7.2 84.518883)scale(0.099 -0.099)">
       <defs>
        <path id="DejaVuSans-38" d="M 2034 2216 
Q 1584 2216 1326 1975 
Q 1069 1734 1069 1313 
Q 1069 891 1326 650 
Q 1584 409 2034 409 
Q 2484 409 2743 651 
Q 3003 894 3003 1313 
Q 3003 1734 2745 1975 
Q 2488 2216 2034 2216 
z
M 1403 2484 
Q 997 2584 770 2862 
Q 544 3141 544 3541 
Q 544 4100 942 4425 
Q 1341 4750 2034 4750 
Q 2731 4750 3128 4425 
Q 3525 4100 3525 3541 
Q 3525 3141 3298 2862 
Q 3072 2584 2669 2484 
Q 3125 2378 3379 2068 
Q 3634 1759 3634 1313 
Q 3634 634 3220 271 
Q 2806 -91 2034 -91 
Q 1263 -91 848 271 
Q 434 634 434 1313 
Q 434 1759 690 2068 
Q 947 2378 1403 2484 
z
M 1172 3481 
Q 1172 3119 1398 2916 
Q 1625 2713 2034 2713 
Q 2441 2713 2670 2916 
Q 2900 3119 2900 3481 
Q 2900 3844 2670 4047 
Q 2441 4250 2034 4250 
Q 1625 4250 1398 4047 
Q 1172 3844 1172 3481 
z
" transform="scale(0.015625)"/>
       </defs>
       <use xlink:href="#DejaVuSans-30"/>
       <use xlink:href="#DejaVuSans-2e" x="63.623047"/>
       <use xlink:href="#DejaVuSans-38" x="95.410156"/>
      </g>
     </g>
    </g>
    <g id="ytick_5">
     <g id="text_12">
      <!-- 1.0 -->
      <g style="fill: #262626" transform="translate(7.2 38.438883)scale(0.099 -0.099)">
       <use xlink:href="#DejaVuSans-31"/>
       <use xlink:href="#DejaVuSans-2e" x="63.623047"/>
       <use xlink:href="#DejaVuSans-30" x="95.410156"/>
      </g>
     </g>
    </g>
   </g>
   <g id="PolyCollection_1"/>
   <g id="PolyCollection_2"/>
   <g id="PolyCollection_3"/>
   <g id="PolyCollection_4"/>
   <g id="line2d_1">
    <path d="M 42.589548 219.476888 
L 42.801132 220.437195 
L 43.012716 215.25338 
L 43.2243 217.90309 
L 43.435884 217.573224 
L 43.647468 220.255304 
L 44.070637 203.629302 
L 44.493805 179.788126 
L 44.705389 181.263631 
L 44.916973 191.749241 
L 45.128557 180.760607 
L 45.340141 182.807427 
L 45.551725 167.715826 
L 45.763309 170.180865 
L 46.186477 154.882996 
L 46.398061 158.64086 
L 46.609645 164.735886 
L 46.821229 163.592287 
L 47.032813 141.786742 
L 47.244397 145.023107 
L 47.455981 153.685234 
L 47.667565 150.24251 
L 48.090733 126.584881 
L 48.302317 127.261991 
L 48.937069 113.46669 
L 49.148653 124.190769 
L 49.360237 141.185831 
L 49.783406 127.932476 
L 49.99499 135.750241 
L 50.418158 129.048094 
L 50.629742 123.940226 
L 50.841326 122.795198 
L 51.05291 111.548488 
L 51.264494 111.519848 
L 51.476078 116.303279 
L 51.899246 102.65488 
L 52.11083 104.263991 
L 52.322414 104.26915 
L 52.533998 91.792859 
L 52.745582 91.986778 
L 52.957166 89.223129 
L 53.16875 82.765247 
L 53.380334 80.810211 
L 53.591918 81.556882 
L 53.803502 80.085191 
L 54.015086 83.042484 
L 54.649838 106.832878 
L 54.861422 103.890789 
L 55.073006 88.685843 
L 55.28459 92.042261 
L 55.496175 86.376419 
L 55.707759 88.736914 
L 55.919343 97.832904 
L 56.342511 89.861054 
L 56.554095 96.587695 
L 56.765679 93.903372 
L 56.977263 87.493086 
L 57.188847 89.406914 
L 57.400431 86.714904 
L 57.612015 79.339697 
L 57.823599 75.874881 
L 58.035183 74.756298 
L 58.458351 86.930274 
L 59.093103 81.675927 
L 59.304687 83.996926 
L 59.516271 70.989525 
L 59.727855 74.705085 
L 59.939439 72.133806 
L 60.362607 76.770177 
L 60.574191 77.213169 
L 60.997359 69.958932 
L 61.420528 64.274424 
L 61.843696 74.516984 
L 62.05528 72.020946 
L 62.266864 63.803937 
L 62.478448 66.553425 
L 62.690032 84.52281 
L 63.1132 95.43742 
L 63.536368 81.319171 
L 63.747952 80.902872 
L 63.959536 74.893093 
L 64.17112 76.086918 
L 64.382704 72.003521 
L 64.805872 57.139274 
L 65.017456 58.71432 
L 65.22904 57.739654 
L 65.652208 62.372283 
L 65.863792 62.814432 
L 66.075376 64.999414 
L 66.28696 60.550404 
L 66.498544 62.681612 
L 66.710128 56.279722 
L 66.921712 60.119203 
L 67.133297 55.702584 
L 67.344881 54.01292 
L 67.768049 64.678351 
L 68.191217 65.446398 
L 68.402801 73.298901 
L 68.614385 75.130403 
L 69.037553 86.872522 
L 69.249137 78.474883 
L 69.460721 91.675685 
L 70.095473 64.269046 
L 70.307057 64.912797 
L 70.730225 56.89043 
L 70.941809 57.605627 
L 71.153393 53.234132 
L 71.364977 52.531849 
L 71.576561 48.270172 
L 71.999729 48.786962 
L 72.211313 48.903239 
L 72.422897 48.012699 
L 72.634481 48.438682 
L 72.846066 52.534579 
L 73.269234 43.794455 
L 73.480818 44.947428 
L 74.11557 39.123508 
L 74.327154 41.185474 
L 74.961906 51.213252 
L 75.17349 50.359014 
L 75.385074 50.806778 
L 75.596658 48.195436 
L 75.808242 47.588017 
L 76.019826 52.983565 
L 76.23141 53.340894 
L 76.442994 48.755599 
L 76.654578 49.844729 
L 76.866162 44.738207 
L 77.077746 51.273679 
L 77.28933 47.51527 
L 77.500914 47.179917 
L 77.712498 51.77932 
L 78.34725 45.283689 
L 78.558834 47.761583 
L 78.982003 43.035563 
L 79.616755 46.850669 
L 80.039923 46.739449 
L 80.463091 42.09141 
L 80.886259 41.954607 
L 81.097843 40.004134 
L 81.309427 39.793236 
L 81.732595 41.127265 
L 82.155763 38.536007 
L 82.578931 37.603154 
L 82.790515 36.432955 
L 83.002099 58.770835 
L 83.213683 63.533564 
L 83.425267 82.710893 
L 83.636851 80.777598 
L 83.848435 81.537314 
L 84.060019 73.353144 
L 84.271603 75.162949 
L 84.483188 72.408524 
L 84.694772 72.676484 
L 84.906356 69.95726 
L 85.11794 73.125419 
L 85.329524 68.306006 
L 85.541108 66.374666 
L 85.752692 69.056169 
L 85.964276 69.704764 
L 86.17586 65.294228 
L 86.387444 63.607292 
L 86.810612 54.884509 
L 87.022196 52.561768 
L 87.23378 56.928123 
L 87.445364 64.347629 
L 87.656948 59.199947 
L 87.868532 58.991338 
L 88.080116 53.106172 
L 88.2917 50.534459 
L 88.503284 49.951738 
L 88.714868 52.482105 
L 88.926452 48.240325 
L 89.138036 49.535565 
L 89.34962 45.512094 
L 89.561204 44.058319 
L 89.984372 73.958388 
L 90.195956 75.526095 
L 90.407541 66.866412 
L 90.619125 71.27091 
L 91.042293 52.650736 
L 91.253877 56.021197 
L 91.465461 66.683473 
L 91.888629 56.567566 
L 92.100213 55.491295 
L 92.311797 57.725532 
L 92.523381 56.186074 
L 92.734965 51.423014 
L 92.946549 50.484871 
L 93.581301 46.540027 
L 93.792885 45.635386 
L 94.004469 42.212601 
L 94.216053 43.998316 
L 94.639221 38.609278 
L 95.062389 37.629531 
L 95.273973 37.409088 
L 95.485557 36.316515 
L 95.697141 36.621279 
L 95.908725 37.763523 
L 96.12031 36.529176 
L 96.331894 38.668568 
L 96.543478 44.751896 
L 96.755062 40.7222 
L 96.966646 41.184382 
L 97.17823 38.581692 
L 97.389814 39.900078 
L 97.601398 38.771416 
L 98.024566 41.719717 
L 98.23615 40.822585 
L 98.447734 38.364614 
L 98.659318 37.850138 
L 98.870902 41.380838 
L 99.082486 40.619258 
L 99.717238 36.882937 
L 99.928822 36.000825 
L 100.140406 41.231557 
L 100.35199 40.52969 
L 100.563574 41.068876 
L 100.775158 40.432081 
L 100.986742 38.130311 
L 101.198326 37.709556 
L 101.621494 35.76914 
L 101.833078 35.332546 
L 102.256247 36.449908 
L 102.679415 36.852158 
L 102.890999 36.942665 
L 103.102583 36.036661 
L 103.314167 47.013059 
L 103.525751 43.039205 
L 103.737335 49.294893 
L 104.160503 39.939861 
L 104.372087 42.634672 
L 105.006839 39.199584 
L 105.218423 39.310505 
L 105.430007 40.337366 
L 105.641591 42.873175 
L 105.853175 40.555274 
L 106.064759 41.084227 
L 106.276343 38.521599 
L 106.487927 39.864022 
L 106.699511 38.749783 
L 106.911095 39.040625 
L 107.122679 37.295437 
L 107.334263 38.168018 
L 107.545847 36.771873 
L 107.757432 38.814186 
L 108.1806 39.238315 
L 108.392184 38.374359 
L 108.603768 36.895678 
L 109.026936 37.012635 
L 109.450104 35.518249 
L 109.661688 35.182012 
L 109.873272 35.940577 
L 110.084856 50.795716 
L 110.29644 44.348492 
L 110.508024 42.39985 
L 110.719608 42.190973 
L 111.142776 38.918942 
L 111.35436 38.182735 
L 111.565944 36.780703 
L 111.989112 38.506261 
L 112.200696 36.974819 
L 112.41228 37.016261 
L 112.623864 38.000512 
L 112.835448 37.631677 
L 113.258616 35.741103 
L 113.4702 38.195725 
L 113.681785 37.748804 
L 113.893369 36.520345 
L 114.104953 37.702962 
L 114.316537 36.49284 
L 114.528121 37.686459 
L 114.951289 35.760825 
L 115.162873 37.24725 
L 115.797625 37.114891 
L 116.220793 35.55506 
L 116.643961 36.530013 
L 116.855545 47.30907 
L 117.067129 48.976812 
L 117.490297 41.361844 
L 117.701881 42.528476 
L 117.913465 39.388148 
L 118.336633 37.909925 
L 118.548217 37.577324 
L 118.971385 35.721537 
L 119.182969 35.303984 
L 119.394554 36.973146 
L 119.606138 43.734643 
L 120.029306 39.474663 
L 120.24089 39.475553 
L 120.452474 37.556394 
L 120.664058 37.365206 
L 120.875642 38.209879 
L 121.087226 37.757297 
L 121.29881 38.445133 
L 121.721978 36.033948 
L 122.145146 35.165921 
L 122.35673 38.810922 
L 122.568314 38.117923 
L 122.779898 36.741816 
L 122.991482 36.876459 
L 123.41465 40.077225 
L 123.626234 41.757705 
L 123.837818 38.925685 
L 124.049402 41.066781 
L 124.47257 38.514232 
L 124.895738 39.130332 
L 125.107322 39.268954 
L 125.318907 40.312435 
L 125.530491 38.058523 
L 125.742075 40.546484 
L 126.165243 36.790434 
L 126.588411 35.438256 
L 126.799995 38.014016 
L 127.011579 36.679472 
L 127.434747 36.934801 
L 127.646331 36.99225 
L 128.069499 35.51091 
L 128.281083 35.177608 
L 128.492667 36.89732 
L 128.704251 36.009455 
L 128.915835 36.437042 
L 129.127419 35.733288 
L 129.550587 38.129192 
L 129.973755 35.920209 
L 130.185339 35.423188 
L 130.396923 50.485282 
L 130.820091 40.944586 
L 131.031676 45.158121 
L 131.24326 44.806242 
L 132.089596 36.750685 
L 132.512764 36.960438 
L 132.724348 37.007632 
L 132.935932 36.075642 
L 133.570684 40.662833 
L 133.782268 38.268762 
L 134.205436 37.506946 
L 134.628604 37.232692 
L 134.840188 36.210678 
L 135.051772 38.477469 
L 135.263356 37.917851 
L 135.47494 36.621773 
L 135.898108 38.449047 
L 136.109692 38.860183 
L 136.321276 38.14748 
L 136.53286 36.75955 
L 136.956029 36.963629 
L 137.167613 47.56924 
L 137.590781 39.318626 
L 137.802365 37.462238 
L 138.013949 41.148098 
L 138.225533 39.520228 
L 138.437117 40.4632 
L 138.648701 41.989289 
L 138.860285 40.984329 
L 139.495037 36.961792 
L 139.706621 37.967831 
L 140.129789 35.862119 
L 140.341373 38.268334 
L 140.552957 37.79237 
L 140.764541 39.426484 
L 141.187709 36.387234 
L 141.610877 35.293104 
L 141.822461 35.046925 
L 142.245629 36.347084 
L 142.457213 36.63962 
L 142.668798 37.774527 
L 142.880382 37.496086 
L 143.091966 36.368714 
L 143.30355 36.652598 
L 143.726718 35.388635 
L 143.938302 54.303936 
L 144.149886 46.453424 
L 144.784638 39.064127 
L 145.207806 36.256786 
L 145.41939 36.585441 
L 145.630974 35.822327 
L 146.054142 36.626229 
L 146.265726 36.807107 
L 146.47731 39.795634 
L 146.900478 36.520128 
L 147.323646 35.340946 
L 147.53523 36.995323 
L 147.958398 35.512016 
L 148.381566 34.978026 
L 148.593151 34.857878 
L 148.804735 35.746096 
L 149.227903 35.062295 
L 149.651071 34.816126 
L 150.285823 34.707566 
L 150.497407 35.655909 
L 150.708991 42.944301 
L 151.132159 37.653648 
L 151.555327 35.749013 
L 151.978495 35.063345 
L 152.190079 37.789069 
L 152.613247 35.797765 
L 152.824831 37.269414 
L 153.247999 35.610689 
L 153.459583 36.197783 
L 153.671167 35.589732 
L 154.094335 36.542495 
L 154.517504 35.348998 
L 154.940672 34.919339 
L 155.152256 34.822666 
L 155.36384 35.724969 
L 155.787008 35.054689 
L 156.210176 34.813388 
L 156.633344 36.263011 
L 157.056512 35.248384 
L 157.268096 35.9804 
L 157.47968 43.138995 
L 157.691264 41.674152 
L 158.114432 37.196395 
L 158.326016 36.188899 
L 158.5376 37.504095 
L 158.749184 37.333826 
L 158.960768 40.111665 
L 159.172352 37.938062 
L 159.59552 37.387894 
L 160.018688 37.189833 
L 160.230273 37.145269 
L 160.653441 35.565997 
L 161.076609 34.997459 
L 161.499777 34.792785 
L 161.711361 37.626733 
L 162.134529 35.739324 
L 162.346113 36.274964 
L 162.769281 35.252687 
L 163.192449 34.884667 
L 163.615617 34.75218 
L 163.827201 36.642063 
L 164.038785 35.8563 
L 164.250369 43.064535 
L 164.461953 41.629476 
L 164.885121 37.180311 
L 165.096705 36.179249 
L 165.308289 36.538919 
L 165.731457 35.347711 
L 166.154626 34.918876 
L 166.36621 37.702388 
L 166.577794 36.492495 
L 166.789378 36.726867 
L 167.212546 35.415372 
L 167.635714 34.943234 
L 167.847298 37.717003 
L 168.058882 36.501264 
L 168.270466 37.691514 
L 168.48205 36.485971 
L 168.693634 36.722952 
L 169.116802 35.413963 
L 169.328386 36.079747 
L 169.53997 38.398911 
L 169.751554 36.910409 
L 170.386306 37.042133 
L 170.59789 36.096342 
L 170.809474 36.489175 
L 171.021058 39.604875 
L 171.232642 39.55368 
L 171.444226 37.60327 
L 171.655811 38.352717 
L 172.078979 36.000678 
L 172.290563 35.471469 
L 172.502147 36.114251 
L 172.713731 35.539613 
L 172.925315 36.155137 
L 173.136899 35.564145 
L 173.348483 36.169857 
L 173.771651 35.214848 
L 174.194819 34.871045 
L 174.829571 34.719428 
L 175.887491 34.680904 
L 176.099075 35.639912 
L 176.310659 35.25501 
L 176.522243 35.984375 
L 176.945411 35.148075 
L 177.156995 35.920215 
L 177.368579 35.423191 
L 177.580164 36.085284 
L 177.791748 43.201926 
L 178.003332 39.792218 
L 178.214916 40.626393 
L 178.638084 36.819201 
L 178.849668 36.92289 
L 179.061252 36.024797 
L 179.272836 37.405633 
L 179.696004 35.659728 
L 180.119172 35.031202 
L 180.330756 34.889784 
L 180.54234 35.76524 
L 180.753924 35.330206 
L 180.965508 36.988879 
L 181.388676 35.509696 
L 181.60026 35.17688 
L 181.811844 36.896883 
L 182.023428 36.009192 
L 182.235012 36.436885 
L 182.65818 35.310978 
L 182.869764 36.977342 
L 183.292933 35.505543 
L 183.504517 35.174388 
L 183.716101 35.936003 
L 184.139269 35.130661 
L 184.350853 34.949459 
L 184.562437 61.721045 
L 184.985605 45.949768 
L 185.408773 39.887432 
L 185.831941 39.624684 
L 186.466693 36.668109 
L 186.678277 37.791621 
L 187.101445 37.335175 
L 187.313029 38.19186 
L 187.524613 39.666178 
L 187.736197 37.670769 
L 187.947781 37.433831 
L 188.159365 36.331361 
L 188.370949 36.630186 
L 188.794117 35.380567 
L 189.005701 35.099403 
L 189.217286 36.850397 
L 189.640454 35.459843 
L 190.063622 34.959243 
L 190.698374 34.738479 
L 190.909958 34.71415 
L 191.121542 36.619245 
L 191.333126 43.522302 
L 191.756294 37.861729 
L 192.179462 35.823922 
L 192.391046 35.365416 
L 192.60263 36.050619 
L 192.814214 35.501434 
L 193.025798 37.091616 
L 193.237382 36.126032 
L 193.448966 36.506989 
L 193.872134 35.336216 
L 194.295302 34.914738 
L 194.930055 34.728866 
L 195.141639 34.708382 
L 195.353223 35.656399 
L 195.776391 35.030003 
L 196.199559 34.804501 
L 196.411143 34.753763 
L 196.622727 35.683627 
L 197.045895 35.039806 
L 197.257479 34.894946 
L 197.469063 35.768337 
L 197.892231 35.070301 
L 198.103815 42.592936 
L 198.315399 39.426824 
L 198.526983 38.487464 
L 198.738567 38.883234 
L 199.161735 36.191664 
L 199.373319 36.546368 
L 199.796487 35.350392 
L 200.219655 34.919841 
L 200.431239 35.783274 
L 200.854408 35.075679 
L 201.065992 34.91647 
L 201.277576 35.781251 
L 201.700744 35.07495 
L 201.912328 35.87634 
L 202.335496 35.109182 
L 202.758664 34.833005 
L 202.970248 34.770866 
L 203.181832 35.693889 
L 203.605 35.0435 
L 204.028168 34.80936 
L 204.66292 34.706104 
L 204.874504 38.535032 
L 205.086088 36.992082 
L 205.509256 37.047341 
L 205.72084 36.099467 
L 205.932424 37.450435 
L 206.355592 35.675857 
L 206.778761 35.037008 
L 206.990345 35.853575 
L 207.413513 35.100987 
L 207.836681 34.830055 
L 208.259849 34.73252 
L 208.471433 35.670881 
L 208.683017 35.273591 
L 208.894601 35.995524 
L 209.317769 35.152089 
L 209.740937 34.848452 
L 210.375689 34.714548 
L 210.587273 34.699791 
L 210.798857 35.651244 
L 211.222025 35.028148 
L 211.433609 34.887951 
L 211.645193 38.64414 
L 212.068361 36.10559 
L 212.49153 35.191712 
L 212.914698 34.862716 
L 213.337866 34.744278 
L 213.54945 35.677936 
L 213.972618 35.037757 
L 214.395786 34.807292 
L 215.242122 34.694457 
L 215.453706 36.607429 
L 215.876874 35.372374 
L 216.300042 34.927755 
L 216.934794 34.731677 
L 218.204299 34.680176 
L 218.415883 50.039475 
L 218.839051 40.207911 
L 219.262219 36.668548 
L 219.685387 35.394377 
L 220.108555 34.935676 
L 220.743307 34.733388 
L 221.589643 34.684879 
L 221.801227 36.601683 
L 222.224395 35.370306 
L 222.435979 36.053553 
L 222.859147 35.172979 
L 223.282315 34.855972 
L 223.917067 34.716172 
L 224.974988 34.680651 
L 225.186572 46.199453 
L 225.60974 38.825503 
L 225.821324 37.166364 
L 226.032908 37.131188 
L 226.244492 36.149775 
L 226.456076 36.521235 
L 226.879244 35.341344 
L 227.302412 34.916584 
L 227.937164 34.729264 
L 228.148748 34.708621 
L 228.360332 35.656542 
L 228.7835 35.030055 
L 228.995084 34.889095 
L 229.206668 35.764827 
L 229.418252 35.329959 
L 229.629836 36.029345 
L 230.053005 35.164264 
L 230.476173 34.852835 
L 231.110925 34.715495 
L 231.745677 34.685829 
L 231.957261 38.522867 
L 232.380429 36.061932 
L 232.592013 35.508222 
L 232.803597 36.136303 
L 233.226765 35.202769 
L 233.649933 34.866697 
L 234.284685 34.718489 
L 235.765774 34.678799 
L 235.977358 37.558342 
L 236.400526 35.714703 
L 236.823694 35.050993 
L 237.246862 34.812057 
L 238.093198 34.695074 
L 238.516366 34.683927 
L 238.72795 57.721418 
L 239.151118 43.549595 
L 239.78587 36.939705 
L 240.209038 35.491994 
L 240.632206 34.970818 
L 240.84379 35.81386 
L 241.266958 35.08669 
L 241.690127 34.824908 
L 242.536463 34.69674 
L 244.440719 34.677848 
L 244.652303 36.597464 
L 245.075471 35.368787 
L 245.287055 35.092335 
L 245.498639 42.606156 
L 245.498639 42.606156 
" clip-path="url(#pbe3ffe3313)" style="fill: none; stroke: #e8000b; stroke-width: 1.5; stroke-linecap: round"/>
   </g>
   <g id="line2d_2">
    <path d="M 42.589548 236.277656 
L 43.012716 205.558148 
L 43.2243 203.445951 
L 43.435884 195.458326 
L 43.647468 193.545751 
L 43.859053 199.118513 
L 44.070637 195.741863 
L 44.282221 195.636488 
L 44.493805 184.053262 
L 45.128557 170.35368 
L 45.340141 166.962963 
L 45.551725 165.88884 
L 45.974893 171.002174 
L 46.186477 167.35206 
L 46.398061 168.041991 
L 46.609645 162.69595 
L 46.821229 149.88894 
L 47.032813 145.084733 
L 47.455981 149.112511 
L 47.667565 153.258876 
L 47.879149 146.146388 
L 48.090733 146.678588 
L 48.302317 145.078215 
L 48.513901 145.078299 
L 48.725485 146.037735 
L 48.937069 143.733396 
L 49.360237 172.81803 
L 50.418158 137.740692 
L 50.629742 133.955478 
L 51.05291 138.00118 
L 51.264494 134.111771 
L 51.476078 143.298125 
L 51.899246 128.885332 
L 52.11083 130.561954 
L 52.322414 136.368542 
L 52.745582 129.653884 
L 52.957166 129.103393 
L 53.380334 109.951228 
L 53.591918 114.4018 
L 53.803502 121.871835 
L 54.015086 106.193856 
L 54.22667 105.427069 
L 54.438254 106.887611 
L 54.649838 112.563629 
L 54.861422 114.049547 
L 55.073006 107.260483 
L 55.28459 107.027353 
L 55.496175 111.687167 
L 55.707759 102.963055 
L 56.130927 144.316523 
L 56.342511 135.981283 
L 56.765679 110.123085 
L 56.977263 98.18522 
L 57.188847 93.902502 
L 57.400431 93.252564 
L 57.612015 93.822908 
L 57.823599 101.844807 
L 58.035183 98.017947 
L 58.246767 105.322138 
L 58.458351 105.864345 
L 58.669935 103.309669 
L 58.881519 97.936557 
L 59.093103 97.592689 
L 59.304687 93.546983 
L 59.516271 92.078945 
L 59.727855 103.67843 
L 59.939439 102.958427 
L 60.151023 98.686119 
L 60.362607 99.002734 
L 60.574191 91.51301 
L 60.785775 87.978561 
L 60.997359 86.818199 
L 61.208943 93.801675 
L 61.420528 97.032374 
L 61.632112 95.130487 
L 61.843696 95.909048 
L 62.05528 90.616184 
L 62.478448 91.679526 
L 62.690032 99.598471 
L 62.901616 94.750452 
L 63.324784 82.415371 
L 63.536368 80.600285 
L 63.747952 87.190926 
L 64.17112 90.446433 
L 64.382704 84.458615 
L 64.594288 87.586232 
L 64.805872 94.262494 
L 65.017456 85.788866 
L 65.22904 86.464689 
L 65.440624 85.909876 
L 65.652208 93.256681 
L 65.863792 92.865071 
L 66.075376 97.429798 
L 66.28696 90.569248 
L 66.498544 94.132611 
L 66.710128 91.470936 
L 66.921712 90.833317 
L 67.133297 92.37136 
L 67.344881 91.373571 
L 67.768049 80.816493 
L 67.979633 78.680651 
L 68.191217 73.55976 
L 68.614385 79.779398 
L 68.825969 84.778701 
L 69.037553 86.817976 
L 69.460721 94.728663 
L 69.672305 99.50826 
L 69.883889 97.576326 
L 70.095473 94.496551 
L 70.307057 88.8093 
L 70.518641 95.956642 
L 70.730225 90.644741 
L 70.941809 80.738214 
L 71.364977 80.443948 
L 71.576561 86.137739 
L 71.788145 79.953706 
L 71.999729 77.203593 
L 72.211313 84.193525 
L 72.422897 85.507485 
L 72.634481 83.415861 
L 72.846066 85.040886 
L 73.269234 74.311927 
L 73.480818 80.537912 
L 73.692402 75.633502 
L 73.903986 81.330857 
L 74.11557 83.789884 
L 74.327154 74.704685 
L 74.538738 76.934181 
L 74.750322 76.351264 
L 74.961906 77.922128 
L 75.17349 76.944032 
L 75.385074 78.277789 
L 75.808242 73.989888 
L 76.019826 73.625303 
L 76.23141 92.606244 
L 76.442994 88.634502 
L 77.077746 68.796335 
L 77.28933 66.668863 
L 77.500914 62.51238 
L 77.712498 60.978798 
L 77.924082 61.018034 
L 78.135666 58.161576 
L 78.34725 60.288008 
L 78.558834 58.683867 
L 78.770419 58.68169 
L 78.982003 56.759769 
L 79.405171 67.971032 
L 79.828339 60.103149 
L 80.039923 63.372644 
L 80.251507 56.694342 
L 80.463091 56.527668 
L 80.674675 57.38797 
L 80.886259 62.703845 
L 81.097843 56.293062 
L 81.309427 55.326592 
L 81.521011 48.986711 
L 81.732595 48.062782 
L 81.944179 49.429039 
L 82.367347 65.716645 
L 82.790515 54.683569 
L 83.002099 88.920897 
L 83.213683 91.223908 
L 83.636851 70.010122 
L 83.848435 63.556829 
L 84.060019 68.324852 
L 84.271603 69.265974 
L 84.483188 76.550954 
L 84.694772 74.201635 
L 84.906356 67.992351 
L 85.11794 57.546473 
L 85.541108 47.709939 
L 85.752692 49.217333 
L 85.964276 48.201155 
L 86.17586 45.671755 
L 86.387444 53.754423 
L 86.599028 49.003716 
L 86.810612 51.913292 
L 87.022196 50.779038 
L 87.445364 52.761662 
L 87.868532 43.876205 
L 88.080116 45.956786 
L 88.503284 46.417651 
L 88.714868 45.56196 
L 89.138036 47.812006 
L 89.34962 48.318266 
L 89.561204 46.702329 
L 89.772788 57.252767 
L 89.984372 57.82303 
L 90.195956 55.285188 
L 90.407541 57.601868 
L 90.830709 45.618679 
L 91.042293 45.082577 
L 91.253877 40.920609 
L 91.465461 44.183428 
L 91.677045 45.180812 
L 91.888629 42.899242 
L 92.100213 42.490608 
L 92.523381 38.066503 
L 92.734965 41.510657 
L 92.946549 41.657457 
L 93.158133 44.625536 
L 93.369717 43.526384 
L 93.581301 46.7072 
L 94.004469 45.152783 
L 94.216053 45.762425 
L 94.639221 44.812664 
L 94.850805 43.638661 
L 95.273973 39.440109 
L 95.485557 40.415128 
L 95.697141 46.760139 
L 95.908725 47.687146 
L 96.12031 44.403043 
L 96.331894 49.152888 
L 96.543478 62.562488 
L 96.755062 59.088248 
L 96.966646 53.164318 
L 97.17823 54.409653 
L 97.389814 46.516855 
L 97.812982 54.300259 
L 98.024566 48.370911 
L 99.082486 36.323118 
L 99.29407 37.584626 
L 99.505654 40.262145 
L 99.717238 44.748657 
L 99.928822 42.639949 
L 100.140406 43.295339 
L 100.563574 40.85153 
L 100.775158 47.021981 
L 100.986742 42.084251 
L 101.198326 42.96192 
L 101.40991 41.567907 
L 101.621494 38.811807 
L 101.833078 40.038146 
L 102.044663 39.813643 
L 102.256247 40.639248 
L 102.679415 37.400014 
L 102.890999 37.271378 
L 103.525751 44.684595 
L 104.583671 38.678705 
L 105.006839 36.118033 
L 105.218423 38.421883 
L 105.641591 36.025578 
L 105.853175 36.446716 
L 106.064759 37.658785 
L 106.276343 36.466333 
L 106.487927 38.630862 
L 106.699511 37.04958 
L 106.911095 38.98081 
L 107.334263 36.226792 
L 107.545847 38.487137 
L 107.969016 36.049069 
L 108.392184 35.171365 
L 108.815352 34.855391 
L 109.026936 34.784297 
L 109.23852 35.701948 
L 109.661688 35.046401 
L 109.873272 36.818596 
L 110.084856 39.802527 
L 110.508024 48.234487 
L 110.719608 42.811754 
L 110.931192 44.357808 
L 111.142776 41.446054 
L 111.35436 40.658388 
L 111.565944 43.065788 
L 111.777528 41.630228 
L 111.989112 43.648892 
L 112.200696 40.060398 
L 112.623864 37.191627 
L 112.835448 37.146346 
L 113.047032 40.958563 
L 113.4702 36.938782 
L 113.893369 35.491662 
L 114.104953 36.126367 
L 114.316537 35.546882 
L 114.528121 37.118885 
L 114.739705 36.142393 
L 114.951289 37.476191 
L 115.162873 36.356777 
L 115.374457 38.565129 
L 115.586041 38.929832 
L 115.797625 38.189269 
L 116.220793 35.941837 
L 116.432377 36.396472 
L 116.643961 35.708945 
L 116.855545 50.656737 
L 117.067129 45.225412 
L 117.278713 44.846617 
L 117.490297 40.779032 
L 117.701881 39.298789 
L 117.913465 41.290643 
L 118.125049 41.525448 
L 118.336633 38.786331 
L 118.548217 38.103168 
L 118.759801 36.732963 
L 118.971385 38.79084 
L 119.394554 39.229911 
L 119.817722 37.852959 
L 120.24089 38.892274 
L 120.664058 36.194918 
L 121.087226 35.22387 
L 121.29881 35.005385 
L 121.510394 35.8346 
L 121.933562 35.094156 
L 122.35673 34.827596 
L 123.203066 34.697088 
L 123.41465 34.689315 
L 123.626234 46.204652 
L 123.837818 41.593853 
L 124.049402 40.747067 
L 124.260986 38.319303 
L 124.47257 38.782337 
L 124.684154 38.100772 
L 124.895738 38.651218 
L 125.318907 36.108138 
L 125.530491 36.496253 
L 125.953659 39.940351 
L 126.165243 37.835273 
L 126.588411 38.885907 
L 126.799995 37.202606 
L 127.011579 38.112319 
L 127.223163 37.698761 
L 127.646331 35.765254 
L 128.069499 35.069191 
L 128.492667 34.818609 
L 129.127419 34.708102 
L 129.339003 35.656231 
L 129.762171 35.029943 
L 130.185339 34.804479 
L 130.396923 42.433443 
L 130.608507 39.331128 
L 130.820091 40.349739 
L 131.031676 38.080906 
L 131.24326 39.599606 
L 131.666428 36.449558 
L 131.878012 38.620797 
L 132.512764 36.451269 
L 132.724348 35.741824 
L 132.935932 37.23585 
L 133.3591 35.598606 
L 133.570684 37.149919 
L 133.782268 36.161014 
L 133.993852 36.527978 
L 134.41702 35.343772 
L 134.840188 34.917458 
L 135.051772 34.821537 
L 135.263356 35.724292 
L 135.686524 35.054445 
L 135.898108 35.864037 
L 136.321276 35.104753 
L 136.53286 34.933914 
L 136.744444 35.791718 
L 137.167613 40.647026 
L 137.802365 36.31275 
L 138.013949 37.578405 
L 138.437117 35.721926 
L 138.860285 36.590085 
L 139.071869 37.744806 
L 139.283453 36.517946 
L 139.495037 36.742137 
L 139.918205 35.420869 
L 140.129789 35.123584 
L 140.341373 35.90552 
L 140.764541 35.119687 
L 141.187709 34.836787 
L 141.822461 34.712028 
L 142.880382 34.680329 
L 143.091966 36.598953 
L 143.515134 35.369323 
L 143.938302 34.926656 
L 144.573054 34.73144 
L 145.842558 34.680165 
L 146.054142 35.639469 
L 146.47731 35.023909 
L 146.900478 34.802307 
L 147.112062 34.752447 
L 147.53523 36.241072 
L 147.958398 35.240486 
L 148.169982 35.015354 
L 148.381566 35.840582 
L 148.593151 35.375412 
L 148.804735 37.016002 
L 149.227903 35.519461 
L 149.651071 34.980706 
L 150.285823 34.743115 
L 150.497407 34.716931 
L 150.708991 50.061528 
L 150.920575 45.827672 
L 151.132159 46.167359 
L 151.766911 37.850521 
L 151.978495 39.461375 
L 152.824831 35.850763 
L 153.036415 35.38152 
L 153.459583 36.467539 
L 153.671167 36.711893 
L 154.094335 35.409981 
L 154.517504 34.941293 
L 154.729088 34.835838 
L 154.940672 35.732873 
L 155.152256 35.310786 
L 155.36384 36.017841 
L 155.575424 38.361767 
L 155.787008 36.888123 
L 155.998592 37.923629 
L 156.210176 36.62524 
L 156.42176 37.765899 
L 156.633344 36.530602 
L 156.844928 36.749731 
L 157.268096 35.423603 
L 157.47968 42.804917 
L 157.902848 37.60347 
L 158.114432 36.433144 
L 158.326016 36.691256 
L 158.749184 35.402552 
L 159.172352 34.938619 
L 159.59552 34.771603 
L 159.807104 35.694331 
L 160.230273 35.043659 
L 160.653441 34.809417 
L 160.865025 34.756713 
L 161.076609 37.60509 
L 161.288193 37.394424 
L 161.711361 35.655692 
L 162.134529 35.029749 
L 162.557697 34.80441 
L 162.980865 34.723287 
L 163.192449 35.665342 
L 163.404033 35.270268 
L 163.615617 35.99353 
L 164.038785 35.151371 
L 164.250369 46.481885 
L 164.673537 38.927178 
L 165.096705 36.207484 
L 165.519873 36.764886 
L 165.731457 37.849687 
L 165.943042 40.421182 
L 166.154626 38.123771 
L 166.36621 39.625325 
L 166.789378 36.458817 
L 167.000962 35.746353 
L 167.42413 36.598878 
L 167.635714 39.670697 
L 167.847298 40.55348 
L 168.058882 38.203151 
L 168.270466 38.712646 
L 168.693634 36.130252 
L 169.116802 35.200591 
L 169.53997 34.865913 
L 169.751554 34.79061 
L 169.963138 36.665121 
L 170.386306 35.393143 
L 170.809474 34.935232 
L 171.021058 42.511894 
L 171.655811 36.715562 
L 172.078979 35.411302 
L 172.502147 34.941769 
L 172.925315 34.772737 
L 173.136899 35.695012 
L 173.560067 35.043904 
L 173.983235 34.809505 
L 174.194819 35.717073 
L 174.617987 35.051846 
L 174.829571 34.90217 
L 175.041155 35.772672 
L 175.464323 35.071862 
L 175.887491 34.81957 
L 176.099075 36.682497 
L 176.522243 35.399399 
L 176.945411 34.937483 
L 177.580164 34.733779 
L 177.791748 46.23133 
L 178.214916 39.413163 
L 178.4265 41.359267 
L 178.638084 39.64693 
L 178.849668 39.578913 
L 179.272836 36.442109 
L 179.48442 36.696635 
L 179.696004 35.889043 
L 179.907588 36.364796 
L 180.119172 35.68994 
L 180.330756 36.245333 
L 180.753924 39.273836 
L 181.177092 36.332281 
L 181.388676 39.510738 
L 181.60026 37.577505 
L 181.811844 37.377873 
L 182.235012 35.649734 
L 182.446596 35.260903 
L 182.65818 35.987911 
L 183.081348 35.149348 
L 183.504517 34.847465 
L 184.139269 34.714335 
L 186.043525 34.678026 
L 186.255109 35.638185 
L 186.678277 35.023446 
L 187.101445 34.802141 
L 187.524613 34.72247 
L 187.736197 35.664852 
L 188.159365 35.033047 
L 188.582533 34.805597 
L 189.42887 34.694237 
L 191.121542 34.677935 
L 191.333126 38.51813 
L 191.756294 36.060227 
L 191.967878 35.507198 
L 192.179462 36.135689 
L 192.60263 35.202548 
L 193.025798 34.866617 
L 193.66055 34.718472 
L 194.083718 34.69235 
L 194.295302 35.646779 
L 194.71847 35.02654 
L 195.141639 34.803254 
L 195.987975 34.693934 
L 200.008071 34.677657 
L 200.219655 35.637964 
L 200.642823 35.023367 
L 201.065992 34.802112 
L 201.277576 35.712637 
L 201.700744 35.050249 
L 202.123912 34.81179 
L 202.758664 34.706629 
L 202.970248 36.614733 
L 203.393416 35.375004 
L 203.816584 34.928701 
L 204.451336 34.731882 
L 204.66292 35.670499 
L 204.874504 46.793362 
L 205.297672 39.03931 
L 205.72084 36.247851 
L 206.144008 36.779418 
L 206.355592 35.938713 
L 206.567177 36.394598 
L 206.778761 35.707821 
L 206.990345 36.256062 
L 207.413513 35.245882 
L 207.836681 34.882217 
L 208.471433 34.721841 
L 210.164105 34.678398 
L 211.433609 34.677691 
L 211.645193 42.35737 
L 212.068361 37.442353 
L 212.49153 35.672947 
L 212.703114 36.235138 
L 213.126282 35.238349 
L 213.337866 35.974379 
L 213.761034 35.144476 
L 214.184202 34.845711 
L 214.818954 34.713956 
L 216.934794 34.677876 
L 218.204299 34.677666 
L 218.415883 53.877355 
L 218.627467 46.197475 
L 219.473803 36.585278 
L 219.896971 35.3644 
L 220.320139 34.924884 
L 220.954891 34.731057 
L 221.166475 35.670004 
L 221.378059 37.192758 
L 221.801227 35.583093 
L 222.224395 35.003613 
L 222.647563 34.795001 
L 223.493899 34.692864 
L 223.705483 34.686781 
L 223.917067 35.643438 
L 224.340236 35.025338 
L 224.763404 34.802821 
L 224.974988 34.752755 
L 225.186572 46.242716 
L 225.60974 40.377569 
L 226.032908 36.729625 
L 226.244492 36.869144 
L 226.66766 35.466592 
L 227.090828 34.961673 
L 227.72558 34.739004 
L 228.148748 34.699741 
L 228.360332 35.651214 
L 228.7835 35.028137 
L 229.206668 34.803829 
L 230.053005 34.694008 
L 231.745677 34.677931 
L 231.957261 46.197821 
L 232.380429 38.824915 
L 232.803597 36.170669 
L 233.226765 35.215141 
L 233.649933 34.871151 
L 233.861517 34.793753 
L 234.073101 35.707621 
L 234.496269 35.048444 
L 234.707853 36.819821 
L 235.131021 35.448836 
L 235.342605 35.140364 
L 235.554189 35.915588 
L 235.977358 35.123311 
L 236.400526 34.838092 
L 236.823694 34.735413 
L 237.035278 35.672617 
L 237.458446 35.035842 
L 237.881614 34.806603 
L 238.516366 34.705509 
L 238.72795 46.214368 
L 239.151118 38.830872 
L 239.574286 36.172814 
L 239.78587 36.535058 
L 240.209038 35.346321 
L 240.420622 36.039162 
L 240.84379 35.167798 
L 241.266958 34.854107 
L 241.690127 34.741178 
L 241.901711 35.676077 
L 242.324879 35.037087 
L 242.748047 34.807051 
L 243.594383 34.694426 
L 243.805967 34.687718 
L 244.017551 35.644 
L 244.440719 35.02554 
L 244.863887 34.802894 
L 245.075471 34.752799 
L 245.287055 35.683049 
L 245.498639 35.280892 
L 245.498639 35.280892 
" clip-path="url(#pbe3ffe3313)" style="fill: none; stroke: #023eff; stroke-width: 1.5; stroke-linecap: round"/>
   </g>
   <g id="line2d_3">
    <path d="M 42.589548 233.876888 
L 42.801132 216.596888 
L 43.012716 217.748888 
L 43.2243 221.320088 
L 43.647468 207.661239 
L 43.859053 193.187806 
L 44.070637 195.063439 
L 44.493805 202.432354 
L 44.705389 190.050475 
L 45.128557 183.348055 
L 45.340141 183.399588 
L 45.551725 190.150816 
L 45.763309 190.361245 
L 45.974893 192.408116 
L 46.186477 191.715625 
L 46.398061 188.42013 
L 46.609645 182.603448 
L 46.821229 181.993438 
L 47.244397 178.334846 
L 47.667565 165.88206 
L 48.090733 174.071242 
L 48.302317 169.1935 
L 48.513901 171.06747 
L 48.937069 160.577498 
L 49.148653 156.297561 
L 49.571821 172.349006 
L 49.99499 161.231834 
L 50.206574 148.050163 
L 50.418158 151.66116 
L 50.629742 147.107451 
L 50.841326 149.17584 
L 51.05291 149.456567 
L 51.264494 150.58531 
L 51.476078 154.142555 
L 51.687662 150.516903 
L 51.899246 142.581511 
L 52.11083 143.580277 
L 52.322414 140.339228 
L 52.533998 133.594907 
L 52.745582 135.308314 
L 53.16875 141.944386 
L 53.380334 135.517387 
L 53.591918 135.501494 
L 53.803502 147.011959 
L 54.015086 142.398238 
L 54.22667 132.909698 
L 54.438254 133.936881 
L 55.073006 125.506645 
L 55.28459 123.73505 
L 55.496175 131.312092 
L 55.707759 129.138011 
L 56.130927 170.827261 
L 56.342511 178.767112 
L 56.554095 177.771022 
L 56.977263 159.151391 
L 57.188847 160.24159 
L 57.400431 158.976016 
L 57.823599 146.24125 
L 58.035183 146.735505 
L 58.246767 140.312673 
L 58.458351 141.258666 
L 58.669935 137.985955 
L 58.881519 137.942943 
L 59.093103 135.996521 
L 59.304687 122.349282 
L 59.516271 125.680939 
L 59.727855 125.759319 
L 60.362607 108.840821 
L 60.574191 112.775248 
L 60.785775 108.416519 
L 60.997359 112.520666 
L 61.208943 108.263769 
L 61.420528 112.429017 
L 61.843696 110.284638 
L 62.266864 127.560169 
L 62.478448 124.967164 
L 62.901616 143.789879 
L 63.1132 143.34499 
L 63.324784 134.438056 
L 63.536368 131.973896 
L 63.747952 134.335707 
L 63.959536 124.232794 
L 64.382704 121.253199 
L 64.594288 118.302982 
L 64.805872 122.292851 
L 65.017456 113.166773 
L 65.22904 118.250819 
L 65.440624 119.381554 
L 65.863792 108.371059 
L 66.075376 107.693698 
L 66.28696 102.487588 
L 66.498544 102.243923 
L 66.710128 104.977723 
L 67.133297 92.433189 
L 67.344881 94.290668 
L 67.556465 93.485464 
L 67.768049 88.202648 
L 67.979633 78.312651 
L 68.191217 87.73896 
L 68.402801 105.874131 
L 68.825969 98.708879 
L 69.037553 99.01639 
L 69.249137 106.880589 
L 69.460721 120.239109 
L 69.672305 105.21422 
L 69.883889 101.959288 
L 70.095473 91.366328 
L 70.518641 96.941701 
L 70.941809 85.892528 
L 71.153393 90.366272 
L 71.364977 92.091133 
L 71.999729 80.678549 
L 72.211313 85.318192 
L 72.422897 78.50167 
L 72.634481 78.252065 
L 72.846066 80.021994 
L 73.05765 71.484566 
L 73.269234 75.002109 
L 73.692402 76.842459 
L 73.903986 76.296231 
L 74.11557 69.249108 
L 74.327154 67.900834 
L 74.538738 65.171256 
L 74.750322 66.413509 
L 74.961906 64.27886 
L 75.17349 71.638072 
L 75.385074 64.533598 
L 75.596658 67.951529 
L 75.808242 63.28198 
L 76.019826 61.440557 
L 76.23141 89.135704 
L 76.442994 73.112485 
L 76.654578 70.218861 
L 76.866162 71.362686 
L 77.077746 71.088674 
L 77.500914 60.073131 
L 77.924082 51.692519 
L 78.135666 55.446266 
L 78.34725 55.778822 
L 78.558834 53.098356 
L 78.982003 52.061599 
L 79.193587 52.787715 
L 79.405171 54.183691 
L 79.616755 53.101584 
L 79.828339 49.57232 
L 80.039923 53.214762 
L 80.251507 50.599612 
L 80.463091 51.910523 
L 80.674675 46.937069 
L 81.097843 46.770553 
L 81.521011 41.143222 
L 81.732595 44.316996 
L 81.944179 43.34126 
L 82.155763 43.716125 
L 82.578931 42.539505 
L 82.790515 48.995073 
L 83.002099 62.467799 
L 83.213683 61.911435 
L 83.425267 55.817616 
L 83.636851 53.121632 
L 83.848435 48.624042 
L 84.060019 50.72518 
L 84.483188 48.134273 
L 84.906356 50.27453 
L 85.11794 50.756087 
L 85.541108 53.713707 
L 85.752692 47.059594 
L 85.964276 45.947126 
L 86.17586 42.399645 
L 86.599028 43.602064 
L 87.022196 40.961951 
L 87.23378 43.247926 
L 87.445364 43.660125 
L 87.656948 46.787445 
L 87.868532 46.743222 
L 88.2917 45.165751 
L 88.503284 41.93082 
L 88.714868 41.909555 
L 88.926452 44.776795 
L 89.138036 42.656832 
L 89.34962 44.264855 
L 89.561204 44.270282 
L 89.772788 63.473232 
L 89.984372 60.595002 
L 90.195956 52.147756 
L 90.407541 49.959409 
L 90.619125 52.486708 
L 90.830709 48.243087 
L 91.042293 46.657222 
L 91.253877 42.825703 
L 91.465461 42.446484 
L 91.677045 40.29926 
L 91.888629 40.930618 
L 92.100213 46.109126 
L 92.311797 43.456231 
L 92.734965 42.445943 
L 93.369717 36.701317 
L 93.792885 35.406174 
L 94.004469 35.114767 
L 94.216053 35.90023 
L 94.427637 37.330893 
L 94.639221 37.229905 
L 94.850805 38.128698 
L 95.062389 36.748281 
L 95.273973 36.880339 
L 95.485557 42.719573 
L 95.697141 44.302499 
L 95.908725 42.372255 
L 96.12031 45.054415 
L 96.331894 42.823404 
L 96.543478 54.925412 
L 96.755062 60.266003 
L 97.389814 43.699372 
L 97.601398 43.930993 
L 98.024566 39.545349 
L 98.23615 39.517965 
L 98.447734 40.461841 
L 98.659318 45.82786 
L 99.082486 40.228221 
L 99.505654 37.252044 
L 99.928822 38.675944 
L 100.140406 37.076629 
L 100.35199 37.077347 
L 100.563574 39.957778 
L 100.775158 40.725729 
L 100.986742 40.226193 
L 101.40991 37.251314 
L 101.621494 41.981851 
L 102.044663 37.307166 
L 102.256247 38.175055 
L 102.467831 40.616403 
L 102.890999 39.887113 
L 103.102583 41.643638 
L 103.314167 54.217552 
L 103.525751 50.241901 
L 103.737335 44.016203 
L 104.160503 38.615717 
L 104.372087 38.960186 
L 104.583671 37.247174 
L 104.795255 37.179674 
L 105.006839 36.178867 
L 105.430007 36.754583 
L 105.641591 35.923812 
L 106.064759 36.662764 
L 106.487927 36.928786 
L 106.699511 39.868641 
L 107.334263 37.104927 
L 107.757432 37.087965 
L 107.969016 38.043534 
L 108.1806 36.697183 
L 108.392184 36.849679 
L 108.603768 35.98087 
L 108.815352 36.419892 
L 109.23852 35.304861 
L 109.450104 36.973672 
L 109.661688 36.055265 
L 109.873272 36.464529 
L 110.084856 43.429473 
L 110.29644 44.728439 
L 110.931192 39.459407 
L 111.142776 37.546707 
L 111.565944 41.278822 
L 111.777528 41.518355 
L 112.200696 37.716492 
L 112.41228 40.341265 
L 112.623864 39.995514 
L 112.835448 40.748371 
L 113.258616 38.399605 
L 113.4702 40.751133 
L 113.681785 41.201742 
L 113.893369 40.5118 
L 114.104953 38.178143 
L 114.316537 38.697641 
L 114.739705 36.124851 
L 114.951289 40.345666 
L 115.374457 37.294324 
L 115.586041 37.207964 
L 116.009209 35.588567 
L 116.220793 35.224203 
L 116.432377 35.965891 
L 116.643961 35.450597 
L 116.855545 50.501728 
L 117.067129 47.052099 
L 117.278713 47.862322 
L 117.490297 52.188763 
L 117.701881 45.18432 
L 117.913465 41.941962 
L 118.125049 40.955932 
L 118.548217 36.937835 
L 118.971385 37.027812 
L 119.182969 38.96775 
L 119.606138 39.293598 
L 120.029306 36.339395 
L 120.24089 36.635007 
L 120.664058 35.382302 
L 121.087226 34.931329 
L 121.29881 35.790167 
L 121.721978 35.07816 
L 121.933562 36.837651 
L 122.145146 36.93396 
L 122.35673 36.031439 
L 122.568314 36.450233 
L 122.779898 35.741202 
L 122.991482 36.276091 
L 123.41465 35.253093 
L 123.626234 50.383225 
L 123.837818 48.90069 
L 124.049402 43.211477 
L 124.260986 45.557948 
L 124.47257 42.166139 
L 125.742075 35.978243 
L 125.953659 37.377701 
L 126.376827 37.186164 
L 126.588411 38.102453 
L 127.011579 35.910583 
L 127.223163 36.377719 
L 127.646331 35.289679 
L 127.857915 39.844563 
L 128.281083 36.537742 
L 128.492667 35.793708 
L 128.704251 36.307594 
L 129.127419 35.264434 
L 129.550587 34.888896 
L 129.762171 37.6844 
L 130.185339 35.760084 
L 130.396923 54.526806 
L 130.820091 45.471043 
L 131.031676 44.993995 
L 131.454844 38.967722 
L 131.878012 36.22208 
L 132.30118 35.233649 
L 132.512764 36.930944 
L 132.724348 36.029629 
L 132.935932 36.449147 
L 133.147516 37.660243 
L 133.3591 36.467208 
L 133.570684 36.711695 
L 133.782268 35.898079 
L 133.993852 38.28991 
L 134.205436 37.805316 
L 134.41702 36.554252 
L 134.840188 36.889722 
L 135.051772 36.965203 
L 135.47494 35.501173 
L 135.898108 34.974122 
L 136.109692 36.775228 
L 136.321276 36.896507 
L 136.53286 36.008966 
L 136.744444 36.436749 
L 136.956029 35.733112 
L 137.167613 42.990622 
L 137.590781 37.670324 
L 138.013949 35.755016 
L 138.437117 35.065506 
L 138.648701 34.910366 
L 138.860285 35.777589 
L 139.071869 35.337616 
L 139.283453 36.993325 
L 139.495037 36.067057 
L 139.918205 36.714332 
L 140.341373 35.410859 
L 140.764541 34.941609 
L 141.399293 34.73467 
L 142.245629 34.685045 
L 142.457213 35.642397 
L 142.668798 35.2565 
L 142.880382 35.98527 
L 143.30355 35.148397 
L 143.515134 34.960101 
L 143.726718 35.80743 
L 143.938302 46.87552 
L 144.149886 41.996375 
L 144.573054 38.848886 
L 144.784638 38.140701 
L 144.996222 38.675176 
L 145.207806 38.036475 
L 145.41939 36.692948 
L 145.630974 38.766831 
L 145.842558 37.131161 
L 146.054142 37.110066 
L 146.47731 35.553324 
L 146.688894 35.203057 
L 147.112062 36.403292 
L 147.53523 35.298885 
L 147.958398 34.901298 
L 148.169982 35.772149 
L 148.593151 35.071673 
L 148.804735 35.874374 
L 149.227903 35.108474 
L 149.651071 34.832751 
L 149.862655 35.73102 
L 150.285823 35.056867 
L 150.497407 34.905183 
L 150.708991 54.013865 
L 151.132159 43.175183 
L 151.343743 40.736479 
L 151.555327 42.153257 
L 151.978495 37.945057 
L 152.190079 40.478404 
L 152.613247 39.837434 
L 153.036415 36.535176 
L 153.459583 35.346363 
L 153.671167 36.039188 
L 154.094335 35.167807 
L 154.517504 36.390602 
L 154.940672 35.294317 
L 155.36384 34.899654 
L 155.575424 34.810855 
L 155.787008 37.637575 
L 155.998592 36.453608 
L 156.210176 36.703534 
L 156.633344 35.406972 
L 157.056512 34.94021 
L 157.268096 34.835188 
L 157.47968 46.292175 
L 157.691264 41.646368 
L 158.326016 36.528608 
L 158.749184 35.343999 
L 159.172352 34.917539 
L 159.807104 34.729471 
L 161.076609 34.680074 
L 161.288193 35.639414 
L 161.711361 35.023889 
L 162.134529 34.8023 
L 162.557697 34.722528 
L 162.769281 35.664886 
L 163.192449 35.033059 
L 163.615617 34.805601 
L 164.038785 34.723716 
L 164.250369 42.384985 
L 164.673537 38.028479 
L 164.885121 37.648457 
L 165.096705 36.460137 
L 165.308289 36.707452 
L 165.731457 35.408382 
L 166.154626 34.940718 
L 166.789378 34.734477 
L 167.212546 34.698112 
L 167.42413 35.650237 
L 167.635714 35.261204 
L 167.847298 35.988092 
L 168.270466 35.149413 
L 168.48205 34.96071 
L 168.693634 36.767181 
L 169.116802 35.429885 
L 169.53997 34.948459 
L 169.751554 35.800445 
L 170.174722 35.08186 
L 170.386306 35.880486 
L 170.809474 35.110675 
L 171.021058 38.777774 
L 171.444226 36.153699 
L 171.867395 35.209031 
L 172.290563 34.868951 
L 172.925315 34.718976 
L 173.136899 34.702448 
L 173.348483 35.652838 
L 173.771651 35.028722 
L 173.983235 35.848603 
L 174.194819 35.380224 
L 174.406403 36.059504 
L 174.829571 35.175121 
L 175.041155 34.976135 
L 175.252739 35.817051 
L 175.675907 35.087838 
L 176.099075 34.825322 
L 176.945411 34.696793 
L 177.580164 34.68179 
L 177.791748 38.520443 
L 178.214916 36.06106 
L 178.638084 35.175681 
L 178.849668 35.936778 
L 179.061252 35.433129 
L 179.48442 36.486118 
L 179.907588 35.328702 
L 180.330756 34.912033 
L 180.965508 34.728281 
L 181.60026 34.688591 
L 181.811844 35.644524 
L 182.235012 35.025729 
L 182.446596 35.846807 
L 182.869764 35.09855 
L 183.292933 34.829178 
L 184.139269 34.697293 
L 184.350853 34.689438 
L 184.562437 38.525033 
L 184.774021 36.986082 
L 184.985605 37.023019 
L 185.408773 35.521987 
L 185.831941 34.981615 
L 186.466693 34.743311 
L 187.101445 34.691838 
L 187.313029 36.605858 
L 187.736197 35.371809 
L 188.159365 34.927551 
L 188.794117 34.731633 
L 190.275206 34.679167 
L 190.48679 34.678563 
L 190.909958 36.214474 
L 191.121542 35.599747 
L 191.333126 42.910603 
L 191.756294 37.641517 
L 192.179462 35.744646 
L 192.60263 35.061772 
L 193.025798 34.815938 
L 193.872134 34.695577 
L 194.930055 34.67905 
L 195.141639 35.638799 
L 195.564807 35.023668 
L 195.776391 34.885263 
L 195.987975 35.762527 
L 196.411143 35.06821 
L 196.834311 34.818255 
L 197.045895 35.722323 
L 197.469063 35.053736 
L 197.680647 35.863611 
L 197.892231 35.389229 
L 198.103815 38.944907 
L 198.526983 36.213866 
L 198.738567 35.599382 
L 198.950151 36.190999 
L 199.373319 35.222459 
L 199.796487 34.873785 
L 200.431239 34.72002 
L 201.277576 34.683146 
L 201.48916 35.641257 
L 201.912328 35.024553 
L 202.335496 34.802539 
L 203.181832 34.693841 
L 203.605 34.683483 
L 203.816584 35.641459 
L 204.239752 35.024625 
L 204.66292 34.802565 
L 204.874504 38.592909 
L 205.297672 36.087147 
L 205.72084 35.185073 
L 206.144008 34.860326 
L 206.778761 34.717113 
L 208.683017 34.678054 
L 208.894601 37.557895 
L 209.317769 35.714542 
L 209.740937 35.050935 
L 209.952521 35.861931 
L 210.375689 35.103995 
L 210.798857 34.831138 
L 211.645193 34.697547 
L 211.856777 35.649898 
L 212.279945 35.027663 
L 212.703114 34.803659 
L 213.54945 34.693986 
L 215.030538 34.678113 
L 215.66529 37.519342 
L 216.088458 35.700663 
L 216.511626 35.045939 
L 216.934794 34.810238 
L 217.146378 35.717512 
L 217.569546 35.052004 
L 217.992714 34.812421 
L 218.204299 34.758515 
L 218.415883 53.925864 
L 218.839051 42.183195 
L 219.262219 37.37965 
L 219.685387 38.721882 
L 219.896971 37.104192 
L 220.108555 37.093885 
L 220.531723 35.547498 
L 220.954891 34.990799 
L 221.378059 34.790388 
L 221.801227 34.718239 
L 222.012811 35.662313 
L 222.435979 35.032133 
L 222.859147 34.805268 
L 223.705483 34.694194 
L 225.821324 34.677756 
L 226.032908 35.638023 
L 226.456076 35.023388 
L 226.879244 34.80212 
L 227.72558 34.693787 
L 230.264589 34.677691 
L 230.476173 36.59737 
L 230.687757 35.829484 
L 230.899341 36.32906 
L 231.322509 35.272162 
L 231.745677 34.891678 
L 231.957261 46.326069 
L 232.380429 38.871085 
L 232.803597 36.18729 
L 233.226765 35.221124 
L 233.649933 34.873305 
L 234.284685 34.719916 
L 235.131021 34.683133 
L 235.342605 35.641249 
L 235.765774 35.02455 
L 236.188942 34.802538 
L 236.400526 35.712892 
L 236.823694 35.050341 
L 237.246862 34.811823 
L 238.093198 34.695044 
L 238.516366 34.683916 
L 238.72795 42.361105 
L 239.151118 37.443698 
L 239.574286 35.673431 
L 239.997454 35.036135 
L 240.420622 34.806708 
L 241.266958 34.694381 
L 245.287055 34.677657 
L 245.498639 42.357349 
L 245.498639 42.357349 
" clip-path="url(#pbe3ffe3313)" style="fill: none; stroke: #1ac938; stroke-width: 1.5; stroke-linecap: round"/>
   </g>
   <g id="line2d_4">
    <path d="M 42.589548 207.477656 
L 42.801132 203.637349 
L 43.2243 216.654654 
L 43.435884 213.944162 
L 43.647468 214.23756 
L 43.859053 206.733906 
L 44.070637 208.951099 
L 44.282221 216.041414 
L 44.493805 208.775604 
L 44.705389 205.376425 
L 44.916973 206.216917 
L 45.128557 204.80152 
L 45.340141 205.871975 
L 45.763309 183.091734 
L 45.974893 177.485795 
L 46.186477 179.882233 
L 46.821229 170.604737 
L 47.032813 170.953905 
L 47.455981 160.729597 
L 47.667565 152.548514 
L 47.879149 155.320478 
L 48.090733 146.423042 
L 48.302317 145.885195 
L 48.725485 128.664862 
L 48.937069 132.350287 
L 49.148653 124.000927 
L 49.360237 134.351619 
L 49.571821 130.961727 
L 49.99499 128.283614 
L 50.206574 125.401231 
L 50.418158 117.911801 
L 50.629742 105.73845 
L 51.05291 99.811849 
L 51.264494 102.558172 
L 51.476078 96.526273 
L 51.687662 99.626519 
L 51.899246 96.686974 
L 52.11083 87.243554 
L 52.322414 89.257195 
L 52.533998 94.305687 
L 52.745582 89.654167 
L 53.380334 111.60217 
L 53.591918 110.592672 
L 53.803502 113.826358 
L 54.22667 92.931312 
L 54.438254 92.669849 
L 54.649838 86.752972 
L 54.861422 97.602846 
L 55.073006 95.47277 
L 55.28459 95.155032 
L 55.707759 97.921511 
L 55.919343 118.703969 
L 56.977263 75.166078 
L 57.188847 73.370709 
L 57.400431 78.053488 
L 57.823599 69.876771 
L 58.246767 74.997338 
L 59.093103 55.639702 
L 59.304687 55.894883 
L 59.516271 55.087685 
L 59.727855 53.643981 
L 60.151023 53.793041 
L 60.362607 56.70658 
L 60.574191 49.814703 
L 60.785775 53.360192 
L 60.997359 50.68687 
L 61.208943 51.962877 
L 61.632112 56.260827 
L 61.843696 55.307252 
L 62.05528 49.935413 
L 62.478448 50.92294 
L 62.690032 86.664519 
L 62.901616 88.909774 
L 63.1132 84.496927 
L 63.536368 62.213085 
L 63.747952 61.758606 
L 63.959536 54.766533 
L 64.17112 53.45129 
L 64.382704 49.782143 
L 65.017456 46.388238 
L 65.22904 46.503698 
L 65.440624 47.533281 
L 65.652208 43.351338 
L 65.863792 41.801558 
L 66.075376 44.711997 
L 66.28696 40.698261 
L 66.498544 44.050019 
L 66.710128 40.301074 
L 67.133297 38.238578 
L 67.556465 41.527895 
L 67.768049 39.748107 
L 67.979633 40.599926 
L 68.402801 36.809673 
L 68.614385 36.917174 
L 69.037553 38.555391 
L 69.249137 42.764297 
L 69.460721 74.089641 
L 69.672305 60.24454 
L 69.883889 62.498093 
L 70.307057 47.957505 
L 70.730225 43.106094 
L 70.941809 42.614719 
L 71.153393 43.280201 
L 71.364977 39.839183 
L 71.576561 41.614879 
L 71.788145 38.83999 
L 71.999729 41.015364 
L 72.211313 40.399973 
L 72.422897 38.111046 
L 72.634481 37.697997 
L 73.05765 35.764979 
L 73.269234 36.290357 
L 73.480818 37.564969 
L 73.692402 36.410044 
L 73.903986 36.677396 
L 74.11557 35.8775 
L 74.327154 39.23787 
L 74.538738 37.413784 
L 74.961906 37.199154 
L 75.17349 38.110247 
L 75.385074 36.737211 
L 75.596658 36.873696 
L 75.808242 35.99528 
L 76.019826 40.267923 
L 76.23141 53.392124 
L 76.866162 41.293273 
L 77.28933 40.130786 
L 77.500914 40.829534 
L 77.712498 38.368783 
L 77.924082 37.852639 
L 78.135666 36.582646 
L 78.34725 38.70065 
L 78.558834 38.05176 
L 78.982003 38.963842 
L 79.405171 36.220683 
L 79.616755 38.483472 
L 79.828339 36.961146 
L 80.463091 37.053092 
L 80.674675 36.102918 
L 81.097843 36.727242 
L 81.309427 38.787407 
L 81.732595 36.157167 
L 82.155763 35.21028 
L 82.367347 36.916923 
L 82.790515 35.483792 
L 83.002099 39.001645 
L 83.213683 37.272049 
L 83.425267 41.994292 
L 84.060019 36.60376 
L 84.271603 35.833318 
L 84.694772 39.12551 
L 84.906356 37.346369 
L 85.11794 37.239191 
L 85.541108 35.599809 
L 85.752692 36.191255 
L 86.17586 35.222552 
L 86.387444 35.004593 
L 86.599028 35.834126 
L 86.810612 37.291231 
L 87.23378 35.618543 
L 87.445364 35.242188 
L 87.868532 36.417379 
L 88.2917 35.303956 
L 88.503284 36.973129 
L 88.926452 35.504026 
L 89.34962 34.975149 
L 89.561204 35.816459 
L 89.772788 50.721245 
L 89.984372 49.103502 
L 90.619125 41.518746 
L 90.830709 43.582003 
L 91.042293 41.939957 
L 91.465461 46.508084 
L 91.888629 38.93661 
L 92.100213 38.193336 
L 92.311797 36.787064 
L 92.523381 36.903608 
L 92.946549 35.478999 
L 93.369717 34.966139 
L 93.581301 34.850746 
L 93.792885 35.741817 
L 94.216053 35.060754 
L 94.427637 35.867822 
L 94.639221 35.391756 
L 94.850805 38.946423 
L 95.062389 38.199223 
L 95.485557 35.94542 
L 95.697141 36.398622 
L 95.908725 35.710235 
L 96.12031 36.257511 
L 96.331894 35.625569 
L 96.543478 46.766404 
L 97.17823 38.556099 
L 97.389814 38.924415 
L 97.812982 36.206489 
L 98.23615 36.764527 
L 98.659318 35.42893 
L 98.870902 37.048113 
L 99.082486 37.060237 
L 99.29407 36.107205 
L 99.505654 36.495693 
L 99.928822 35.332149 
L 100.140406 35.070352 
L 100.35199 36.832966 
L 100.563574 35.970842 
L 100.986742 36.679695 
L 101.40991 35.39839 
L 101.833078 34.93712 
L 102.044663 34.833335 
L 102.256247 35.73137 
L 102.467831 35.309885 
L 102.679415 36.0173 
L 102.890999 35.481443 
L 103.102583 38.039928 
L 103.314167 44.374712 
L 103.525751 43.37589 
L 103.737335 40.856903 
L 103.948919 43.184897 
L 104.160503 41.701694 
L 104.372087 42.732386 
L 104.795255 39.11385 
L 105.218423 37.811177 
L 105.430007 37.518076 
L 105.641591 38.301601 
L 106.064759 35.982276 
L 106.276343 35.460428 
L 106.487927 36.107626 
L 106.911095 35.192445 
L 107.334263 34.86298 
L 107.757432 34.744373 
L 108.1806 36.238166 
L 108.392184 35.613962 
L 108.603768 37.159132 
L 108.815352 36.166542 
L 109.026936 41.330987 
L 109.23852 38.669655 
L 109.450104 38.033163 
L 109.873272 35.885638 
L 110.084856 58.442445 
L 110.508024 45.728857 
L 110.931192 39.807904 
L 111.35436 39.596054 
L 111.565944 38.589002 
L 111.777528 37.024464 
L 112.200696 37.058998 
L 112.41228 36.106461 
L 112.623864 36.495246 
L 112.835448 37.687903 
L 113.047032 37.444111 
L 113.4702 35.67358 
L 113.681785 37.194903 
L 114.104953 35.583865 
L 114.528121 35.003891 
L 114.951289 34.795101 
L 115.374457 36.256428 
L 115.797625 35.246014 
L 116.009209 36.938364 
L 116.432377 35.491511 
L 116.855545 34.970644 
L 117.490297 34.740941 
L 118.759801 34.680609 
L 118.971385 34.679428 
L 119.182969 35.639026 
L 119.394554 35.254478 
L 119.606138 35.984056 
L 120.029306 35.14796 
L 120.452474 34.846966 
L 121.087226 34.714227 
L 122.991482 34.678025 
L 123.203066 35.638184 
L 123.41465 35.253973 
L 123.626234 42.703139 
L 124.049402 37.56683 
L 124.47257 35.717759 
L 124.895738 35.052093 
L 125.318907 34.812453 
L 125.742075 34.726183 
L 125.953659 35.667079 
L 126.165243 35.27131 
L 126.588411 36.427863 
L 126.799995 38.60778 
L 127.011579 38.955423 
L 127.223163 38.204624 
L 127.434747 36.793837 
L 127.646331 37.867057 
L 127.857915 36.591297 
L 128.069499 36.786148 
L 128.492667 35.436713 
L 128.704251 36.093397 
L 129.127419 35.187323 
L 129.550587 34.861136 
L 130.185339 34.717288 
L 130.396923 38.541742 
L 130.608507 37.956415 
L 131.031676 35.858009 
L 131.454844 35.102583 
L 131.878012 34.83063 
L 132.089596 34.76944 
L 132.30118 35.693034 
L 132.512764 35.286883 
L 132.724348 36.003499 
L 133.147516 35.15496 
L 133.570684 34.849485 
L 134.205436 34.714771 
L 134.41702 34.699925 
L 134.628604 35.651325 
L 135.051772 35.028177 
L 135.263356 35.848276 
L 135.686524 35.099079 
L 136.109692 34.829368 
L 136.956029 34.697318 
L 137.167613 42.369146 
L 137.590781 37.446592 
L 138.013949 35.674473 
L 138.225533 40.075439 
L 138.437117 37.916326 
L 138.648701 37.581165 
L 138.860285 36.419761 
L 139.283453 36.841306 
L 139.495037 38.855846 
L 139.918205 36.181804 
L 140.341373 35.219149 
L 140.764541 34.872594 
L 141.187709 34.747834 
L 141.399293 35.68007 
L 141.822461 35.038525 
L 142.245629 36.34406 
L 142.668798 35.277562 
L 143.091966 34.893622 
L 143.726718 34.724305 
L 143.938302 38.545952 
L 144.149886 36.998634 
L 144.36147 37.03055 
L 144.784638 35.524698 
L 144.996222 35.185881 
L 145.207806 36.902284 
L 145.630974 35.478522 
L 146.054142 34.965968 
L 146.688894 34.739931 
L 147.323646 34.691108 
L 147.53523 35.646034 
L 147.958398 35.026272 
L 148.381566 34.803158 
L 148.593151 34.752957 
L 148.804735 35.683144 
L 149.227903 35.039632 
L 149.651071 34.807967 
L 150.497407 34.694544 
L 150.708991 42.367482 
L 151.132159 37.445993 
L 151.555327 35.674257 
L 151.978495 35.036433 
L 152.401663 34.806816 
L 152.824831 40.868645 
L 153.459583 36.36062 
L 153.671167 36.647742 
L 154.094335 35.386887 
L 154.30592 37.983195 
L 154.729088 35.86765 
L 155.152256 35.106054 
L 155.575424 34.831879 
L 156.42176 34.697643 
L 156.633344 35.649956 
L 157.056512 35.027684 
L 157.268096 35.84798 
L 157.47968 39.220158 
L 157.902848 36.312957 
L 158.326016 35.266364 
L 158.5376 35.030881 
L 158.749184 35.849898 
L 159.172352 35.099663 
L 159.383936 35.891168 
L 159.807104 35.11452 
L 160.230273 34.834927 
L 161.076609 34.698038 
L 161.288193 34.689885 
L 161.711361 36.21855 
L 162.134529 35.232378 
L 162.346113 35.970796 
L 162.769281 35.143187 
L 163.192449 34.845247 
L 163.827201 34.713856 
L 165.943042 34.677875 
L 166.789378 34.677684 
L 167.000962 35.63798 
L 167.42413 35.023373 
L 167.847298 34.802114 
L 168.693634 34.693786 
L 169.751554 34.67891 
L 169.963138 35.638716 
L 170.386306 35.023638 
L 170.809474 34.802209 
L 171.021058 38.592695 
L 171.232642 37.02668 
L 171.444226 37.047377 
L 171.655811 36.099489 
L 171.867395 36.491063 
L 172.290563 35.330483 
L 172.713731 34.912674 
L 172.925315 34.818667 
L 173.136899 35.72257 
L 173.560067 35.053825 
L 173.983235 34.813077 
L 174.406403 34.726408 
L 174.617987 35.667214 
L 175.041155 35.033897 
L 175.464323 34.805903 
L 175.675907 35.714911 
L 176.099075 35.051068 
L 176.522243 34.812084 
L 177.368579 34.695078 
L 177.580164 34.688109 
L 177.791748 50.044235 
L 178.003332 43.897603 
L 178.638084 37.014875 
L 179.061252 35.519055 
L 179.272836 36.142803 
L 179.696004 35.205109 
L 180.119172 34.867539 
L 180.330756 34.791586 
L 180.54234 35.706321 
L 180.753924 35.294855 
L 180.965508 36.008283 
L 181.388676 35.156682 
L 181.60026 35.925379 
L 182.023428 35.126836 
L 182.446596 34.839361 
L 183.081348 34.712584 
L 183.504517 34.69023 
L 183.716101 36.604893 
L 183.927685 35.833998 
L 184.139269 36.331769 
L 184.562437 35.273137 
L 184.985605 34.892029 
L 185.620357 34.723961 
L 187.313029 34.678434 
L 188.582533 34.677692 
L 188.794117 36.597371 
L 189.217286 35.368753 
L 189.640454 34.926451 
L 189.852038 34.826933 
L 190.063622 35.727529 
L 190.48679 35.05561 
L 190.909958 34.81372 
L 191.121542 35.719601 
L 191.54471 35.052756 
L 191.967878 34.812692 
L 192.391046 34.726269 
L 192.60263 35.667131 
L 193.025798 35.033867 
L 193.448966 34.805892 
L 193.872134 34.723821 
L 194.083718 35.665662 
L 194.506886 35.033338 
L 194.930055 34.805702 
L 195.776391 34.694251 
L 199.796487 34.677657 
L 200.431239 34.677656 
L 200.642823 37.557656 
L 201.065992 35.714456 
L 201.48916 35.050904 
L 201.912328 34.812025 
L 202.758664 34.69507 
L 203.816584 34.67901 
L 204.028168 35.638776 
L 204.451336 35.023659 
L 204.66292 34.885258 
L 204.874504 38.642524 
L 205.297672 36.105009 
L 205.72084 35.191503 
L 206.144008 34.862641 
L 206.778761 34.717613 
L 208.048265 34.67952 
L 208.259849 35.639082 
L 208.683017 35.023769 
L 209.106185 34.802257 
L 209.740937 34.70457 
L 209.952521 35.654111 
L 210.375689 35.02918 
L 210.587273 34.88857 
L 210.798857 35.764512 
L 211.222025 35.068924 
L 211.645193 34.818513 
L 212.49153 34.695911 
L 213.972618 34.678167 
L 214.184202 35.63827 
L 214.60737 35.023477 
L 215.030538 34.802152 
L 215.453706 34.722474 
L 215.876874 37.765299 
L 216.300042 35.789208 
L 216.72321 35.077815 
L 217.146378 34.821713 
L 217.992714 34.696326 
L 219.685387 34.67797 
L 219.896971 35.638151 
L 220.320139 35.023434 
L 220.743307 34.802136 
L 221.166475 34.722469 
L 221.378059 35.664851 
L 221.801227 35.033046 
L 222.224395 34.805596 
L 222.859147 34.705291 
L 223.070731 35.654544 
L 223.493899 35.029336 
L 223.917067 34.804261 
L 224.55182 34.705003 
L 224.763404 35.654371 
L 224.974988 35.263685 
L 225.186572 38.869581 
L 225.60974 36.186749 
L 225.821324 36.543419 
L 226.244492 35.349331 
L 226.66766 34.919459 
L 227.302412 34.729885 
L 228.7835 34.679118 
L 230.687757 34.677671 
L 230.899341 35.637972 
L 231.322509 35.02337 
L 231.534093 35.845391 
L 231.745677 35.378297 
L 231.957261 38.938348 
L 232.380429 36.211505 
L 232.803597 35.229842 
L 233.015181 35.969275 
L 233.438349 35.142639 
L 233.861517 34.84505 
L 234.496269 34.713813 
L 236.400526 34.67802 
L 236.61211 35.638182 
L 237.035278 35.023445 
L 237.458446 34.80214 
L 238.304782 34.693789 
L 238.516366 34.687336 
L 238.72795 42.363157 
L 239.151118 37.444436 
L 239.574286 35.673697 
L 239.997454 35.036231 
L 240.420622 34.806743 
L 241.266958 34.694386 
L 243.382799 34.677757 
L 243.594383 35.638024 
L 244.017551 35.023388 
L 244.440719 34.80212 
L 245.287055 34.693787 
L 245.498639 38.527642 
L 245.498639 38.527642 
" clip-path="url(#pbe3ffe3313)" style="fill: none; stroke: #ffa500; stroke-width: 1.5; stroke-linecap: round"/>
   </g>
   <g id="patch_3">
    <path d="M 32.444094 246.357656 
L 32.444094 24.597656 
" style="fill: none; stroke: #262626; stroke-width: 1.25; stroke-linejoin: miter; stroke-linecap: square"/>
   </g>
   <g id="patch_4">
    <path d="M 255.644094 246.357656 
L 255.644094 24.597656 
" style="fill: none; stroke: #262626; stroke-width: 1.25; stroke-linejoin: miter; stroke-linecap: square"/>
   </g>
   <g id="patch_5">
    <path d="M 32.444094 246.357656 
L 255.644094 246.357656 
" style="fill: none; stroke: #262626; stroke-width: 1.25; stroke-linejoin: miter; stroke-linecap: square"/>
   </g>
   <g id="patch_6">
    <path d="M 32.444094 24.597656 
L 255.644094 24.597656 
" style="fill: none; stroke: #262626; stroke-width: 1.25; stroke-linejoin: miter; stroke-linecap: square"/>
   </g>
   <g id="text_13">
    <!-- Top-1 Accuracy -->
    <g style="fill: #262626" transform="translate(87.284328 18.597656)scale(0.15 -0.15)">
     <defs>
      <path id="DejaVuSans-54" d="M -19 4666 
L 3928 4666 
L 3928 4134 
L 2272 4134 
L 2272 0 
L 1638 0 
L 1638 4134 
L -19 4134 
L -19 4666 
z
" transform="scale(0.015625)"/>
      <path id="DejaVuSans-6f" d="M 1959 3097 
Q 1497 3097 1228 2736 
Q 959 2375 959 1747 
Q 959 1119 1226 758 
Q 1494 397 1959 397 
Q 2419 397 2687 759 
Q 2956 1122 2956 1747 
Q 2956 2369 2687 2733 
Q 2419 3097 1959 3097 
z
M 1959 3584 
Q 2709 3584 3137 3096 
Q 3566 2609 3566 1747 
Q 3566 888 3137 398 
Q 2709 -91 1959 -91 
Q 1206 -91 779 398 
Q 353 888 353 1747 
Q 353 2609 779 3096 
Q 1206 3584 1959 3584 
z
" transform="scale(0.015625)"/>
      <path id="DejaVuSans-70" d="M 1159 525 
L 1159 -1331 
L 581 -1331 
L 581 3500 
L 1159 3500 
L 1159 2969 
Q 1341 3281 1617 3432 
Q 1894 3584 2278 3584 
Q 2916 3584 3314 3078 
Q 3713 2572 3713 1747 
Q 3713 922 3314 415 
Q 2916 -91 2278 -91 
Q 1894 -91 1617 61 
Q 1341 213 1159 525 
z
M 3116 1747 
Q 3116 2381 2855 2742 
Q 2594 3103 2138 3103 
Q 1681 3103 1420 2742 
Q 1159 2381 1159 1747 
Q 1159 1113 1420 752 
Q 1681 391 2138 391 
Q 2594 391 2855 752 
Q 3116 1113 3116 1747 
z
" transform="scale(0.015625)"/>
      <path id="DejaVuSans-2d" d="M 313 2009 
L 1997 2009 
L 1997 1497 
L 313 1497 
L 313 2009 
z
" transform="scale(0.015625)"/>
      <path id="DejaVuSans-20" transform="scale(0.015625)"/>
      <path id="DejaVuSans-41" d="M 2188 4044 
L 1331 1722 
L 3047 1722 
L 2188 4044 
z
M 1831 4666 
L 2547 4666 
L 4325 0 
L 3669 0 
L 3244 1197 
L 1141 1197 
L 716 0 
L 50 0 
L 1831 4666 
z
" transform="scale(0.015625)"/>
      <path id="DejaVuSans-63" d="M 3122 3366 
L 3122 2828 
Q 2878 2963 2633 3030 
Q 2388 3097 2138 3097 
Q 1578 3097 1268 2742 
Q 959 2388 959 1747 
Q 959 1106 1268 751 
Q 1578 397 2138 397 
Q 2388 397 2633 464 
Q 2878 531 3122 666 
L 3122 134 
Q 2881 22 2623 -34 
Q 2366 -91 2075 -91 
Q 1284 -91 818 406 
Q 353 903 353 1747 
Q 353 2603 823 3093 
Q 1294 3584 2113 3584 
Q 2378 3584 2631 3529 
Q 2884 3475 3122 3366 
z
" transform="scale(0.015625)"/>
      <path id="DejaVuSans-75" d="M 544 1381 
L 544 3500 
L 1119 3500 
L 1119 1403 
Q 1119 906 1312 657 
Q 1506 409 1894 409 
Q 2359 409 2629 706 
Q 2900 1003 2900 1516 
L 2900 3500 
L 3475 3500 
L 3475 0 
L 2900 0 
L 2900 538 
Q 2691 219 2414 64 
Q 2138 -91 1772 -91 
Q 1169 -91 856 284 
Q 544 659 544 1381 
z
M 1991 3584 
L 1991 3584 
z
" transform="scale(0.015625)"/>
      <path id="DejaVuSans-72" d="M 2631 2963 
Q 2534 3019 2420 3045 
Q 2306 3072 2169 3072 
Q 1681 3072 1420 2755 
Q 1159 2438 1159 1844 
L 1159 0 
L 581 0 
L 581 3500 
L 1159 3500 
L 1159 2956 
Q 1341 3275 1631 3429 
Q 1922 3584 2338 3584 
Q 2397 3584 2469 3576 
Q 2541 3569 2628 3553 
L 2631 2963 
z
" transform="scale(0.015625)"/>
      <path id="DejaVuSans-61" d="M 2194 1759 
Q 1497 1759 1228 1600 
Q 959 1441 959 1056 
Q 959 750 1161 570 
Q 1363 391 1709 391 
Q 2188 391 2477 730 
Q 2766 1069 2766 1631 
L 2766 1759 
L 2194 1759 
z
M 3341 1997 
L 3341 0 
L 2766 0 
L 2766 531 
Q 2569 213 2275 61 
Q 1981 -91 1556 -91 
Q 1019 -91 701 211 
Q 384 513 384 1019 
Q 384 1609 779 1909 
Q 1175 2209 1959 2209 
L 2766 2209 
L 2766 2266 
Q 2766 2663 2505 2880 
Q 2244 3097 1772 3097 
Q 1472 3097 1187 3025 
Q 903 2953 641 2809 
L 641 3341 
Q 956 3463 1253 3523 
Q 1550 3584 1831 3584 
Q 2591 3584 2966 3190 
Q 3341 2797 3341 1997 
z
" transform="scale(0.015625)"/>
      <path id="DejaVuSans-79" d="M 2059 -325 
Q 1816 -950 1584 -1140 
Q 1353 -1331 966 -1331 
L 506 -1331 
L 506 -850 
L 844 -850 
Q 1081 -850 1212 -737 
Q 1344 -625 1503 -206 
L 1606 56 
L 191 3500 
L 800 3500 
L 1894 763 
L 2988 3500 
L 3597 3500 
L 2059 -325 
z
" transform="scale(0.015625)"/>
     </defs>
     <use xlink:href="#DejaVuSans-54"/>
     <use xlink:href="#DejaVuSans-6f" x="44.083984"/>
     <use xlink:href="#DejaVuSans-70" x="105.265625"/>
     <use xlink:href="#DejaVuSans-2d" x="168.742188"/>
     <use xlink:href="#DejaVuSans-31" x="204.826172"/>
     <use xlink:href="#DejaVuSans-20" x="268.449219"/>
     <use xlink:href="#DejaVuSans-41" x="300.236328"/>
     <use xlink:href="#DejaVuSans-63" x="366.894531"/>
     <use xlink:href="#DejaVuSans-63" x="421.875"/>
     <use xlink:href="#DejaVuSans-75" x="476.855469"/>
     <use xlink:href="#DejaVuSans-72" x="540.234375"/>
     <use xlink:href="#DejaVuSans-61" x="581.347656"/>
     <use xlink:href="#DejaVuSans-63" x="642.626953"/>
     <use xlink:href="#DejaVuSans-79" x="697.607422"/>
    </g>
   </g>
   <g id="legend_1">
    <g id="patch_7">
     <path d="M 158.778781 241.407656 
L 248.714094 241.407656 
Q 250.694094 241.407656 250.694094 239.427656 
L 250.694094 182.292281 
Q 250.694094 180.312281 248.714094 180.312281 
L 158.778781 180.312281 
Q 156.798781 180.312281 156.798781 182.292281 
L 156.798781 239.427656 
Q 156.798781 241.407656 158.778781 241.407656 
z
" style="fill: #ffffff; opacity: 0.8; stroke: #cccccc; stroke-linejoin: miter"/>
    </g>
    <g id="line2d_5">
     <path d="M 160.758781 188.329734 
L 170.658781 188.329734 
L 180.558781 188.329734 
" style="fill: none; stroke: #e8000b; stroke-width: 1.5; stroke-linecap: round"/>
    </g>
    <g id="text_14">
     <!-- ensemble-1 -->
     <g style="fill: #262626" transform="translate(188.478781 191.794734)scale(0.099 -0.099)">
      <defs>
       <path id="DejaVuSans-65" d="M 3597 1894 
L 3597 1613 
L 953 1613 
Q 991 1019 1311 708 
Q 1631 397 2203 397 
Q 2534 397 2845 478 
Q 3156 559 3463 722 
L 3463 178 
Q 3153 47 2828 -22 
Q 2503 -91 2169 -91 
Q 1331 -91 842 396 
Q 353 884 353 1716 
Q 353 2575 817 3079 
Q 1281 3584 2069 3584 
Q 2775 3584 3186 3129 
Q 3597 2675 3597 1894 
z
M 3022 2063 
Q 3016 2534 2758 2815 
Q 2500 3097 2075 3097 
Q 1594 3097 1305 2825 
Q 1016 2553 972 2059 
L 3022 2063 
z
" transform="scale(0.015625)"/>
       <path id="DejaVuSans-6e" d="M 3513 2113 
L 3513 0 
L 2938 0 
L 2938 2094 
Q 2938 2591 2744 2837 
Q 2550 3084 2163 3084 
Q 1697 3084 1428 2787 
Q 1159 2491 1159 1978 
L 1159 0 
L 581 0 
L 581 3500 
L 1159 3500 
L 1159 2956 
Q 1366 3272 1645 3428 
Q 1925 3584 2291 3584 
Q 2894 3584 3203 3211 
Q 3513 2838 3513 2113 
z
" transform="scale(0.015625)"/>
       <path id="DejaVuSans-73" d="M 2834 3397 
L 2834 2853 
Q 2591 2978 2328 3040 
Q 2066 3103 1784 3103 
Q 1356 3103 1142 2972 
Q 928 2841 928 2578 
Q 928 2378 1081 2264 
Q 1234 2150 1697 2047 
L 1894 2003 
Q 2506 1872 2764 1633 
Q 3022 1394 3022 966 
Q 3022 478 2636 193 
Q 2250 -91 1575 -91 
Q 1294 -91 989 -36 
Q 684 19 347 128 
L 347 722 
Q 666 556 975 473 
Q 1284 391 1588 391 
Q 1994 391 2212 530 
Q 2431 669 2431 922 
Q 2431 1156 2273 1281 
Q 2116 1406 1581 1522 
L 1381 1569 
Q 847 1681 609 1914 
Q 372 2147 372 2553 
Q 372 3047 722 3315 
Q 1072 3584 1716 3584 
Q 2034 3584 2315 3537 
Q 2597 3491 2834 3397 
z
" transform="scale(0.015625)"/>
       <path id="DejaVuSans-6d" d="M 3328 2828 
Q 3544 3216 3844 3400 
Q 4144 3584 4550 3584 
Q 5097 3584 5394 3201 
Q 5691 2819 5691 2113 
L 5691 0 
L 5113 0 
L 5113 2094 
Q 5113 2597 4934 2840 
Q 4756 3084 4391 3084 
Q 3944 3084 3684 2787 
Q 3425 2491 3425 1978 
L 3425 0 
L 2847 0 
L 2847 2094 
Q 2847 2600 2669 2842 
Q 2491 3084 2119 3084 
Q 1678 3084 1418 2786 
Q 1159 2488 1159 1978 
L 1159 0 
L 581 0 
L 581 3500 
L 1159 3500 
L 1159 2956 
Q 1356 3278 1631 3431 
Q 1906 3584 2284 3584 
Q 2666 3584 2933 3390 
Q 3200 3197 3328 2828 
z
" transform="scale(0.015625)"/>
       <path id="DejaVuSans-62" d="M 3116 1747 
Q 3116 2381 2855 2742 
Q 2594 3103 2138 3103 
Q 1681 3103 1420 2742 
Q 1159 2381 1159 1747 
Q 1159 1113 1420 752 
Q 1681 391 2138 391 
Q 2594 391 2855 752 
Q 3116 1113 3116 1747 
z
M 1159 2969 
Q 1341 3281 1617 3432 
Q 1894 3584 2278 3584 
Q 2916 3584 3314 3078 
Q 3713 2572 3713 1747 
Q 3713 922 3314 415 
Q 2916 -91 2278 -91 
Q 1894 -91 1617 61 
Q 1341 213 1159 525 
L 1159 0 
L 581 0 
L 581 4863 
L 1159 4863 
L 1159 2969 
z
" transform="scale(0.015625)"/>
       <path id="DejaVuSans-6c" d="M 603 4863 
L 1178 4863 
L 1178 0 
L 603 0 
L 603 4863 
z
" transform="scale(0.015625)"/>
      </defs>
      <use xlink:href="#DejaVuSans-65"/>
      <use xlink:href="#DejaVuSans-6e" x="61.523438"/>
      <use xlink:href="#DejaVuSans-73" x="124.902344"/>
      <use xlink:href="#DejaVuSans-65" x="177.001953"/>
      <use xlink:href="#DejaVuSans-6d" x="238.525391"/>
      <use xlink:href="#DejaVuSans-62" x="335.9375"/>
      <use xlink:href="#DejaVuSans-6c" x="399.414062"/>
      <use xlink:href="#DejaVuSans-65" x="427.197266"/>
      <use xlink:href="#DejaVuSans-2d" x="488.720703"/>
      <use xlink:href="#DejaVuSans-31" x="524.804688"/>
     </g>
    </g>
    <g id="line2d_6">
     <path d="M 160.758781 202.861078 
L 170.658781 202.861078 
L 180.558781 202.861078 
" style="fill: none; stroke: #023eff; stroke-width: 1.5; stroke-linecap: round"/>
    </g>
    <g id="text_15">
     <!-- ensemble-2 -->
     <g style="fill: #262626" transform="translate(188.478781 206.326078)scale(0.099 -0.099)">
      <use xlink:href="#DejaVuSans-65"/>
      <use xlink:href="#DejaVuSans-6e" x="61.523438"/>
      <use xlink:href="#DejaVuSans-73" x="124.902344"/>
      <use xlink:href="#DejaVuSans-65" x="177.001953"/>
      <use xlink:href="#DejaVuSans-6d" x="238.525391"/>
      <use xlink:href="#DejaVuSans-62" x="335.9375"/>
      <use xlink:href="#DejaVuSans-6c" x="399.414062"/>
      <use xlink:href="#DejaVuSans-65" x="427.197266"/>
      <use xlink:href="#DejaVuSans-2d" x="488.720703"/>
      <use xlink:href="#DejaVuSans-32" x="524.804688"/>
     </g>
    </g>
    <g id="line2d_7">
     <path d="M 160.758781 217.392422 
L 170.658781 217.392422 
L 180.558781 217.392422 
" style="fill: none; stroke: #1ac938; stroke-width: 1.5; stroke-linecap: round"/>
    </g>
    <g id="text_16">
     <!-- ensemble-3 -->
     <g style="fill: #262626" transform="translate(188.478781 220.857422)scale(0.099 -0.099)">
      <use xlink:href="#DejaVuSans-65"/>
      <use xlink:href="#DejaVuSans-6e" x="61.523438"/>
      <use xlink:href="#DejaVuSans-73" x="124.902344"/>
      <use xlink:href="#DejaVuSans-65" x="177.001953"/>
      <use xlink:href="#DejaVuSans-6d" x="238.525391"/>
      <use xlink:href="#DejaVuSans-62" x="335.9375"/>
      <use xlink:href="#DejaVuSans-6c" x="399.414062"/>
      <use xlink:href="#DejaVuSans-65" x="427.197266"/>
      <use xlink:href="#DejaVuSans-2d" x="488.720703"/>
      <use xlink:href="#DejaVuSans-33" x="524.804688"/>
     </g>
    </g>
    <g id="line2d_8">
     <path d="M 160.758781 231.923766 
L 170.658781 231.923766 
L 180.558781 231.923766 
" style="fill: none; stroke: #ffa500; stroke-width: 1.5; stroke-linecap: round"/>
    </g>
    <g id="text_17">
     <!-- ensemble-4 -->
     <g style="fill: #262626" transform="translate(188.478781 235.388766)scale(0.099 -0.099)">
      <use xlink:href="#DejaVuSans-65"/>
      <use xlink:href="#DejaVuSans-6e" x="61.523438"/>
      <use xlink:href="#DejaVuSans-73" x="124.902344"/>
      <use xlink:href="#DejaVuSans-65" x="177.001953"/>
      <use xlink:href="#DejaVuSans-6d" x="238.525391"/>
      <use xlink:href="#DejaVuSans-62" x="335.9375"/>
      <use xlink:href="#DejaVuSans-6c" x="399.414062"/>
      <use xlink:href="#DejaVuSans-65" x="427.197266"/>
      <use xlink:href="#DejaVuSans-2d" x="488.720703"/>
      <use xlink:href="#DejaVuSans-34" x="524.804688"/>
     </g>
    </g>
   </g>
  </g>
 </g>
 <defs>
  <clipPath id="pbe3ffe3313">
   <rect x="32.444094" y="24.597656" width="223.2" height="221.76"/>
  </clipPath>
 </defs>
</svg>
