<?xml version="1.0" encoding="utf-8" standalone="no"?>
<!DOCTYPE svg PUBLIC "-//W3C//DTD SVG 1.1//EN"
  "http://www.w3.org/Graphics/SVG/1.1/DTD/svg11.dtd">
<svg xmlns:xlink="http://www.w3.org/1999/xlink" width="541.844094pt" height="214.253719pt" viewBox="0 0 541.844094 214.253719" xmlns="http://www.w3.org/2000/svg" version="1.1">
 <metadata>
  <rdf:RDF xmlns:dc="http://purl.org/dc/elements/1.1/" xmlns:cc="http://creativecommons.org/ns#" xmlns:rdf="http://www.w3.org/1999/02/22-rdf-syntax-ns#">
   <cc:Work>
    <dc:type rdf:resource="http://purl.org/dc/dcmitype/StillImage"/>
    <dc:date>2023-09-16T17:53:42.482042</dc:date>
    <dc:format>image/svg+xml</dc:format>
    <dc:creator>
     <cc:Agent>
      <dc:title>Matplotlib v3.5.3, https://matplotlib.org/</dc:title>
     </cc:Agent>
    </dc:creator>
   </cc:Work>
  </rdf:RDF>
 </metadata>
 <defs>
  <style type="text/css">*{stroke-linejoin: round; stroke-linecap: butt}</style>
 </defs>
 <g id="figure_1">
  <g id="patch_1">
   <path d="M 0 214.253719 
L 541.844094 214.253719 
L 541.844094 -0 
L 0 -0 
z
" style="fill: #ffffff"/>
  </g>
  <g id="axes_1">
   <g id="patch_2">
    <path d="M 32.444094 173.52 
L 534.644094 173.52 
L 534.644094 7.2 
L 32.444094 7.2 
z
" style="fill: #ffffff"/>
   </g>
   <g id="matplotlib.axis_1">
    <g id="xtick_1">
     <g id="text_1">
      <!-- 0 -->
      <g style="fill: #262626" transform="translate(52.121929 190.542453)scale(0.099 -0.099)">
       <defs>
        <path id="DejaVuSans-30" d="M 2034 4250 
Q 1547 4250 1301 3770 
Q 1056 3291 1056 2328 
Q 1056 1369 1301 889 
Q 1547 409 2034 409 
Q 2525 409 2770 889 
Q 3016 1369 3016 2328 
Q 3016 3291 2770 3770 
Q 2525 4250 2034 4250 
z
M 2034 4750 
Q 2819 4750 3233 4129 
Q 3647 3509 3647 2328 
Q 3647 1150 3233 529 
Q 2819 -91 2034 -91 
Q 1250 -91 836 529 
Q 422 1150 422 2328 
Q 422 3509 836 4129 
Q 1250 4750 2034 4750 
z
" transform="scale(0.015625)"/>
       </defs>
       <use xlink:href="#DejaVuSans-30"/>
      </g>
     </g>
    </g>
    <g id="xtick_2">
     <g id="text_2">
      <!-- 100 -->
      <g style="fill: #262626" transform="translate(145.072066 190.542453)scale(0.099 -0.099)">
       <defs>
        <path id="DejaVuSans-31" d="M 794 531 
L 1825 531 
L 1825 4091 
L 703 3866 
L 703 4441 
L 1819 4666 
L 2450 4666 
L 2450 531 
L 3481 531 
L 3481 0 
L 794 0 
L 794 531 
z
" transform="scale(0.015625)"/>
       </defs>
       <use xlink:href="#DejaVuSans-31"/>
       <use xlink:href="#DejaVuSans-30" x="63.623047"/>
       <use xlink:href="#DejaVuSans-30" x="127.246094"/>
      </g>
     </g>
    </g>
    <g id="xtick_3">
     <g id="text_3">
      <!-- 200 -->
      <g style="fill: #262626" transform="translate(244.321078 190.542453)scale(0.099 -0.099)">
       <defs>
        <path id="DejaVuSans-32" d="M 1228 531 
L 3431 531 
L 3431 0 
L 469 0 
L 469 531 
Q 828 903 1448 1529 
Q 2069 2156 2228 2338 
Q 2531 2678 2651 2914 
Q 2772 3150 2772 3378 
Q 2772 3750 2511 3984 
Q 2250 4219 1831 4219 
Q 1534 4219 1204 4116 
Q 875 4013 500 3803 
L 500 4441 
Q 881 4594 1212 4672 
Q 1544 4750 1819 4750 
Q 2544 4750 2975 4387 
Q 3406 4025 3406 3419 
Q 3406 3131 3298 2873 
Q 3191 2616 2906 2266 
Q 2828 2175 2409 1742 
Q 1991 1309 1228 531 
z
" transform="scale(0.015625)"/>
       </defs>
       <use xlink:href="#DejaVuSans-32"/>
       <use xlink:href="#DejaVuSans-30" x="63.623047"/>
       <use xlink:href="#DejaVuSans-30" x="127.246094"/>
      </g>
     </g>
    </g>
    <g id="xtick_4">
     <g id="text_4">
      <!-- 300 -->
      <g style="fill: #262626" transform="translate(343.57009 190.542453)scale(0.099 -0.099)">
       <defs>
        <path id="DejaVuSans-33" d="M 2597 2516 
Q 3050 2419 3304 2112 
Q 3559 1806 3559 1356 
Q 3559 666 3084 287 
Q 2609 -91 1734 -91 
Q 1441 -91 1130 -33 
Q 819 25 488 141 
L 488 750 
Q 750 597 1062 519 
Q 1375 441 1716 441 
Q 2309 441 2620 675 
Q 2931 909 2931 1356 
Q 2931 1769 2642 2001 
Q 2353 2234 1838 2234 
L 1294 2234 
L 1294 2753 
L 1863 2753 
Q 2328 2753 2575 2939 
Q 2822 3125 2822 3475 
Q 2822 3834 2567 4026 
Q 2313 4219 1838 4219 
Q 1578 4219 1281 4162 
Q 984 4106 628 3988 
L 628 4550 
Q 988 4650 1302 4700 
Q 1616 4750 1894 4750 
Q 2613 4750 3031 4423 
Q 3450 4097 3450 3541 
Q 3450 3153 3228 2886 
Q 3006 2619 2597 2516 
z
" transform="scale(0.015625)"/>
       </defs>
       <use xlink:href="#DejaVuSans-33"/>
       <use xlink:href="#DejaVuSans-30" x="63.623047"/>
       <use xlink:href="#DejaVuSans-30" x="127.246094"/>
      </g>
     </g>
    </g>
    <g id="xtick_5">
     <g id="text_5">
      <!-- 400 -->
      <g style="fill: #262626" transform="translate(442.819101 190.542453)scale(0.099 -0.099)">
       <defs>
        <path id="DejaVuSans-34" d="M 2419 4116 
L 825 1625 
L 2419 1625 
L 2419 4116 
z
M 2253 4666 
L 3047 4666 
L 3047 1625 
L 3713 1625 
L 3713 1100 
L 3047 1100 
L 3047 0 
L 2419 0 
L 2419 1100 
L 313 1100 
L 313 1709 
L 2253 4666 
z
" transform="scale(0.015625)"/>
       </defs>
       <use xlink:href="#DejaVuSans-34"/>
       <use xlink:href="#DejaVuSans-30" x="63.623047"/>
       <use xlink:href="#DejaVuSans-30" x="127.246094"/>
      </g>
     </g>
    </g>
    <g id="text_6">
     <!-- frames -->
     <g style="fill: #262626" transform="translate(264.718344 204.807656)scale(0.108 -0.108)">
      <defs>
       <path id="DejaVuSans-66" d="M 2375 4863 
L 2375 4384 
L 1825 4384 
Q 1516 4384 1395 4259 
Q 1275 4134 1275 3809 
L 1275 3500 
L 2222 3500 
L 2222 3053 
L 1275 3053 
L 1275 0 
L 697 0 
L 697 3053 
L 147 3053 
L 147 3500 
L 697 3500 
L 697 3744 
Q 697 4328 969 4595 
Q 1241 4863 1831 4863 
L 2375 4863 
z
" transform="scale(0.015625)"/>
       <path id="DejaVuSans-72" d="M 2631 2963 
Q 2534 3019 2420 3045 
Q 2306 3072 2169 3072 
Q 1681 3072 1420 2755 
Q 1159 2438 1159 1844 
L 1159 0 
L 581 0 
L 581 3500 
L 1159 3500 
L 1159 2956 
Q 1341 3275 1631 3429 
Q 1922 3584 2338 3584 
Q 2397 3584 2469 3576 
Q 2541 3569 2628 3553 
L 2631 2963 
z
" transform="scale(0.015625)"/>
       <path id="DejaVuSans-61" d="M 2194 1759 
Q 1497 1759 1228 1600 
Q 959 1441 959 1056 
Q 959 750 1161 570 
Q 1363 391 1709 391 
Q 2188 391 2477 730 
Q 2766 1069 2766 1631 
L 2766 1759 
L 2194 1759 
z
M 3341 1997 
L 3341 0 
L 2766 0 
L 2766 531 
Q 2569 213 2275 61 
Q 1981 -91 1556 -91 
Q 1019 -91 701 211 
Q 384 513 384 1019 
Q 384 1609 779 1909 
Q 1175 2209 1959 2209 
L 2766 2209 
L 2766 2266 
Q 2766 2663 2505 2880 
Q 2244 3097 1772 3097 
Q 1472 3097 1187 3025 
Q 903 2953 641 2809 
L 641 3341 
Q 956 3463 1253 3523 
Q 1550 3584 1831 3584 
Q 2591 3584 2966 3190 
Q 3341 2797 3341 1997 
z
" transform="scale(0.015625)"/>
       <path id="DejaVuSans-6d" d="M 3328 2828 
Q 3544 3216 3844 3400 
Q 4144 3584 4550 3584 
Q 5097 3584 5394 3201 
Q 5691 2819 5691 2113 
L 5691 0 
L 5113 0 
L 5113 2094 
Q 5113 2597 4934 2840 
Q 4756 3084 4391 3084 
Q 3944 3084 3684 2787 
Q 3425 2491 3425 1978 
L 3425 0 
L 2847 0 
L 2847 2094 
Q 2847 2600 2669 2842 
Q 2491 3084 2119 3084 
Q 1678 3084 1418 2786 
Q 1159 2488 1159 1978 
L 1159 0 
L 581 0 
L 581 3500 
L 1159 3500 
L 1159 2956 
Q 1356 3278 1631 3431 
Q 1906 3584 2284 3584 
Q 2666 3584 2933 3390 
Q 3200 3197 3328 2828 
z
" transform="scale(0.015625)"/>
       <path id="DejaVuSans-65" d="M 3597 1894 
L 3597 1613 
L 953 1613 
Q 991 1019 1311 708 
Q 1631 397 2203 397 
Q 2534 397 2845 478 
Q 3156 559 3463 722 
L 3463 178 
Q 3153 47 2828 -22 
Q 2503 -91 2169 -91 
Q 1331 -91 842 396 
Q 353 884 353 1716 
Q 353 2575 817 3079 
Q 1281 3584 2069 3584 
Q 2775 3584 3186 3129 
Q 3597 2675 3597 1894 
z
M 3022 2063 
Q 3016 2534 2758 2815 
Q 2500 3097 2075 3097 
Q 1594 3097 1305 2825 
Q 1016 2553 972 2059 
L 3022 2063 
z
" transform="scale(0.015625)"/>
       <path id="DejaVuSans-73" d="M 2834 3397 
L 2834 2853 
Q 2591 2978 2328 3040 
Q 2066 3103 1784 3103 
Q 1356 3103 1142 2972 
Q 928 2841 928 2578 
Q 928 2378 1081 2264 
Q 1234 2150 1697 2047 
L 1894 2003 
Q 2506 1872 2764 1633 
Q 3022 1394 3022 966 
Q 3022 478 2636 193 
Q 2250 -91 1575 -91 
Q 1294 -91 989 -36 
Q 684 19 347 128 
L 347 722 
Q 666 556 975 473 
Q 1284 391 1588 391 
Q 1994 391 2212 530 
Q 2431 669 2431 922 
Q 2431 1156 2273 1281 
Q 2116 1406 1581 1522 
L 1381 1569 
Q 847 1681 609 1914 
Q 372 2147 372 2553 
Q 372 3047 722 3315 
Q 1072 3584 1716 3584 
Q 2034 3584 2315 3537 
Q 2597 3491 2834 3397 
z
" transform="scale(0.015625)"/>
      </defs>
      <use xlink:href="#DejaVuSans-66"/>
      <use xlink:href="#DejaVuSans-72" x="35.205078"/>
      <use xlink:href="#DejaVuSans-61" x="76.318359"/>
      <use xlink:href="#DejaVuSans-6d" x="137.597656"/>
      <use xlink:href="#DejaVuSans-65" x="235.009766"/>
      <use xlink:href="#DejaVuSans-73" x="296.533203"/>
     </g>
    </g>
   </g>
   <g id="matplotlib.axis_2">
    <g id="ytick_1">
     <g id="text_7">
      <!-- 0.0 -->
      <g style="fill: #262626" transform="translate(7.2 169.727187)scale(0.099 -0.099)">
       <defs>
        <path id="DejaVuSans-2e" d="M 684 794 
L 1344 794 
L 1344 0 
L 684 0 
L 684 794 
z
" transform="scale(0.015625)"/>
       </defs>
       <use xlink:href="#DejaVuSans-30"/>
       <use xlink:href="#DejaVuSans-2e" x="63.623047"/>
       <use xlink:href="#DejaVuSans-30" x="95.410156"/>
      </g>
     </g>
    </g>
    <g id="ytick_2">
     <g id="text_8">
      <!-- 0.2 -->
      <g style="fill: #262626" transform="translate(7.2 129.644343)scale(0.099 -0.099)">
       <use xlink:href="#DejaVuSans-30"/>
       <use xlink:href="#DejaVuSans-2e" x="63.623047"/>
       <use xlink:href="#DejaVuSans-32" x="95.410156"/>
      </g>
     </g>
    </g>
    <g id="ytick_3">
     <g id="text_9">
      <!-- 0.4 -->
      <g style="fill: #262626" transform="translate(7.2 89.561499)scale(0.099 -0.099)">
       <use xlink:href="#DejaVuSans-30"/>
       <use xlink:href="#DejaVuSans-2e" x="63.623047"/>
       <use xlink:href="#DejaVuSans-34" x="95.410156"/>
      </g>
     </g>
    </g>
    <g id="ytick_4">
     <g id="text_10">
      <!-- 0.6 -->
      <g style="fill: #262626" transform="translate(7.2 49.478654)scale(0.099 -0.099)">
       <defs>
        <path id="DejaVuSans-36" d="M 2113 2584 
Q 1688 2584 1439 2293 
Q 1191 2003 1191 1497 
Q 1191 994 1439 701 
Q 1688 409 2113 409 
Q 2538 409 2786 701 
Q 3034 994 3034 1497 
Q 3034 2003 2786 2293 
Q 2538 2584 2113 2584 
z
M 3366 4563 
L 3366 3988 
Q 3128 4100 2886 4159 
Q 2644 4219 2406 4219 
Q 1781 4219 1451 3797 
Q 1122 3375 1075 2522 
Q 1259 2794 1537 2939 
Q 1816 3084 2150 3084 
Q 2853 3084 3261 2657 
Q 3669 2231 3669 1497 
Q 3669 778 3244 343 
Q 2819 -91 2113 -91 
Q 1303 -91 875 529 
Q 447 1150 447 2328 
Q 447 3434 972 4092 
Q 1497 4750 2381 4750 
Q 2619 4750 2861 4703 
Q 3103 4656 3366 4563 
z
" transform="scale(0.015625)"/>
       </defs>
       <use xlink:href="#DejaVuSans-30"/>
       <use xlink:href="#DejaVuSans-2e" x="63.623047"/>
       <use xlink:href="#DejaVuSans-36" x="95.410156"/>
      </g>
     </g>
    </g>
   </g>
   <g id="PolyCollection_1"/>
   <g id="patch_3">
    <path d="M 55.271366 173.52 
L 55.271366 7.2 
L 104.895872 7.2 
L 104.895872 173.52 
z
" clip-path="url(#pe799a90254)" style="fill: #1ac938; opacity: 0.2; stroke: #1ac938; stroke-linejoin: miter"/>
   </g>
   <g id="patch_4">
    <path d="M 124.745675 173.52 
L 124.745675 7.2 
L 204.144884 7.2 
L 204.144884 173.52 
z
" clip-path="url(#pe799a90254)" style="fill: #808080; opacity: 0.2; stroke: #808080; stroke-linejoin: miter"/>
   </g>
   <g id="patch_5">
    <path d="M 214.069785 173.52 
L 214.069785 7.2 
L 258.731841 7.2 
L 258.731841 173.52 
z
" clip-path="url(#pe799a90254)" style="fill: #1ac938; opacity: 0.2; stroke: #1ac938; stroke-linejoin: miter"/>
   </g>
   <g id="patch_6">
    <path d="M 258.731841 173.52 
L 258.731841 7.2 
L 288.506544 7.2 
L 288.506544 173.52 
z
" clip-path="url(#pe799a90254)" style="fill: #808080; opacity: 0.2; stroke: #808080; stroke-linejoin: miter"/>
   </g>
   <g id="patch_7">
    <path d="M 288.506544 173.52 
L 288.506544 7.2 
L 323.243698 7.2 
L 323.243698 173.52 
z
" clip-path="url(#pe799a90254)" style="fill: #1ac938; opacity: 0.2; stroke: #1ac938; stroke-linejoin: miter"/>
   </g>
   <g id="patch_8">
    <path d="M 338.13105 173.52 
L 338.13105 7.2 
L 417.53026 7.2 
L 417.53026 173.52 
z
" clip-path="url(#pe799a90254)" style="fill: #808080; opacity: 0.2; stroke: #808080; stroke-linejoin: miter"/>
   </g>
   <g id="patch_9">
    <path d="M 427.455161 173.52 
L 427.455161 7.2 
L 457.229865 7.2 
L 457.229865 173.52 
z
" clip-path="url(#pe799a90254)" style="fill: #1ac938; opacity: 0.2; stroke: #1ac938; stroke-linejoin: miter"/>
   </g>
   <g id="patch_10">
    <path d="M 457.229865 173.52 
L 457.229865 7.2 
L 482.042117 7.2 
L 482.042117 173.52 
z
" clip-path="url(#pe799a90254)" style="fill: #808080; opacity: 0.2; stroke: #808080; stroke-linejoin: miter"/>
   </g>
   <g id="patch_11">
    <path d="M 483.034608 173.52 
L 483.034608 7.2 
L 511.816821 7.2 
L 511.816821 173.52 
z
" clip-path="url(#pe799a90254)" style="fill: #1ac938; opacity: 0.2; stroke: #1ac938; stroke-linejoin: miter"/>
   </g>
   <g id="line2d_1">
    <path d="M 55.271366 165.749463 
L 98.940932 165.661847 
L 100.925912 165.644442 
L 115.813264 165.462939 
L 117.798244 165.154166 
L 118.790734 164.599418 
L 119.783224 162.73454 
L 120.775714 154.545362 
L 121.768204 137.743167 
L 122.760695 125.083576 
L 123.753185 114.836897 
L 124.745675 115.750682 
L 126.730655 149.861347 
L 127.723145 161.332191 
L 128.715635 163.808501 
L 129.708125 164.694446 
L 130.700615 165.111361 
L 133.678086 165.576141 
L 136.655556 165.811482 
L 139.633027 165.588737 
L 141.618007 165.554775 
L 144.595477 165.706536 
L 145.587967 165.644971 
L 147.572948 165.218958 
L 148.565438 165.243116 
L 150.550418 165.660877 
L 152.535398 165.724024 
L 155.512868 165.346027 
L 160.475319 165.706756 
L 163.452789 165.349449 
L 166.43026 165.789824 
L 168.41524 165.768139 
L 171.39271 165.449577 
L 175.362671 165.814134 
L 177.347651 165.688558 
L 179.332631 165.590779 
L 182.310102 165.849755 
L 185.287572 165.780075 
L 187.272552 165.787148 
L 190.250023 165.90779 
L 207.122355 165.853241 
L 209.107335 165.703135 
L 211.092315 165.412599 
L 213.077295 164.751773 
L 214.069785 163.790373 
L 215.062276 161.394837 
L 216.054766 153.858841 
L 217.047256 137.195823 
L 218.039746 128.376256 
L 219.032236 126.506131 
L 220.024726 141.483051 
L 221.017216 158.143357 
L 222.009706 162.863835 
L 223.002197 164.537676 
L 223.994687 165.19644 
L 224.987177 165.456266 
L 227.964647 165.646498 
L 231.934608 165.660422 
L 245.829469 165.652191 
L 261.709311 165.631145 
L 262.701801 165.31303 
L 263.694291 98.525821 
L 264.686781 14.76 
L 265.679272 62.548622 
L 267.664252 131.532103 
L 268.656742 152.977144 
L 269.649232 162.418292 
L 270.641722 165.426753 
L 271.634212 165.754827 
L 272.626702 165.897371 
L 275.604173 165.76057 
L 276.596663 165.582685 
L 278.581643 165.740981 
L 279.574133 165.490222 
L 280.566623 165.52666 
L 281.559114 165.417475 
L 282.551604 164.831931 
L 283.544094 165.36122 
L 284.536584 165.387379 
L 285.529074 165.221559 
L 286.521564 165.570717 
L 288.506544 165.307779 
L 289.499034 165.330615 
L 290.491525 163.408966 
L 291.484015 157.855752 
L 292.476505 134.889126 
L 293.468995 89.916406 
L 295.453975 55.134878 
L 296.446465 67.73788 
L 297.438955 74.919759 
L 298.431446 97.031821 
L 299.423936 163.848262 
L 300.416426 165.62665 
L 302.401406 165.635303 
L 309.348837 165.678984 
L 320.266228 165.691487 
L 327.213659 165.572439 
L 328.206149 165.082705 
L 329.198639 94.698201 
L 330.191129 78.690652 
L 331.183619 146.804622 
L 332.17611 143.926308 
L 333.1686 136.715039 
L 334.16109 123.05116 
L 335.15358 98.295191 
L 336.14607 90.366941 
L 337.13856 97.140719 
L 338.13105 101.699254 
L 339.12354 96.169354 
L 340.116031 110.60594 
L 341.108521 152.127192 
L 342.101011 165.118322 
L 343.093501 165.902231 
L 347.063461 165.954692 
L 398.672948 165.959258 
L 425.470181 165.895936 
L 426.462671 165.599297 
L 427.455161 164.399096 
L 428.447651 162.530383 
L 429.440141 160.957873 
L 430.432631 160.522789 
L 431.425121 150.467974 
L 432.417612 132.338123 
L 433.410102 116.876251 
L 434.402592 109.301714 
L 435.395082 119.636264 
L 436.387572 127.495433 
L 438.372552 78.167031 
L 440.357532 165.433052 
L 443.335003 165.694755 
L 460.207335 165.776828 
L 461.199825 165.566709 
L 462.192315 152.112457 
L 463.184805 47.665935 
L 464.177295 61.25677 
L 465.169785 92.221639 
L 466.162276 95.219049 
L 467.154766 98.8847 
L 468.147256 129.014415 
L 469.139746 164.706652 
L 470.132236 165.801028 
L 476.087177 165.676235 
L 481.049627 165.656025 
L 485.019588 165.412421 
L 488.989548 165.142766 
L 489.982038 165.048933 
L 490.974529 89.393522 
L 491.967019 54.984526 
L 492.959509 162.883976 
L 493.951999 165.710158 
L 495.936979 165.843306 
L 500.89943 165.864289 
L 511.816821 165.83923 
L 511.816821 165.83923 
" clip-path="url(#pe799a90254)" style="fill: none; stroke: #023eff; stroke-width: 1.5; stroke-linecap: round"/>
   </g>
   <g id="patch_12">
    <path d="M 32.444094 173.52 
L 32.444094 7.2 
" style="fill: none; stroke: #262626; stroke-width: 1.25; stroke-linejoin: miter; stroke-linecap: square"/>
   </g>
   <g id="patch_13">
    <path d="M 534.644094 173.52 
L 534.644094 7.2 
" style="fill: none; stroke: #262626; stroke-width: 1.25; stroke-linejoin: miter; stroke-linecap: square"/>
   </g>
   <g id="patch_14">
    <path d="M 32.444094 173.52 
L 534.644094 173.52 
" style="fill: none; stroke: #262626; stroke-width: 1.25; stroke-linejoin: miter; stroke-linecap: square"/>
   </g>
   <g id="patch_15">
    <path d="M 32.444094 7.2 
L 534.644094 7.2 
" style="fill: none; stroke: #262626; stroke-width: 1.25; stroke-linejoin: miter; stroke-linecap: square"/>
   </g>
   <g id="legend_1">
    <g id="patch_16">
     <path d="M 39.374094 29.651344 
L 136.059969 29.651344 
Q 138.039969 29.651344 138.039969 27.671344 
L 138.039969 14.13 
Q 138.039969 12.15 136.059969 12.15 
L 39.374094 12.15 
Q 37.394094 12.15 37.394094 14.13 
L 37.394094 27.671344 
Q 37.394094 29.651344 39.374094 29.651344 
z
" style="fill: #ffffff; opacity: 0.8; stroke: #cccccc; stroke-linejoin: miter"/>
    </g>
    <g id="line2d_2">
     <path d="M 41.354094 20.167453 
L 51.254094 20.167453 
L 61.154094 20.167453 
" style="fill: none; stroke: #023eff; stroke-width: 1.5; stroke-linecap: round"/>
    </g>
    <g id="text_11">
     <!-- uncertainties -->
     <g style="fill: #262626" transform="translate(69.074094 23.632453)scale(0.099 -0.099)">
      <defs>
       <path id="DejaVuSans-75" d="M 544 1381 
L 544 3500 
L 1119 3500 
L 1119 1403 
Q 1119 906 1312 657 
Q 1506 409 1894 409 
Q 2359 409 2629 706 
Q 2900 1003 2900 1516 
L 2900 3500 
L 3475 3500 
L 3475 0 
L 2900 0 
L 2900 538 
Q 2691 219 2414 64 
Q 2138 -91 1772 -91 
Q 1169 -91 856 284 
Q 544 659 544 1381 
z
M 1991 3584 
L 1991 3584 
z
" transform="scale(0.015625)"/>
       <path id="DejaVuSans-6e" d="M 3513 2113 
L 3513 0 
L 2938 0 
L 2938 2094 
Q 2938 2591 2744 2837 
Q 2550 3084 2163 3084 
Q 1697 3084 1428 2787 
Q 1159 2491 1159 1978 
L 1159 0 
L 581 0 
L 581 3500 
L 1159 3500 
L 1159 2956 
Q 1366 3272 1645 3428 
Q 1925 3584 2291 3584 
Q 2894 3584 3203 3211 
Q 3513 2838 3513 2113 
z
" transform="scale(0.015625)"/>
       <path id="DejaVuSans-63" d="M 3122 3366 
L 3122 2828 
Q 2878 2963 2633 3030 
Q 2388 3097 2138 3097 
Q 1578 3097 1268 2742 
Q 959 2388 959 1747 
Q 959 1106 1268 751 
Q 1578 397 2138 397 
Q 2388 397 2633 464 
Q 2878 531 3122 666 
L 3122 134 
Q 2881 22 2623 -34 
Q 2366 -91 2075 -91 
Q 1284 -91 818 406 
Q 353 903 353 1747 
Q 353 2603 823 3093 
Q 1294 3584 2113 3584 
Q 2378 3584 2631 3529 
Q 2884 3475 3122 3366 
z
" transform="scale(0.015625)"/>
       <path id="DejaVuSans-74" d="M 1172 4494 
L 1172 3500 
L 2356 3500 
L 2356 3053 
L 1172 3053 
L 1172 1153 
Q 1172 725 1289 603 
Q 1406 481 1766 481 
L 2356 481 
L 2356 0 
L 1766 0 
Q 1100 0 847 248 
Q 594 497 594 1153 
L 594 3053 
L 172 3053 
L 172 3500 
L 594 3500 
L 594 4494 
L 1172 4494 
z
" transform="scale(0.015625)"/>
       <path id="DejaVuSans-69" d="M 603 3500 
L 1178 3500 
L 1178 0 
L 603 0 
L 603 3500 
z
M 603 4863 
L 1178 4863 
L 1178 4134 
L 603 4134 
L 603 4863 
z
" transform="scale(0.015625)"/>
      </defs>
      <use xlink:href="#DejaVuSans-75"/>
      <use xlink:href="#DejaVuSans-6e" x="63.378906"/>
      <use xlink:href="#DejaVuSans-63" x="126.757812"/>
      <use xlink:href="#DejaVuSans-65" x="181.738281"/>
      <use xlink:href="#DejaVuSans-72" x="243.261719"/>
      <use xlink:href="#DejaVuSans-74" x="284.375"/>
      <use xlink:href="#DejaVuSans-61" x="323.583984"/>
      <use xlink:href="#DejaVuSans-69" x="384.863281"/>
      <use xlink:href="#DejaVuSans-6e" x="412.646484"/>
      <use xlink:href="#DejaVuSans-74" x="476.025391"/>
      <use xlink:href="#DejaVuSans-69" x="515.234375"/>
      <use xlink:href="#DejaVuSans-65" x="543.017578"/>
      <use xlink:href="#DejaVuSans-73" x="604.541016"/>
     </g>
    </g>
   </g>
  </g>
 </g>
 <defs>
  <clipPath id="pe799a90254">
   <rect x="32.444094" y="7.2" width="502.2" height="166.32"/>
  </clipPath>
 </defs>
</svg>
