<?xml version="1.0" encoding="utf-8" standalone="no"?>
<!DOCTYPE svg PUBLIC "-//W3C//DTD SVG 1.1//EN"
  "http://www.w3.org/Graphics/SVG/1.1/DTD/svg11.dtd">
<svg xmlns:xlink="http://www.w3.org/1999/xlink" width="253.398875pt" height="272.639pt" viewBox="0 0 253.398875 272.639" xmlns="http://www.w3.org/2000/svg" version="1.1">
 <metadata>
  <rdf:RDF xmlns:dc="http://purl.org/dc/elements/1.1/" xmlns:cc="http://creativecommons.org/ns#" xmlns:rdf="http://www.w3.org/1999/02/22-rdf-syntax-ns#">
   <cc:Work>
    <dc:type rdf:resource="http://purl.org/dc/dcmitype/StillImage"/>
    <dc:date>2023-09-16T00:34:43.907302</dc:date>
    <dc:format>image/svg+xml</dc:format>
    <dc:creator>
     <cc:Agent>
      <dc:title>Matplotlib v3.5.3, https://matplotlib.org/</dc:title>
     </cc:Agent>
    </dc:creator>
   </cc:Work>
  </rdf:RDF>
 </metadata>
 <defs>
  <style type="text/css">*{stroke-linejoin: round; stroke-linecap: butt}</style>
 </defs>
 <g id="figure_1">
  <g id="patch_1">
   <path d="M 0 272.639 
L 253.398875 272.639 
L 253.398875 0 
L 0 0 
z
" style="fill: #ffffff"/>
  </g>
  <g id="axes_1">
   <g id="patch_2">
    <path d="M 22.998875 246.357656 
L 246.198875 246.357656 
L 246.198875 24.597656 
L 22.998875 24.597656 
z
" style="fill: #ffffff"/>
   </g>
   <g id="matplotlib.axis_1">
    <g id="xtick_1">
     <g id="text_1">
      <!-- 0 -->
      <g style="fill: #262626" transform="translate(29.994892 263.380109)scale(0.099 -0.099)">
       <defs>
        <path id="DejaVuSans-30" d="M 2034 4250 
Q 1547 4250 1301 3770 
Q 1056 3291 1056 2328 
Q 1056 1369 1301 889 
Q 1547 409 2034 409 
Q 2525 409 2770 889 
Q 3016 1369 3016 2328 
Q 3016 3291 2770 3770 
Q 2525 4250 2034 4250 
z
M 2034 4750 
Q 2819 4750 3233 4129 
Q 3647 3509 3647 2328 
Q 3647 1150 3233 529 
Q 2819 -91 2034 -91 
Q 1250 -91 836 529 
Q 422 1150 422 2328 
Q 422 3509 836 4129 
Q 1250 4750 2034 4750 
z
" transform="scale(0.015625)"/>
       </defs>
       <use xlink:href="#DejaVuSans-30"/>
      </g>
     </g>
    </g>
    <g id="xtick_2">
     <g id="text_2">
      <!-- 5 -->
      <g style="fill: #262626" transform="translate(63.848338 263.380109)scale(0.099 -0.099)">
       <defs>
        <path id="DejaVuSans-35" d="M 691 4666 
L 3169 4666 
L 3169 4134 
L 1269 4134 
L 1269 2991 
Q 1406 3038 1543 3061 
Q 1681 3084 1819 3084 
Q 2600 3084 3056 2656 
Q 3513 2228 3513 1497 
Q 3513 744 3044 326 
Q 2575 -91 1722 -91 
Q 1428 -91 1123 -41 
Q 819 9 494 109 
L 494 744 
Q 775 591 1075 516 
Q 1375 441 1709 441 
Q 2250 441 2565 725 
Q 2881 1009 2881 1497 
Q 2881 1984 2565 2268 
Q 2250 2553 1709 2553 
Q 1456 2553 1204 2497 
Q 953 2441 691 2322 
L 691 4666 
z
" transform="scale(0.015625)"/>
       </defs>
       <use xlink:href="#DejaVuSans-35"/>
      </g>
     </g>
    </g>
    <g id="xtick_3">
     <g id="text_3">
      <!-- 10 -->
      <g style="fill: #262626" transform="translate(94.552346 263.380109)scale(0.099 -0.099)">
       <defs>
        <path id="DejaVuSans-31" d="M 794 531 
L 1825 531 
L 1825 4091 
L 703 3866 
L 703 4441 
L 1819 4666 
L 2450 4666 
L 2450 531 
L 3481 531 
L 3481 0 
L 794 0 
L 794 531 
z
" transform="scale(0.015625)"/>
       </defs>
       <use xlink:href="#DejaVuSans-31"/>
       <use xlink:href="#DejaVuSans-30" x="63.623047"/>
      </g>
     </g>
    </g>
    <g id="xtick_4">
     <g id="text_4">
      <!-- 15 -->
      <g style="fill: #262626" transform="translate(128.405792 263.380109)scale(0.099 -0.099)">
       <use xlink:href="#DejaVuSans-31"/>
       <use xlink:href="#DejaVuSans-35" x="63.623047"/>
      </g>
     </g>
    </g>
    <g id="xtick_5">
     <g id="text_5">
      <!-- 20 -->
      <g style="fill: #262626" transform="translate(162.259238 263.380109)scale(0.099 -0.099)">
       <defs>
        <path id="DejaVuSans-32" d="M 1228 531 
L 3431 531 
L 3431 0 
L 469 0 
L 469 531 
Q 828 903 1448 1529 
Q 2069 2156 2228 2338 
Q 2531 2678 2651 2914 
Q 2772 3150 2772 3378 
Q 2772 3750 2511 3984 
Q 2250 4219 1831 4219 
Q 1534 4219 1204 4116 
Q 875 4013 500 3803 
L 500 4441 
Q 881 4594 1212 4672 
Q 1544 4750 1819 4750 
Q 2544 4750 2975 4387 
Q 3406 4025 3406 3419 
Q 3406 3131 3298 2873 
Q 3191 2616 2906 2266 
Q 2828 2175 2409 1742 
Q 1991 1309 1228 531 
z
" transform="scale(0.015625)"/>
       </defs>
       <use xlink:href="#DejaVuSans-32"/>
       <use xlink:href="#DejaVuSans-30" x="63.623047"/>
      </g>
     </g>
    </g>
    <g id="xtick_6">
     <g id="text_6">
      <!-- 25 -->
      <g style="fill: #262626" transform="translate(196.112684 263.380109)scale(0.099 -0.099)">
       <use xlink:href="#DejaVuSans-32"/>
       <use xlink:href="#DejaVuSans-35" x="63.623047"/>
      </g>
     </g>
    </g>
    <g id="xtick_7">
     <g id="text_7">
      <!-- 30 -->
      <g style="fill: #262626" transform="translate(229.966129 263.380109)scale(0.099 -0.099)">
       <defs>
        <path id="DejaVuSans-33" d="M 2597 2516 
Q 3050 2419 3304 2112 
Q 3559 1806 3559 1356 
Q 3559 666 3084 287 
Q 2609 -91 1734 -91 
Q 1441 -91 1130 -33 
Q 819 25 488 141 
L 488 750 
Q 750 597 1062 519 
Q 1375 441 1716 441 
Q 2309 441 2620 675 
Q 2931 909 2931 1356 
Q 2931 1769 2642 2001 
Q 2353 2234 1838 2234 
L 1294 2234 
L 1294 2753 
L 1863 2753 
Q 2328 2753 2575 2939 
Q 2822 3125 2822 3475 
Q 2822 3834 2567 4026 
Q 2313 4219 1838 4219 
Q 1578 4219 1281 4162 
Q 984 4106 628 3988 
L 628 4550 
Q 988 4650 1302 4700 
Q 1616 4750 1894 4750 
Q 2613 4750 3031 4423 
Q 3450 4097 3450 3541 
Q 3450 3153 3228 2886 
Q 3006 2619 2597 2516 
z
" transform="scale(0.015625)"/>
       </defs>
       <use xlink:href="#DejaVuSans-33"/>
       <use xlink:href="#DejaVuSans-30" x="63.623047"/>
      </g>
     </g>
    </g>
   </g>
   <g id="matplotlib.axis_2">
    <g id="ytick_1">
     <g id="text_8">
      <!-- 0 -->
      <g style="fill: #262626" transform="translate(7.2 240.071501)scale(0.099 -0.099)">
       <use xlink:href="#DejaVuSans-30"/>
      </g>
     </g>
    </g>
    <g id="ytick_2">
     <g id="text_9">
      <!-- 1 -->
      <g style="fill: #262626" transform="translate(7.2 202.676436)scale(0.099 -0.099)">
       <use xlink:href="#DejaVuSans-31"/>
      </g>
     </g>
    </g>
    <g id="ytick_3">
     <g id="text_10">
      <!-- 2 -->
      <g style="fill: #262626" transform="translate(7.2 165.281371)scale(0.099 -0.099)">
       <use xlink:href="#DejaVuSans-32"/>
      </g>
     </g>
    </g>
    <g id="ytick_4">
     <g id="text_11">
      <!-- 3 -->
      <g style="fill: #262626" transform="translate(7.2 127.886307)scale(0.099 -0.099)">
       <use xlink:href="#DejaVuSans-33"/>
      </g>
     </g>
    </g>
    <g id="ytick_5">
     <g id="text_12">
      <!-- 4 -->
      <g style="fill: #262626" transform="translate(7.2 90.491242)scale(0.099 -0.099)">
       <defs>
        <path id="DejaVuSans-34" d="M 2419 4116 
L 825 1625 
L 2419 1625 
L 2419 4116 
z
M 2253 4666 
L 3047 4666 
L 3047 1625 
L 3713 1625 
L 3713 1100 
L 3047 1100 
L 3047 0 
L 2419 0 
L 2419 1100 
L 313 1100 
L 313 1709 
L 2253 4666 
z
" transform="scale(0.015625)"/>
       </defs>
       <use xlink:href="#DejaVuSans-34"/>
      </g>
     </g>
    </g>
    <g id="ytick_6">
     <g id="text_13">
      <!-- 5 -->
      <g style="fill: #262626" transform="translate(7.2 53.096178)scale(0.099 -0.099)">
       <use xlink:href="#DejaVuSans-35"/>
      </g>
     </g>
    </g>
   </g>
   <g id="PolyCollection_1"/>
   <g id="PolyCollection_2"/>
   <g id="PolyCollection_3"/>
   <g id="PolyCollection_4"/>
   <g id="line2d_1">
    <path d="M 33.14433 174.845876 
L 33.355914 142.185775 
L 33.779082 34.677656 
L 33.990666 58.886742 
L 34.413834 123.40333 
L 34.837002 159.609726 
L 35.048586 169.969168 
L 35.26017 174.433847 
L 35.471754 173.756671 
L 36.952842 188.846374 
L 37.164426 189.799735 
L 37.587594 196.415405 
L 38.010762 194.219052 
L 38.43393 198.514753 
L 38.645514 198.756307 
L 38.857099 199.369725 
L 39.491851 205.323171 
L 39.703435 193.907527 
L 39.915019 190.10554 
L 40.338187 198.121546 
L 40.549771 198.411489 
L 40.972939 201.604674 
L 41.396107 203.690055 
L 41.607691 207.79429 
L 41.819275 208.111102 
L 42.030859 205.71046 
L 42.665611 211.325677 
L 42.877195 212.280381 
L 43.088779 215.975093 
L 43.300363 215.951357 
L 43.723531 219.240637 
L 43.935115 220.151246 
L 44.146699 217.589035 
L 44.358283 219.790018 
L 44.781452 215.354398 
L 45.20462 209.0055 
L 45.416204 209.403391 
L 45.627788 213.970979 
L 45.839372 214.508663 
L 46.050956 216.90296 
L 46.26254 216.961455 
L 46.474124 211.708591 
L 46.897292 216.305392 
L 47.108876 216.699992 
L 47.32046 218.104226 
L 47.532044 217.887588 
L 48.37838 222.945245 
L 48.801548 221.021305 
L 49.013132 221.334226 
L 49.224716 220.075687 
L 49.4363 220.034061 
L 49.859468 222.10402 
L 50.071052 223.987781 
L 50.282636 221.866163 
L 50.705805 223.857367 
L 50.917389 223.353422 
L 51.340557 224.085752 
L 51.763725 225.420236 
L 51.975309 224.559041 
L 52.186893 224.668617 
L 52.398477 222.242355 
L 52.610061 222.154659 
L 52.821645 224.160416 
L 53.033229 221.358709 
L 53.244813 203.089234 
L 53.456397 204.04027 
L 53.667981 205.886812 
L 54.091149 214.296816 
L 54.725901 221.780674 
L 54.937485 221.114941 
L 55.572237 225.813036 
L 55.783821 226.367259 
L 55.995405 226.077987 
L 56.20699 225.006344 
L 56.418574 224.591768 
L 56.630158 223.657495 
L 56.841742 225.728946 
L 57.053326 224.892352 
L 57.26491 227.282978 
L 57.476494 226.820527 
L 57.688078 227.075861 
L 57.899662 228.177849 
L 58.111246 221.726351 
L 58.32283 220.402654 
L 58.534414 222.982818 
L 58.745998 222.949553 
L 58.957582 220.747069 
L 59.169166 220.807251 
L 59.38075 218.664125 
L 59.592334 218.435633 
L 59.803918 220.590257 
L 60.015502 195.873716 
L 60.227086 207.077189 
L 60.861838 219.742351 
L 61.073422 222.712731 
L 61.708174 225.759791 
L 62.342927 229.519808 
L 62.766095 229.41686 
L 62.977679 230.049588 
L 63.189263 230.277849 
L 63.400847 228.940992 
L 63.612431 229.767058 
L 63.824015 231.295101 
L 64.035599 231.331198 
L 64.458767 232.817767 
L 64.670351 232.997336 
L 65.305103 230.604114 
L 65.516687 229.155897 
L 65.728271 229.502455 
L 65.939855 229.267932 
L 66.151439 230.643663 
L 66.363023 231.057158 
L 66.574607 226.653159 
L 66.786191 226.055671 
L 67.209359 229.668745 
L 67.420943 231.095358 
L 67.632527 229.581975 
L 67.844112 230.712724 
L 68.055696 230.578354 
L 68.26728 229.167963 
L 68.478864 229.680217 
L 68.690448 230.876674 
L 68.902032 231.332933 
L 69.113616 230.645036 
L 69.536784 232.495809 
L 69.748368 232.080343 
L 69.959952 232.492656 
L 70.171536 231.674734 
L 70.38312 231.327727 
L 70.594704 231.49467 
L 70.806288 232.311624 
L 71.229456 232.912455 
L 71.44104 232.729111 
L 71.652624 233.400213 
L 72.287376 232.390157 
L 72.710544 233.613689 
L 72.922128 234.173579 
L 73.133712 234.147079 
L 73.345296 234.640202 
L 73.55688 222.371782 
L 73.768465 222.24503 
L 73.980049 215.056288 
L 74.191633 217.74998 
L 74.403217 218.634748 
L 74.614801 220.382593 
L 74.826385 220.869477 
L 75.249553 223.713118 
L 75.461137 224.255747 
L 75.672721 224.063777 
L 75.884305 224.881079 
L 76.095889 224.664244 
L 76.307473 224.043819 
L 76.519057 223.978802 
L 76.730641 225.585922 
L 76.942225 225.777613 
L 77.576977 228.396187 
L 78.000145 224.874967 
L 78.211729 226.467207 
L 78.423313 225.063072 
L 78.634897 227.722265 
L 79.058065 229.495957 
L 79.269649 228.550236 
L 79.481234 230.397777 
L 79.692818 230.584439 
L 79.904402 231.667361 
L 80.115986 231.778027 
L 80.32757 217.162975 
L 80.539154 215.061334 
L 80.962322 222.413855 
L 81.173906 217.539349 
L 81.597074 226.182548 
L 81.808658 223.940797 
L 82.020242 217.665581 
L 82.44341 224.148018 
L 83.078162 227.086731 
L 83.289746 228.54127 
L 83.50133 228.838408 
L 83.712914 229.970415 
L 83.924498 230.191305 
L 84.136082 231.288781 
L 84.55925 232.432615 
L 84.770834 232.392593 
L 85.405587 234.222826 
L 85.617171 233.66626 
L 85.828755 233.935877 
L 86.040339 234.640474 
L 86.251923 234.887625 
L 86.463507 234.695171 
L 86.675091 235.107867 
L 86.886675 234.538627 
L 87.098259 232.699635 
L 87.309843 233.665533 
L 87.521427 232.739845 
L 87.733011 233.578222 
L 87.944595 233.442989 
L 88.156179 234.179455 
L 88.579347 232.63118 
L 89.214099 234.500149 
L 89.425683 233.402012 
L 90.060435 234.644068 
L 90.483603 235.466504 
L 90.695187 233.412822 
L 90.906771 233.828688 
L 91.118356 232.292668 
L 91.541524 234.319942 
L 92.176276 235.230675 
L 92.599444 234.946714 
L 93.022612 235.122977 
L 93.234196 234.976689 
L 93.44578 235.166387 
L 93.657364 235.55693 
L 93.868948 226.8664 
L 94.080532 230.299616 
L 94.292116 228.329404 
L 94.715284 233.129265 
L 94.926868 230.896106 
L 95.350036 233.13635 
L 95.56162 233.950897 
L 95.984788 233.569097 
L 96.196372 233.074333 
L 96.407956 233.927148 
L 96.61954 233.605227 
L 96.831125 234.493091 
L 97.042709 233.912483 
L 97.254293 234.45427 
L 97.465877 234.557067 
L 97.677461 235.044151 
L 97.889045 234.910097 
L 98.100629 235.384758 
L 98.312213 234.816647 
L 98.735381 234.500299 
L 99.158549 235.294275 
L 99.370133 235.348264 
L 99.581717 234.837232 
L 100.004885 235.556685 
L 100.216469 235.75521 
L 100.428053 235.629461 
L 100.639637 231.0325 
L 100.851221 232.858659 
L 101.062805 233.549441 
L 101.274389 233.182952 
L 101.697557 234.616482 
L 102.120725 235.080738 
L 102.332309 234.444717 
L 102.543893 234.494644 
L 102.755478 235.166748 
L 102.967062 235.200697 
L 103.178646 234.768735 
L 103.813398 235.551279 
L 104.024982 234.390187 
L 104.236566 233.870934 
L 104.44815 234.743161 
L 104.659734 234.110839 
L 104.871318 234.667819 
L 105.082902 234.462471 
L 105.294486 235.071607 
L 105.50607 235.341806 
L 105.717654 234.958256 
L 106.775574 235.697081 
L 106.987158 234.766957 
L 107.198742 235.045036 
L 107.410326 230.258383 
L 107.62191 230.04907 
L 108.045078 233.306365 
L 108.256662 233.322804 
L 108.468247 234.320795 
L 108.891415 234.944943 
L 109.102999 234.930897 
L 109.526167 235.296091 
L 109.737751 235.441494 
L 109.949335 234.684057 
L 110.160919 229.597094 
L 110.372503 231.776785 
L 110.584087 232.801743 
L 110.795671 233.243055 
L 111.007255 234.100031 
L 111.430423 234.321684 
L 111.642007 234.697547 
L 111.853591 234.672967 
L 112.276759 235.462728 
L 112.488343 235.711549 
L 112.699927 235.754491 
L 112.911511 234.353709 
L 113.123095 234.645861 
L 113.334679 235.177154 
L 113.546263 235.063493 
L 113.969431 234.281686 
L 114.181015 229.260538 
L 114.3926 231.710072 
L 114.604184 232.027874 
L 115.027352 233.94206 
L 115.238936 233.933827 
L 115.662104 234.320606 
L 115.873688 233.026388 
L 116.085272 234.126641 
L 116.296856 233.126901 
L 116.720024 234.863992 
L 116.931608 235.122852 
L 117.143192 234.919175 
L 117.354776 234.038747 
L 117.56636 234.723735 
L 117.989528 234.748211 
L 118.201112 234.909786 
L 118.412696 235.380831 
L 118.835864 235.715255 
L 119.047448 233.695498 
L 119.259032 234.610376 
L 119.470616 234.904418 
L 119.6822 235.397804 
L 119.893784 234.572432 
L 120.105369 234.243243 
L 120.316953 235.020545 
L 120.740121 235.698844 
L 120.951705 219.325349 
L 121.374873 229.864141 
L 121.586457 230.077282 
L 121.798041 230.805432 
L 122.221209 233.394163 
L 122.644377 234.897383 
L 122.855961 234.977151 
L 123.067545 234.575823 
L 123.490713 235.353145 
L 123.702297 235.240437 
L 123.913881 234.963849 
L 124.125465 234.251928 
L 124.337049 234.929276 
L 124.548633 234.838331 
L 124.760217 235.077539 
L 124.971801 234.883611 
L 125.183385 234.92895 
L 125.394969 235.403399 
L 125.606553 234.225472 
L 126.029722 235.178196 
L 126.45289 234.882439 
L 126.664474 233.867424 
L 127.087642 234.880243 
L 127.51081 235.307532 
L 127.722394 231.61372 
L 128.145562 234.348864 
L 128.357146 234.865081 
L 128.56873 233.871818 
L 128.780314 234.196077 
L 128.991898 232.737173 
L 129.203482 232.665974 
L 129.415066 233.650721 
L 129.62665 233.92072 
L 130.049818 235.079913 
L 130.261402 235.004849 
L 130.472986 235.172364 
L 130.68457 235.564256 
L 130.896154 235.042814 
L 131.107738 234.877135 
L 131.319322 233.931104 
L 131.742491 235.194161 
L 132.377243 235.860775 
L 132.588827 235.730794 
L 132.800411 235.35514 
L 133.011995 235.474232 
L 133.223579 235.17742 
L 133.435163 235.282638 
L 133.646747 235.636702 
L 133.858331 235.427175 
L 134.281499 235.871049 
L 134.493083 228.31673 
L 134.704667 231.34243 
L 135.127835 233.45262 
L 135.551003 234.933266 
L 135.974171 235.161932 
L 136.185755 235.074104 
L 136.608923 235.2392 
L 137.032091 234.278706 
L 137.878428 235.576326 
L 138.090012 235.360285 
L 138.51318 235.720543 
L 138.724764 235.83348 
L 139.359516 235.565276 
L 139.782684 235.707075 
L 140.417436 236.036476 
L 140.840604 236.057071 
L 141.052188 235.333118 
L 141.263772 232.763338 
L 141.68694 234.923376 
L 142.110108 235.677027 
L 142.321692 235.653452 
L 142.533276 235.746856 
L 142.74486 234.947898 
L 143.168028 235.564665 
L 143.379613 235.28852 
L 143.802781 235.762946 
L 144.014365 235.47136 
L 144.225949 235.686813 
L 144.649117 235.377326 
L 145.072285 235.70442 
L 145.495453 235.992367 
L 145.707037 236.003306 
L 145.918621 235.693806 
L 146.130205 235.813998 
L 146.341789 235.794869 
L 146.553373 235.977397 
L 146.764957 236.002102 
L 146.976541 235.670497 
L 147.188125 235.609597 
L 147.611293 235.943332 
L 147.822877 235.689832 
L 148.034461 232.411505 
L 148.246045 232.663083 
L 148.669213 234.606492 
L 148.880797 235.155776 
L 149.092381 234.914398 
L 149.303966 235.150253 
L 149.51555 233.799105 
L 149.727134 234.696772 
L 149.938718 235.071433 
L 150.150302 233.776643 
L 150.361886 233.884686 
L 150.996638 235.328147 
L 151.63139 235.952198 
L 151.842974 236.02707 
L 152.054558 235.887112 
L 152.266142 234.866466 
L 152.68931 235.505164 
L 152.900894 235.532834 
L 153.112478 235.798936 
L 153.324062 235.80797 
L 153.74723 236.060249 
L 154.170398 235.941597 
L 154.381982 235.594256 
L 154.593566 235.766384 
L 154.80515 234.051064 
L 155.016735 234.342815 
L 155.439903 235.403227 
L 156.074655 235.723116 
L 156.286239 235.527487 
L 156.709407 235.678543 
L 156.920991 234.138067 
L 157.132575 234.555367 
L 157.344159 234.673518 
L 157.767327 235.501697 
L 158.190495 235.808188 
L 158.402079 235.272938 
L 158.613663 235.666632 
L 158.825247 235.112317 
L 159.036831 235.456429 
L 159.248415 235.291638 
L 159.671583 235.791651 
L 159.883167 235.630086 
L 160.094751 235.126737 
L 160.306335 235.479291 
L 160.517919 235.351276 
L 160.729503 234.5858 
L 160.941088 234.641369 
L 161.152672 235.262262 
L 161.364256 235.418056 
L 161.57584 232.735173 
L 161.999008 234.573899 
L 162.210592 234.827636 
L 162.63376 235.670831 
L 162.845344 235.898786 
L 163.056928 235.68973 
L 163.268512 235.856576 
L 163.903264 235.672548 
L 164.326432 235.926625 
L 165.172768 236.116365 
L 165.384352 236.048686 
L 165.80752 236.127671 
L 166.019104 236.021515 
L 166.442272 236.141941 
L 166.653857 235.893211 
L 166.865441 235.971784 
L 167.077025 235.669807 
L 167.500193 236.04252 
L 167.711777 235.822789 
L 167.923361 235.863566 
L 168.134945 235.332042 
L 168.346529 230.472469 
L 168.558113 232.641707 
L 168.769697 232.297418 
L 169.192865 234.786697 
L 169.404449 234.87155 
L 169.616033 235.287587 
L 169.827617 235.015922 
L 170.250785 235.649973 
L 170.673953 235.950957 
L 170.885537 235.956471 
L 171.097121 235.675877 
L 171.308705 235.886856 
L 171.520289 235.546454 
L 171.943457 235.88174 
L 172.155041 235.939173 
L 172.366625 235.452795 
L 172.57821 235.698859 
L 172.789794 235.521309 
L 173.212962 235.827305 
L 173.424546 235.376849 
L 173.847714 235.908186 
L 174.059298 235.996924 
L 174.270882 235.348784 
L 174.905634 236.001931 
L 175.117218 218.348103 
L 175.540386 229.3031 
L 175.963554 233.078801 
L 176.175138 233.128079 
L 176.386722 233.771822 
L 176.598306 233.922629 
L 177.021474 235.053616 
L 177.444642 234.967037 
L 177.656226 235.128885 
L 177.86781 234.961088 
L 178.079394 234.127316 
L 178.502563 235.18214 
L 178.714147 235.594951 
L 178.925731 235.318659 
L 179.348899 235.838834 
L 179.560483 235.953816 
L 179.772067 235.657082 
L 179.983651 235.849702 
L 180.195235 235.82736 
L 180.618403 236.050267 
L 181.253155 236.122093 
L 181.464739 236.172984 
L 181.676323 235.615817 
L 181.887907 233.102582 
L 182.311075 235.040478 
L 182.734243 235.696836 
L 182.945827 235.819555 
L 183.157411 235.79237 
L 183.368995 235.975599 
L 183.580579 234.842374 
L 183.792163 235.38107 
L 184.003747 235.485751 
L 184.426916 235.927617 
L 185.273252 236.095636 
L 185.69642 236.157257 
L 185.908004 235.79201 
L 186.331172 236.070568 
L 186.965924 236.175445 
L 187.177508 235.756553 
L 187.389092 235.945283 
L 187.81226 235.956332 
L 188.023844 235.873239 
L 188.235428 236.012902 
L 188.447012 235.972398 
L 188.658596 234.338014 
L 188.87018 235.066488 
L 189.293348 235.231103 
L 189.716516 235.777936 
L 190.139685 235.961902 
L 190.774437 236.131558 
L 190.986021 235.827448 
L 191.197605 235.735479 
L 191.620773 235.961875 
L 191.832357 235.718608 
L 192.043941 235.77518 
L 192.255525 235.956759 
L 192.678693 235.920316 
L 193.525029 236.105899 
L 193.736613 235.846307 
L 194.159781 236.093196 
L 195.217701 236.201435 
L 195.429285 233.712577 
L 195.64087 234.680007 
L 196.275622 235.592592 
L 196.487206 234.903504 
L 196.910374 235.755702 
L 197.333542 235.989109 
L 197.545126 235.781319 
L 198.391462 236.125328 
L 198.81463 236.183173 
L 199.026214 235.867691 
L 199.449382 235.732329 
L 200.084134 235.976977 
L 200.507302 236.105864 
L 201.142054 236.201377 
L 201.353638 236.049434 
L 201.776807 236.122465 
L 201.988391 236.084805 
L 202.199975 233.800556 
L 202.623143 235.336892 
L 202.834727 235.681221 
L 203.257895 235.824173 
L 203.892647 236.093797 
L 204.104231 235.635617 
L 204.527399 235.932237 
L 204.950567 236.072855 
L 205.796903 236.078802 
L 206.008487 235.219313 
L 206.431655 235.808903 
L 206.854823 236.086911 
L 208.75908 236.160639 
L 208.970664 231.380226 
L 209.393832 234.417228 
L 209.605416 235.14109 
L 210.240168 235.933639 
L 210.451752 236.040615 
L 210.87492 236.082344 
L 212.144424 236.054446 
L 212.356008 235.572966 
L 212.779176 235.961975 
L 213.202345 235.932395 
L 213.625513 235.918096 
L 214.048681 236.129721 
L 214.471849 236.173057 
L 214.895017 236.032497 
L 215.529769 236.135277 
L 215.741353 227.822948 
L 216.164521 233.143369 
L 216.376105 234.384852 
L 216.799273 235.459345 
L 217.010857 235.54917 
L 217.434025 236.005104 
L 217.857193 236.005719 
L 218.491945 236.131982 
L 218.703529 236.187443 
L 218.915114 235.988422 
L 219.549866 236.153956 
L 219.76145 235.952324 
L 219.973034 236.057361 
L 220.184618 235.965568 
L 220.607786 236.119676 
L 222.300458 236.109879 
L 222.512042 234.041466 
L 222.93521 235.293544 
L 223.146794 235.622155 
L 223.358378 235.579844 
L 223.569962 235.852421 
L 224.839467 236.178825 
L 225.262635 236.140865 
L 226.320555 236.115135 
L 226.532139 235.522622 
L 226.743723 235.798643 
L 227.590059 236.0838 
L 228.013227 236.061483 
L 228.647979 236.116576 
L 229.071147 236.161744 
L 229.282731 229.172784 
L 229.705899 233.397671 
L 230.129067 235.003442 
L 230.76382 235.898169 
L 230.975404 236.004226 
L 231.398572 235.735201 
L 231.82174 236.047454 
L 232.456492 236.124549 
L 232.668076 235.996606 
L 232.87966 236.069122 
L 233.091244 235.980702 
L 233.514412 236.117017 
L 233.93758 236.133004 
L 234.360748 236.155991 
L 234.783916 236.117328 
L 234.9955 236.162945 
L 235.207084 235.707919 
L 235.630252 236.034132 
L 235.841836 236.051401 
L 236.05342 232.27409 
L 236.05342 232.27409 
" clip-path="url(#p48b87b6c41)" style="fill: none; stroke: #e8000b; stroke-width: 1.5; stroke-linecap: round"/>
   </g>
   <g id="line2d_2">
    <path d="M 33.14433 175.679786 
L 33.355914 165.386869 
L 33.779082 109.402162 
L 33.990666 108.982782 
L 34.20225 128.846408 
L 34.413834 122.40959 
L 34.837002 161.350142 
L 35.26017 177.294408 
L 35.471754 178.912157 
L 35.894922 187.821434 
L 36.106506 176.788755 
L 36.31809 183.058629 
L 36.529674 183.853928 
L 36.741258 188.373065 
L 36.952842 180.686176 
L 37.37601 192.721263 
L 37.799178 195.41991 
L 38.222346 196.765313 
L 38.43393 198.492987 
L 38.645514 198.198177 
L 38.857099 198.95557 
L 39.068683 198.647445 
L 39.280267 198.588816 
L 39.491851 199.450521 
L 39.703435 171.691491 
L 39.915019 175.840593 
L 40.126603 183.87634 
L 40.549771 187.18151 
L 41.184523 198.125949 
L 41.396107 198.482489 
L 41.819275 202.187062 
L 42.030859 199.369654 
L 42.242443 199.598474 
L 42.665611 204.204104 
L 42.877195 203.53409 
L 43.088779 204.423258 
L 43.300363 204.780105 
L 43.511947 204.516304 
L 43.935115 207.450431 
L 44.146699 206.648612 
L 44.358283 203.622263 
L 44.993036 208.782016 
L 45.416204 206.265103 
L 45.627788 208.987356 
L 45.839372 209.253545 
L 46.050956 207.705351 
L 46.26254 210.485427 
L 46.474124 199.166914 
L 46.685708 194.337252 
L 47.32046 207.821212 
L 47.743628 212.699297 
L 47.955212 213.538037 
L 48.166796 212.996312 
L 48.37838 213.062879 
L 48.589964 213.549914 
L 48.801548 212.311331 
L 49.013132 211.901147 
L 49.224716 208.994004 
L 50.071052 216.708577 
L 50.282636 212.701752 
L 50.705805 216.170182 
L 50.917389 214.449504 
L 51.128973 216.297564 
L 51.340557 216.015602 
L 51.552141 216.206016 
L 51.763725 215.03926 
L 51.975309 217.129625 
L 52.186893 218.072119 
L 52.398477 217.635877 
L 52.610061 219.495478 
L 53.033229 219.529919 
L 53.244813 218.85489 
L 53.667981 220.098335 
L 53.879565 221.234869 
L 54.091149 221.465804 
L 54.302733 220.15583 
L 54.725901 216.969298 
L 55.149069 220.394396 
L 55.360653 217.369351 
L 55.572237 219.698295 
L 55.783821 219.029659 
L 55.995405 219.670753 
L 56.20699 217.63176 
L 56.418574 217.8388 
L 56.630158 214.877633 
L 57.053326 217.271447 
L 57.26491 219.441359 
L 57.476494 218.979007 
L 57.899662 215.19553 
L 58.32283 218.889232 
L 58.534414 219.543268 
L 58.745998 221.196352 
L 58.957582 220.185771 
L 59.169166 217.047926 
L 59.592334 218.543107 
L 59.803918 218.873689 
L 60.015502 201.184632 
L 60.43867 207.868051 
L 60.861838 215.934738 
L 61.073422 215.55813 
L 62.131343 222.793429 
L 62.342927 220.896911 
L 62.554511 221.792245 
L 62.977679 218.43058 
L 63.189263 220.682807 
L 63.400847 220.74147 
L 63.612431 221.615365 
L 63.824015 221.355452 
L 64.035599 221.810989 
L 64.247183 222.885313 
L 64.458767 222.487782 
L 64.670351 222.938529 
L 64.881935 224.339355 
L 65.516687 223.166612 
L 65.728271 223.876987 
L 66.363023 224.370363 
L 66.574607 224.125815 
L 66.786191 213.289484 
L 67.209359 220.100301 
L 67.632527 224.249453 
L 67.844112 225.216854 
L 68.055696 225.123286 
L 68.26728 224.756767 
L 68.478864 225.938123 
L 68.690448 225.769948 
L 68.902032 225.386336 
L 69.3252 223.740742 
L 69.536784 224.166868 
L 69.748368 223.219768 
L 69.959952 223.7059 
L 70.171536 225.870922 
L 70.38312 224.7593 
L 71.017872 227.52165 
L 71.229456 226.677583 
L 71.44104 226.443528 
L 71.864208 228.068097 
L 72.075792 229.621311 
L 72.287376 229.672211 
L 72.49896 229.590716 
L 72.922128 219.02119 
L 73.345296 224.780203 
L 73.55688 201.629088 
L 73.768465 205.739805 
L 74.191633 218.360014 
L 74.403217 220.550569 
L 74.614801 219.372447 
L 74.826385 219.897366 
L 75.037969 219.771505 
L 75.461137 222.281257 
L 75.672721 225.64198 
L 76.095889 228.444543 
L 76.519057 229.260478 
L 76.730641 230.440996 
L 76.942225 228.620205 
L 77.153809 229.453875 
L 77.365393 227.823456 
L 77.576977 227.360359 
L 78.423313 231.15502 
L 78.846481 228.86053 
L 79.058065 229.307435 
L 79.269649 230.188409 
L 79.481234 229.61698 
L 80.115986 230.887309 
L 80.32757 229.331348 
L 80.539154 228.941646 
L 80.750738 229.179899 
L 80.962322 227.993831 
L 81.38549 231.551158 
L 81.597074 231.113425 
L 81.808658 232.565872 
L 82.231826 231.262721 
L 82.44341 231.906352 
L 82.654994 232.149232 
L 82.866578 233.314649 
L 83.078162 233.67884 
L 83.289746 231.708845 
L 83.50133 232.24388 
L 83.712914 231.038734 
L 83.924498 231.267126 
L 84.136082 230.352014 
L 84.55925 230.647083 
L 84.982418 230.023326 
L 85.194003 230.770366 
L 85.405587 231.086061 
L 85.828755 233.15654 
L 86.040339 233.273894 
L 86.251923 231.508957 
L 86.463507 227.477685 
L 86.675091 228.374518 
L 86.886675 228.001076 
L 87.098259 219.63446 
L 87.521427 226.318214 
L 87.733011 227.147078 
L 87.944595 230.150613 
L 88.156179 228.735113 
L 88.367763 228.65316 
L 88.579347 230.336427 
L 88.790931 230.719795 
L 89.214099 232.727737 
L 89.637267 234.313944 
L 89.848851 233.744265 
L 90.272019 230.652774 
L 90.906771 231.853737 
L 91.118356 232.598414 
L 91.32994 230.669138 
L 91.541524 232.551492 
L 91.753108 231.225395 
L 92.176276 233.877986 
L 92.599444 234.549584 
L 92.811028 233.814 
L 93.234196 234.879977 
L 93.44578 234.858861 
L 94.080532 231.289257 
L 94.292116 231.553259 
L 94.5037 232.521637 
L 94.715284 231.865037 
L 95.138452 234.094137 
L 95.56162 235.237805 
L 95.773204 233.348897 
L 96.196372 234.821883 
L 96.407956 235.006343 
L 96.61954 234.869014 
L 96.831125 235.249867 
L 97.042709 234.354582 
L 97.254293 234.981595 
L 97.465877 234.312087 
L 97.889045 235.29763 
L 98.100629 234.823155 
L 98.735381 235.628269 
L 99.158549 235.829044 
L 99.581717 235.936534 
L 99.793301 235.062901 
L 100.004885 235.432164 
L 100.428053 235.167963 
L 100.639637 233.71729 
L 100.851221 227.978648 
L 101.062805 229.047251 
L 101.274389 231.796897 
L 101.697557 233.429612 
L 102.120725 232.937301 
L 102.332309 233.66289 
L 102.543893 232.99838 
L 102.755478 233.77358 
L 102.967062 234.12442 
L 103.178646 234.820312 
L 103.39023 234.809001 
L 103.601814 233.148006 
L 104.236566 235.185346 
L 104.44815 235.465095 
L 104.659734 235.408275 
L 104.871318 235.622635 
L 105.082902 235.316721 
L 105.294486 235.5155 
L 105.50607 235.013859 
L 105.717654 235.368036 
L 105.929238 234.973396 
L 106.140822 234.057518 
L 106.352406 234.087465 
L 106.56399 234.924086 
L 107.198742 235.491658 
L 107.410326 228.042277 
L 107.62191 230.915394 
L 107.833494 231.097092 
L 108.045078 232.763839 
L 108.256662 233.365256 
L 108.468247 232.713298 
L 108.679831 232.810802 
L 108.891415 233.947031 
L 109.102999 234.098057 
L 109.314583 234.49965 
L 109.526167 234.021723 
L 109.949335 234.343513 
L 110.160919 234.758959 
L 110.372503 234.737038 
L 110.584087 234.587917 
L 110.795671 234.739268 
L 111.218839 235.672584 
L 111.642007 235.926997 
L 111.853591 235.972909 
L 112.065175 235.746469 
L 112.276759 235.866687 
L 112.488343 235.821696 
L 112.911511 235.970835 
L 113.546263 235.938058 
L 113.969431 236.030166 
L 114.181015 226.1673 
L 114.604184 231.717824 
L 114.815768 233.391612 
L 115.238936 234.537262 
L 115.45052 234.462068 
L 115.662104 235.076601 
L 115.873688 235.142719 
L 116.085272 235.07903 
L 116.50844 232.894837 
L 116.720024 234.095277 
L 116.931608 234.222305 
L 117.143192 234.098683 
L 117.354776 234.918103 
L 117.56636 234.840601 
L 118.62428 235.968344 
L 119.047448 235.901361 
L 119.259032 235.651636 
L 119.470616 235.63044 
L 119.6822 235.734245 
L 119.893784 235.377853 
L 120.316953 235.85419 
L 120.740121 236.048318 
L 120.951705 231.949297 
L 121.163289 233.480835 
L 121.374873 233.774363 
L 121.586457 234.665623 
L 121.798041 234.492266 
L 122.221209 235.449789 
L 122.432793 234.445068 
L 122.644377 234.840385 
L 122.855961 234.976907 
L 123.279129 235.68137 
L 123.490713 234.601218 
L 123.913881 235.584773 
L 124.125465 235.005763 
L 124.337049 235.458312 
L 124.548633 235.519082 
L 124.971801 235.889596 
L 125.606553 236.114642 
L 125.818137 235.881468 
L 126.241306 235.919777 
L 126.45289 235.409596 
L 126.876058 235.904479 
L 127.087642 236.032992 
L 127.299226 235.945412 
L 127.51081 235.290205 
L 127.722394 232.049671 
L 128.145562 234.377915 
L 128.357146 234.969119 
L 128.56873 234.601817 
L 128.991898 235.512771 
L 129.203482 235.585563 
L 129.415066 235.445554 
L 129.62665 234.824406 
L 129.838234 235.375973 
L 130.049818 235.089147 
L 130.261402 235.511483 
L 130.68457 235.775363 
L 130.896154 235.681192 
L 131.530906 235.875728 
L 132.165659 235.979722 
L 132.588827 236.102604 
L 132.800411 235.925552 
L 133.435163 235.954471 
L 133.646747 235.734509 
L 134.281499 236.079282 
L 134.493083 235.706335 
L 135.127835 235.987391 
L 135.551003 236.115925 
L 135.762587 235.965555 
L 136.185755 236.131698 
L 136.397339 236.189816 
L 136.608923 235.359813 
L 137.032091 235.87474 
L 137.666844 236.133624 
L 137.878428 235.947605 
L 138.090012 235.932322 
L 138.51318 236.146689 
L 138.724764 236.17024 
L 138.936348 235.734284 
L 139.147932 235.859376 
L 139.359516 234.854311 
L 139.782684 235.658536 
L 140.205852 235.987964 
L 140.417436 236.085028 
L 141.052188 236.066813 
L 141.263772 225.669796 
L 141.475356 229.472909 
L 141.68694 229.607103 
L 142.110108 233.390534 
L 142.321692 234.314614 
L 142.533276 233.477218 
L 142.956444 234.582201 
L 143.379613 235.583731 
L 143.591197 235.828577 
L 143.802781 235.055715 
L 144.014365 235.328681 
L 144.225949 234.637609 
L 144.437533 235.271225 
L 145.072285 235.976293 
L 145.283869 236.067853 
L 145.495453 235.753476 
L 145.707037 235.89976 
L 145.918621 234.836958 
L 146.130205 234.799394 
L 146.341789 235.275107 
L 146.553373 235.36279 
L 146.764957 235.676267 
L 146.976541 235.024161 
L 147.188125 235.518114 
L 147.399709 234.853133 
L 147.822877 235.568333 
L 148.034461 229.804566 
L 148.457629 233.744148 
L 148.669213 234.542189 
L 148.880797 234.712131 
L 149.303966 235.545275 
L 149.727134 235.556098 
L 150.150302 235.850718 
L 150.361886 235.353352 
L 150.785054 235.753109 
L 151.208222 236.016715 
L 151.419806 236.055759 
L 151.63139 235.050073 
L 151.842974 235.12067 
L 152.68931 235.997399 
L 153.112478 236.107083 
L 153.958814 235.979487 
L 154.170398 235.629406 
L 154.593566 235.896435 
L 154.80515 230.295652 
L 155.228319 233.893984 
L 155.651487 234.946466 
L 155.863071 234.729578 
L 156.074655 234.799584 
L 156.286239 234.61991 
L 156.497823 231.671726 
L 156.709407 233.403742 
L 156.920991 233.544721 
L 157.344159 235.107447 
L 157.555743 235.388738 
L 157.767327 234.876474 
L 157.978911 235.163847 
L 158.402079 233.828835 
L 158.613663 234.589262 
L 158.825247 234.348175 
L 159.036831 235.085299 
L 159.459999 235.609432 
L 160.306335 235.907919 
L 160.517919 235.275188 
L 160.941088 235.776785 
L 161.152672 235.603515 
L 161.364256 235.818609 
L 161.57584 231.738775 
L 161.999008 234.359839 
L 162.210592 235.095588 
L 162.63376 235.622051 
L 162.845344 235.582923 
L 163.268512 235.936631 
L 163.903264 235.876037 
L 164.538016 236.064607 
L 164.7496 235.685114 
L 165.384352 236.112063 
L 165.595936 236.01574 
L 166.019104 236.121165 
L 166.442272 236.177785 
L 166.653857 235.912474 
L 166.865441 235.913637 
L 167.288609 236.124196 
L 167.711777 236.165265 
L 168.134945 236.222889 
L 168.346529 227.155585 
L 168.769697 232.580235 
L 168.981281 230.607673 
L 169.616033 234.159641 
L 169.827617 234.628891 
L 170.039201 234.625042 
L 170.250785 234.899307 
L 170.462369 234.754235 
L 170.673953 235.288099 
L 171.308705 234.80438 
L 171.731873 235.49469 
L 171.943457 234.278452 
L 172.155041 234.904205 
L 172.366625 235.097319 
L 172.57821 234.959649 
L 172.789794 235.313223 
L 173.63613 235.827586 
L 174.69405 235.858568 
L 174.905634 235.917791 
L 175.117218 235.616919 
L 175.540386 235.923352 
L 176.175138 236.083036 
L 176.598306 236.131421 
L 176.80989 235.834695 
L 177.021474 235.836456 
L 177.444642 236.076876 
L 177.86781 236.13025 
L 178.079394 236.10937 
L 178.290979 235.795289 
L 178.925731 236.002423 
L 179.137315 235.973141 
L 179.772067 236.14956 
L 180.618403 236.169526 
L 181.464739 236.191193 
L 181.676323 236.17301 
L 181.887907 232.448322 
L 182.311075 234.826843 
L 182.522659 235.399274 
L 182.734243 235.514623 
L 183.157411 235.933074 
L 183.792163 236.118594 
L 184.6385 236.202026 
L 184.850084 235.791499 
L 185.273252 236.010402 
L 185.69642 236.096657 
L 185.908004 236.05152 
L 186.331172 236.166774 
L 188.447012 236.22937 
L 188.658596 235.242492 
L 189.081764 235.877139 
L 189.504932 236.118985 
L 189.928101 236.145798 
L 190.562853 236.185573 
L 190.774437 235.997322 
L 191.197605 236.159977 
L 191.620773 236.108741 
L 191.832357 235.793864 
L 193.101861 236.22932 
L 193.313445 236.238816 
L 193.525029 235.800409 
L 194.159781 236.164651 
L 195.006117 236.232921 
L 195.217701 235.958569 
L 195.429285 228.086835 
L 195.852454 233.273819 
L 196.275622 235.080284 
L 196.69879 235.142881 
L 196.910374 235.556588 
L 197.121958 235.539456 
L 198.179878 236.11152 
L 198.391462 236.168734 
L 198.603046 236.076518 
L 199.026214 236.122253 
L 199.237798 236.113248 
L 199.449382 235.970231 
L 199.87255 236.062121 
L 200.295718 236.121169 
L 201.565223 236.084046 
L 201.988391 236.169209 
L 202.199975 232.209555 
L 202.623143 234.701846 
L 203.046311 235.707397 
L 203.257895 235.759329 
L 203.469479 235.933337 
L 204.104231 235.840467 
L 204.315815 236.006701 
L 204.527399 235.912585 
L 205.585319 236.153166 
L 208.335912 236.206325 
L 208.547496 235.95009 
L 208.75908 236.081449 
L 208.970664 225.77042 
L 209.182248 229.777548 
L 209.817 234.527085 
L 210.240168 235.607208 
L 210.87492 236.082915 
L 211.509672 236.234192 
L 211.721256 235.882447 
L 211.93284 234.888348 
L 212.356008 235.740792 
L 212.567592 235.948541 
L 212.99076 235.928217 
L 213.837097 236.20453 
L 214.260265 236.196818 
L 214.471849 235.999581 
L 214.895017 236.115318 
L 215.106601 236.010064 
L 215.529769 236.154183 
L 215.741353 231.793681 
L 216.164521 234.330094 
L 216.587689 235.52223 
L 216.799273 235.481148 
L 217.222441 235.941665 
L 217.857193 236.169769 
L 218.491945 236.22595 
L 218.703529 236.225576 
L 218.915114 235.747591 
L 219.338282 236.065676 
L 219.76145 236.169387 
L 220.184618 236.065549 
L 220.81937 236.198592 
L 221.030954 236.061525 
L 221.454122 236.112219 
L 221.87729 236.142285 
L 222.300458 236.148562 
L 222.512042 220.341286 
L 222.93521 230.456164 
L 223.358378 234.181434 
L 223.781546 235.487021 
L 224.204714 235.888315 
L 224.416298 236.029726 
L 224.627882 235.943751 
L 225.051051 236.119002 
L 225.262635 235.535264 
L 225.685803 235.96001 
L 225.897387 236.053297 
L 226.108971 235.849448 
L 226.532139 236.113324 
L 226.955307 236.189233 
L 227.166891 236.109309 
L 227.378475 236.171147 
L 227.590059 235.692946 
L 227.801643 235.917141 
L 228.224811 236.078041 
L 229.071147 236.147494 
L 229.282731 232.944726 
L 229.705899 235.075163 
L 230.129067 235.768287 
L 230.340651 235.764451 
L 230.76382 236.080571 
L 230.975404 235.764846 
L 231.398572 236.088701 
L 232.244908 236.231747 
L 232.456492 236.019641 
L 232.87966 236.172918 
L 234.149164 236.107823 
L 234.360748 236.144378 
L 234.572332 235.776206 
L 234.9955 236.087405 
L 235.630252 236.196463 
L 236.05342 235.802253 
L 236.05342 235.802253 
" clip-path="url(#p48b87b6c41)" style="fill: none; stroke: #023eff; stroke-width: 1.5; stroke-linecap: round"/>
   </g>
   <g id="line2d_3">
    <path d="M 33.14433 176.549595 
L 33.355914 166.927845 
L 33.779082 109.650932 
L 33.990666 115.294301 
L 34.413834 151.3437 
L 34.837002 117.937812 
L 35.26017 101.784653 
L 35.471754 113.925432 
L 35.894922 156.198072 
L 36.106506 156.629464 
L 36.31809 168.853973 
L 36.529674 174.045342 
L 36.741258 173.478096 
L 37.164426 183.482448 
L 37.37601 184.973242 
L 37.587594 187.268986 
L 37.799178 187.486288 
L 38.010762 189.992004 
L 38.222346 190.370141 
L 38.43393 186.239002 
L 38.645514 187.338129 
L 38.857099 189.666173 
L 39.068683 190.628469 
L 39.280267 190.952906 
L 39.703435 193.264882 
L 39.915019 188.333793 
L 40.126603 188.891472 
L 40.338187 190.199398 
L 40.761355 195.174619 
L 40.972939 195.538981 
L 41.184523 197.176218 
L 41.396107 197.431749 
L 41.607691 198.484345 
L 41.819275 196.699433 
L 42.030859 196.926394 
L 42.242443 197.879727 
L 42.665611 198.644988 
L 43.300363 202.152376 
L 43.511947 202.003593 
L 43.723531 201.211596 
L 43.935115 201.980606 
L 44.146699 201.437879 
L 44.358283 196.22052 
L 44.569868 197.964926 
L 44.781452 201.155054 
L 44.993036 200.833056 
L 45.20462 202.490613 
L 45.627788 200.879684 
L 45.839372 202.88207 
L 46.050956 200.639716 
L 46.26254 202.927906 
L 46.474124 174.057637 
L 46.685708 177.032769 
L 46.897292 178.361927 
L 47.532044 190.16381 
L 47.743628 190.403221 
L 48.166796 194.727815 
L 48.37838 198.104697 
L 48.589964 194.974346 
L 49.013132 199.624547 
L 49.224716 201.735891 
L 49.647884 202.370219 
L 49.859468 205.526331 
L 50.071052 206.521918 
L 50.282636 208.21704 
L 50.494221 208.223997 
L 50.705805 210.374499 
L 50.917389 210.679664 
L 51.128973 210.709743 
L 51.340557 211.444429 
L 51.552141 211.435902 
L 51.763725 211.551048 
L 51.975309 208.702572 
L 52.186893 209.713604 
L 52.398477 208.795701 
L 52.610061 203.17733 
L 52.821645 204.816049 
L 53.033229 201.783649 
L 53.244813 196.452364 
L 53.456397 196.891684 
L 54.091149 203.479667 
L 54.302733 200.356873 
L 54.514317 202.501222 
L 54.725901 202.302201 
L 55.149069 206.97896 
L 55.360653 205.089062 
L 55.572237 206.99609 
L 55.783821 200.674606 
L 56.418574 206.872371 
L 56.630158 206.704895 
L 56.841742 208.849459 
L 57.053326 208.619903 
L 57.476494 212.019101 
L 57.688078 213.371192 
L 57.899662 213.588463 
L 58.32283 215.064287 
L 58.745998 213.931504 
L 58.957582 211.181498 
L 59.169166 212.834077 
L 59.38075 211.541384 
L 59.592334 213.092788 
L 59.803918 212.380193 
L 60.015502 199.430823 
L 60.227086 206.22613 
L 60.861838 211.921582 
L 61.073422 212.582878 
L 61.49659 216.952772 
L 61.919758 214.582818 
L 62.131343 215.922828 
L 62.342927 218.271699 
L 62.554511 218.769928 
L 62.766095 218.605616 
L 62.977679 220.157946 
L 63.189263 219.246365 
L 63.400847 220.2377 
L 63.612431 222.717661 
L 63.824015 222.448818 
L 64.035599 221.491296 
L 64.458767 222.093486 
L 64.670351 223.203644 
L 65.093519 223.322612 
L 65.516687 225.114662 
L 65.728271 215.213308 
L 65.939855 220.042124 
L 66.151439 219.499068 
L 66.363023 221.752896 
L 66.574607 222.387656 
L 66.786191 210.965582 
L 66.997775 217.776196 
L 67.209359 217.964203 
L 67.844112 222.966369 
L 68.055696 223.698206 
L 68.478864 226.196988 
L 68.690448 225.895949 
L 69.113616 228.013608 
L 69.3252 228.049436 
L 69.536784 228.262097 
L 69.748368 228.173101 
L 69.959952 227.339194 
L 70.171536 228.476454 
L 70.38312 228.761376 
L 70.594704 228.129831 
L 71.017872 228.47054 
L 71.229456 229.509468 
L 71.44104 229.735091 
L 71.652624 228.697606 
L 72.075792 231.851814 
L 72.287376 231.705912 
L 72.49896 231.875649 
L 72.710544 231.136999 
L 73.133712 231.590164 
L 73.345296 230.2383 
L 73.55688 222.051977 
L 73.768465 222.667323 
L 73.980049 225.470202 
L 74.191633 226.642758 
L 74.403217 228.953083 
L 74.614801 222.68361 
L 75.037969 228.043996 
L 75.249553 227.880993 
L 75.461137 228.743945 
L 75.672721 228.404323 
L 75.884305 228.537254 
L 76.095889 225.657867 
L 76.519057 229.989054 
L 76.730641 230.698497 
L 76.942225 230.931204 
L 77.153809 230.968216 
L 77.365393 231.853202 
L 77.576977 232.127813 
L 77.788561 231.087711 
L 78.000145 230.800055 
L 78.211729 229.828255 
L 78.423313 230.887865 
L 78.634897 231.090446 
L 79.058065 232.176692 
L 79.269649 232.047876 
L 79.481234 230.511581 
L 79.692818 231.981442 
L 79.904402 231.827815 
L 80.115986 231.815365 
L 80.32757 219.074127 
L 80.750738 226.692558 
L 80.962322 227.694777 
L 81.173906 227.896131 
L 81.38549 229.638244 
L 81.597074 230.357577 
L 81.808658 231.916563 
L 82.231826 232.9389 
L 82.44341 232.846393 
L 82.654994 231.491186 
L 82.866578 232.131983 
L 83.078162 232.104367 
L 83.289746 232.953717 
L 83.50133 233.313298 
L 83.924498 234.413518 
L 84.136082 234.81577 
L 84.55925 235.053071 
L 84.770834 235.033618 
L 84.982418 234.804157 
L 85.194003 234.969231 
L 85.405587 234.622377 
L 85.617171 234.941236 
L 85.828755 234.654941 
L 86.040339 228.589253 
L 86.463507 231.589813 
L 86.675091 231.402721 
L 86.886675 232.325112 
L 87.098259 227.817948 
L 87.309843 225.684896 
L 87.944595 231.970005 
L 88.156179 232.065068 
L 88.579347 233.501204 
L 88.790931 233.407249 
L 89.002515 233.008935 
L 89.214099 229.755007 
L 89.637267 232.8664 
L 89.848851 233.368905 
L 90.060435 234.165818 
L 90.272019 234.002715 
L 90.695187 234.578122 
L 90.906771 234.311126 
L 91.118356 233.83337 
L 91.32994 234.011313 
L 91.541524 233.335324 
L 91.964692 234.732454 
L 92.176276 232.268019 
L 92.599444 234.431122 
L 92.811028 234.376844 
L 93.022612 233.590543 
L 93.44578 234.143683 
L 93.657364 233.753845 
L 93.868948 219.806424 
L 94.292116 228.834105 
L 94.715284 232.797897 
L 95.350036 234.350986 
L 95.56162 234.893877 
L 95.773204 234.57522 
L 96.407956 235.38592 
L 96.61954 235.096611 
L 97.042709 235.092935 
L 97.254293 233.658064 
L 97.677461 235.002589 
L 98.312213 235.085751 
L 98.523797 234.889137 
L 98.946965 235.370626 
L 99.158549 235.498631 
L 99.370133 235.157955 
L 99.793301 235.569294 
L 100.004885 234.76328 
L 100.216469 235.318955 
L 100.428053 235.358584 
L 100.639637 231.009981 
L 100.851221 231.588075 
L 101.274389 233.841859 
L 101.485973 234.024034 
L 101.697557 234.672427 
L 102.120725 232.935435 
L 102.332309 233.658629 
L 102.543893 233.577541 
L 102.755478 234.158771 
L 102.967062 233.093975 
L 103.178646 233.221247 
L 103.39023 232.808783 
L 103.601814 233.832886 
L 103.813398 234.15776 
L 104.024982 233.662821 
L 104.236566 233.481782 
L 105.082902 234.961157 
L 105.294486 235.385627 
L 105.50607 234.305455 
L 105.929238 235.28869 
L 106.140822 235.370641 
L 106.56399 235.800677 
L 106.775574 235.728839 
L 106.987158 235.249411 
L 107.198742 235.582662 
L 107.410326 220.055146 
L 107.833494 227.112108 
L 108.045078 226.677319 
L 108.468247 231.909807 
L 108.891415 234.019967 
L 109.102999 234.466258 
L 109.314583 234.070495 
L 109.526167 234.604422 
L 109.737751 231.954564 
L 110.372503 234.591671 
L 110.584087 235.176051 
L 111.218839 235.627802 
L 111.430423 235.58039 
L 111.642007 235.735328 
L 111.853591 235.301918 
L 112.276759 235.682838 
L 112.488343 234.505171 
L 112.699927 234.767552 
L 112.911511 235.26737 
L 113.123095 234.860943 
L 113.334679 235.403729 
L 113.546263 235.251791 
L 113.969431 235.657582 
L 114.181015 226.544315 
L 114.3926 228.437647 
L 114.604184 231.498146 
L 114.815768 231.67949 
L 115.027352 233.249546 
L 115.238936 233.787413 
L 115.45052 233.40576 
L 115.662104 234.120321 
L 115.873688 233.335812 
L 116.296856 234.981711 
L 116.931608 235.01645 
L 117.143192 234.63919 
L 117.56636 235.408087 
L 117.777944 235.297934 
L 117.989528 235.609981 
L 118.201112 235.36552 
L 118.412696 232.359617 
L 118.835864 234.607724 
L 119.047448 234.956676 
L 119.259032 234.836222 
L 119.6822 235.586717 
L 120.105369 235.813666 
L 120.316953 234.262669 
L 120.740121 235.476956 
L 120.951705 227.086314 
L 121.374873 231.932864 
L 121.586457 232.426456 
L 122.009625 234.498241 
L 122.221209 235.038472 
L 122.855961 235.552989 
L 123.067545 234.788498 
L 123.279129 235.159077 
L 123.490713 235.239173 
L 123.702297 235.007665 
L 123.913881 235.340836 
L 124.125465 235.307992 
L 124.337049 235.587445 
L 124.548633 234.879475 
L 124.971801 235.614075 
L 125.394969 235.280628 
L 125.606553 234.584845 
L 126.029722 235.579627 
L 126.45289 235.889793 
L 126.664474 235.223028 
L 126.876058 235.324662 
L 127.087642 235.644864 
L 127.51081 235.870678 
L 127.722394 233.196713 
L 128.145562 234.999066 
L 128.56873 235.603578 
L 129.203482 235.850085 
L 129.415066 235.622216 
L 129.62665 235.865579 
L 129.838234 235.372889 
L 130.049818 235.686216 
L 130.472986 235.281111 
L 130.896154 235.832137 
L 131.107738 235.833126 
L 131.530906 236.07086 
L 132.165659 236.123334 
L 132.800411 236.112698 
L 133.011995 235.623922 
L 133.223579 235.844315 
L 133.435163 235.378977 
L 133.858331 235.828957 
L 134.069915 235.859788 
L 134.281499 235.776721 
L 134.493083 230.205724 
L 134.704667 232.254297 
L 135.127835 233.678131 
L 135.339419 233.937914 
L 135.551003 233.655663 
L 135.974171 234.954756 
L 136.185755 234.648394 
L 136.397339 235.174635 
L 136.608923 234.952788 
L 137.032091 235.658955 
L 137.243675 235.860399 
L 137.455259 235.856814 
L 137.666844 235.040498 
L 138.090012 235.741089 
L 138.51318 235.999614 
L 138.724764 235.519723 
L 138.936348 235.797352 
L 139.147932 235.891233 
L 139.359516 235.842108 
L 139.5711 235.980761 
L 139.994268 235.94903 
L 140.205852 236.059274 
L 140.417436 235.877565 
L 140.62902 236.021331 
L 140.840604 235.921812 
L 141.052188 236.032472 
L 141.263772 215.967759 
L 141.68694 228.243016 
L 141.898524 231.091033 
L 142.110108 231.298655 
L 142.533276 234.08939 
L 142.74486 233.951474 
L 142.956444 234.517154 
L 143.168028 234.225932 
L 143.591197 235.362435 
L 144.014365 235.834908 
L 144.225949 235.25711 
L 144.649117 235.646663 
L 144.860701 235.654979 
L 145.072285 235.347944 
L 145.495453 235.745269 
L 145.707037 235.787137 
L 145.918621 235.684368 
L 146.130205 235.739079 
L 146.341789 234.170051 
L 146.553373 234.80521 
L 146.764957 234.790068 
L 146.976541 235.36973 
L 147.611293 235.948412 
L 147.822877 236.042748 
L 148.034461 231.643653 
L 148.457629 234.166951 
L 148.880797 235.194493 
L 149.092381 235.474622 
L 149.303966 235.563272 
L 149.51555 235.795061 
L 151.208222 235.886446 
L 151.63139 235.999231 
L 151.842974 235.647534 
L 152.477726 236.006587 
L 152.68931 236.10024 
L 153.112478 236.072068 
L 153.324062 235.179821 
L 153.74723 235.795194 
L 154.593566 236.075662 
L 154.80515 234.235584 
L 155.016735 234.493614 
L 155.439903 235.180133 
L 155.651487 235.601226 
L 155.863071 235.467965 
L 156.497823 235.900207 
L 157.132575 236.089638 
L 157.767327 235.993103 
L 157.978911 235.832628 
L 158.190495 235.863934 
L 158.402079 235.777115 
L 158.613663 235.915439 
L 158.825247 235.901505 
L 159.036831 236.01954 
L 159.248415 235.664058 
L 159.671583 236.010355 
L 159.883167 235.931231 
L 160.094751 236.0287 
L 160.306335 235.732826 
L 160.729503 236.004777 
L 160.941088 235.509807 
L 161.364256 235.902651 
L 161.57584 232.328438 
L 161.999008 234.745422 
L 162.422176 235.550917 
L 162.63376 235.623708 
L 163.056928 235.919603 
L 163.69168 235.947789 
L 163.903264 235.068158 
L 164.326432 235.695343 
L 164.538016 235.595636 
L 164.7496 235.75001 
L 164.961184 235.624696 
L 165.384352 236.001988 
L 165.595936 236.064423 
L 165.80752 235.714173 
L 166.230688 235.963449 
L 167.923361 236.142693 
L 168.134945 236.084527 
L 168.346529 229.957971 
L 168.769697 233.943988 
L 169.192865 235.170738 
L 169.616033 235.655657 
L 169.827617 235.034083 
L 170.462369 235.876253 
L 170.885537 236.08151 
L 171.097121 236.008627 
L 171.520289 236.076692 
L 171.731873 235.852715 
L 171.943457 235.997895 
L 172.366625 235.860035 
L 172.789794 236.042584 
L 173.001378 235.924841 
L 173.424546 236.080693 
L 173.63613 235.988093 
L 174.905634 236.150581 
L 175.117218 235.074657 
L 175.328802 235.480053 
L 175.540386 234.790359 
L 175.963554 235.662527 
L 176.386722 236.005586 
L 177.021474 236.14152 
L 177.444642 236.146911 
L 177.656226 236.18219 
L 177.86781 235.653651 
L 178.290979 236.004185 
L 178.714147 236.113744 
L 179.772067 236.153225 
L 179.983651 236.030714 
L 180.406819 236.16051 
L 180.829987 236.173133 
L 181.041571 236.196428 
L 181.464739 235.809061 
L 181.676323 235.929371 
L 181.887907 232.299895 
L 182.311075 234.813646 
L 182.734243 235.670731 
L 182.945827 235.885114 
L 183.368995 235.979186 
L 183.792163 236.130801 
L 184.215332 236.148227 
L 185.061668 236.210582 
L 185.273252 236.234603 
L 185.69642 235.847724 
L 186.119588 236.081231 
L 186.331172 236.118252 
L 186.542756 235.937184 
L 187.177508 236.181193 
L 187.389092 236.186904 
L 187.600676 235.946515 
L 188.023844 236.134776 
L 188.235428 236.03924 
L 188.447012 236.080043 
L 188.658596 234.326614 
L 189.081764 235.538448 
L 189.293348 235.82549 
L 189.504932 235.474782 
L 189.716516 235.76216 
L 190.139685 235.965676 
L 190.562853 236.12181 
L 191.197605 236.191856 
L 191.620773 236.157403 
L 191.832357 236.185793 
L 192.043941 236.078077 
L 192.255525 236.144032 
L 192.467109 236.04599 
L 192.890277 236.166638 
L 193.525029 236.121423 
L 194.159781 236.19547 
L 194.582949 236.101145 
L 195.217701 236.219576 
L 195.429285 233.184225 
L 195.852454 235.128804 
L 196.275622 235.76175 
L 196.910374 236.118732 
L 197.545126 236.146712 
L 198.179878 236.178741 
L 198.81463 235.967104 
L 199.237798 236.079843 
L 199.449382 234.86618 
L 199.87255 235.727187 
L 200.295718 236.044928 
L 200.507302 235.688564 
L 200.93047 235.994227 
L 201.142054 236.10135 
L 201.353638 236.023672 
L 201.565223 236.122457 
L 201.988391 236.157728 
L 202.199975 235.581834 
L 202.623143 235.904139 
L 203.046311 236.114614 
L 203.257895 236.034473 
L 203.892647 236.183001 
L 205.162151 236.188699 
L 205.796903 236.017863 
L 206.008487 235.851073 
L 206.220071 234.826444 
L 206.643239 235.69942 
L 207.066407 236.031432 
L 207.489576 236.160021 
L 207.70116 235.887007 
L 208.124328 236.123435 
L 208.547496 236.146951 
L 208.75908 236.102638 
L 208.970664 228.217253 
L 209.393832 233.210709 
L 209.817 235.112131 
L 210.240168 234.478542 
L 210.451752 235.193435 
L 210.663336 234.981419 
L 211.086504 235.761374 
L 211.509672 236.080391 
L 211.93284 236.164962 
L 212.356008 236.158042 
L 212.567592 235.958665 
L 212.99076 236.102652 
L 213.202345 236.026398 
L 214.048681 236.196263 
L 215.318185 236.206929 
L 215.741353 235.840813 
L 216.164521 236.103574 
L 216.376105 236.064944 
L 216.587689 235.656597 
L 217.010857 235.988702 
L 217.645609 236.156326 
L 218.280361 236.21686 
L 219.76145 236.228945 
L 220.81937 236.224251 
L 221.030954 235.682926 
L 221.242538 235.870892 
L 221.454122 235.900804 
L 221.87729 236.120055 
L 222.300458 236.17592 
L 222.512042 228.072901 
L 222.93521 233.276431 
L 223.358378 235.130676 
L 223.781546 235.791622 
L 224.839467 236.155278 
L 225.685803 236.2104 
L 225.897387 235.910952 
L 226.320555 236.104622 
L 226.743723 236.161479 
L 226.955307 235.801275 
L 227.378475 236.078869 
L 228.013227 236.142924 
L 228.647979 236.174374 
L 229.071147 236.137557 
L 229.282731 232.871154 
L 229.705899 234.962937 
L 230.129067 235.728095 
L 230.76382 236.093806 
L 232.033324 236.204292 
L 233.091244 236.165051 
L 234.572332 236.1702 
L 235.418668 236.244006 
L 235.841836 236.21776 
L 236.05342 232.309736 
L 236.05342 232.309736 
" clip-path="url(#p48b87b6c41)" style="fill: none; stroke: #1ac938; stroke-width: 1.5; stroke-linecap: round"/>
   </g>
   <g id="line2d_4">
    <path d="M 33.14433 176.326721 
L 33.355914 175.068302 
L 33.779082 54.795292 
L 33.990666 67.934755 
L 34.413834 77.31663 
L 35.26017 149.649559 
L 35.683338 168.397643 
L 36.31809 180.509925 
L 36.529674 179.894325 
L 36.741258 180.296052 
L 38.010762 193.032344 
L 38.222346 193.6891 
L 38.43393 191.1267 
L 38.857099 194.041036 
L 39.280267 200.730898 
L 39.491851 200.127727 
L 39.703435 200.882292 
L 39.915019 198.570787 
L 40.126603 199.340233 
L 40.338187 201.928185 
L 40.972939 204.910491 
L 41.184523 208.358274 
L 41.396107 208.631981 
L 41.819275 211.216464 
L 42.242443 210.95966 
L 42.877195 216.353647 
L 43.088779 215.395885 
L 43.300363 215.735463 
L 43.511947 213.399337 
L 43.723531 212.861488 
L 43.935115 208.973233 
L 44.146699 208.508837 
L 44.358283 206.985243 
L 44.569868 211.681393 
L 44.781452 213.792616 
L 44.993036 213.761442 
L 45.20462 215.907911 
L 45.416204 214.59534 
L 45.627788 216.420366 
L 45.839372 215.924895 
L 46.26254 218.597758 
L 46.474124 203.994375 
L 47.108876 213.881223 
L 47.532044 218.75844 
L 48.166796 221.307487 
L 48.589964 222.032879 
L 48.801548 221.649788 
L 49.013132 223.930787 
L 49.224716 224.070435 
L 49.4363 224.446355 
L 49.859468 227.583267 
L 50.071052 226.987537 
L 50.282636 227.868025 
L 50.494221 228.03568 
L 50.917389 227.776099 
L 51.128973 229.607509 
L 51.340557 228.409999 
L 51.552141 228.562648 
L 51.763725 229.206937 
L 51.975309 228.088284 
L 52.186893 227.593148 
L 52.398477 228.318448 
L 52.610061 229.599205 
L 53.033229 228.439007 
L 53.244813 207.538598 
L 53.456397 208.228278 
L 53.667981 215.134767 
L 54.302733 224.265189 
L 54.514317 225.925584 
L 54.725901 226.444959 
L 54.937485 227.698341 
L 55.572237 229.516862 
L 55.995405 228.165518 
L 56.20699 230.26881 
L 56.418574 231.170597 
L 56.630158 230.205545 
L 56.841742 231.689076 
L 57.053326 230.528599 
L 57.26491 232.051335 
L 57.688078 233.057302 
L 58.111246 232.194358 
L 58.32283 232.691948 
L 58.534414 232.709141 
L 58.957582 234.546458 
L 59.169166 234.062971 
L 59.592334 233.768387 
L 59.803918 232.037801 
L 60.015502 218.63006 
L 60.227086 224.686496 
L 60.43867 223.177638 
L 60.861838 229.400359 
L 61.285006 231.88935 
L 61.708174 231.025964 
L 61.919758 231.890094 
L 62.131343 230.455204 
L 62.342927 232.242738 
L 62.554511 232.405212 
L 62.766095 232.405619 
L 62.977679 233.588744 
L 63.824015 234.971143 
L 64.035599 234.851933 
L 64.247183 235.237674 
L 64.458767 235.035036 
L 64.670351 235.272148 
L 64.881935 233.576671 
L 65.093519 234.506771 
L 65.516687 235.042229 
L 65.728271 234.458558 
L 66.363023 235.111539 
L 66.574607 232.027732 
L 66.786191 220.081678 
L 67.209359 228.920243 
L 67.632527 232.350878 
L 68.055696 232.789721 
L 68.478864 234.07174 
L 68.690448 234.497472 
L 68.902032 233.879511 
L 69.113616 234.209818 
L 69.3252 233.882078 
L 69.959952 235.122623 
L 70.171536 234.641117 
L 70.38312 235.092038 
L 70.594704 233.909119 
L 70.806288 234.560997 
L 71.229456 235.288724 
L 71.44104 234.869866 
L 71.652624 235.017033 
L 71.864208 234.501179 
L 72.287376 235.369053 
L 72.710544 235.719242 
L 72.922128 235.25188 
L 73.345296 235.671047 
L 73.55688 232.638964 
L 73.768465 233.91423 
L 73.980049 232.064428 
L 74.191633 232.755942 
L 74.614801 234.612967 
L 74.826385 235.010978 
L 75.037969 234.972762 
L 75.249553 234.017499 
L 75.461137 234.773511 
L 75.672721 234.590953 
L 75.884305 235.080039 
L 76.095889 235.208952 
L 76.307473 234.991029 
L 76.519057 235.464728 
L 76.942225 235.827698 
L 77.365393 234.187815 
L 77.788561 235.408784 
L 78.000145 235.546506 
L 78.211729 235.440518 
L 78.846481 235.759914 
L 79.058065 235.52324 
L 79.481234 235.8992 
L 79.904402 235.990898 
L 80.115986 234.820591 
L 80.32757 224.578926 
L 80.750738 230.184477 
L 80.962322 231.111022 
L 81.173906 232.570563 
L 81.38549 231.872105 
L 81.597074 233.199828 
L 81.808658 232.375013 
L 82.020242 231.068949 
L 82.44341 233.771257 
L 82.866578 234.731613 
L 83.078162 234.810079 
L 83.289746 235.159461 
L 83.712914 235.355308 
L 84.136082 235.530191 
L 84.347666 235.372841 
L 84.55925 235.366684 
L 84.770834 235.580479 
L 84.982418 235.333759 
L 85.194003 235.542924 
L 85.405587 234.484944 
L 85.617171 234.433968 
L 86.040339 235.305996 
L 86.251923 235.062269 
L 86.463507 235.366418 
L 86.675091 235.375694 
L 86.886675 235.497932 
L 87.098259 228.140875 
L 87.521427 232.63198 
L 87.733011 233.914976 
L 87.944595 233.676004 
L 88.367763 234.72299 
L 89.214099 235.563454 
L 89.425683 234.83995 
L 89.637267 234.803582 
L 89.848851 235.327729 
L 90.060435 235.542597 
L 90.272019 235.594334 
L 90.695187 235.937209 
L 90.906771 235.135853 
L 91.118356 235.529485 
L 91.32994 235.616981 
L 91.541524 235.297922 
L 92.176276 235.930466 
L 92.38786 235.732671 
L 92.599444 235.871421 
L 93.022612 235.73771 
L 93.234196 235.166033 
L 93.44578 235.532635 
L 93.657364 234.338464 
L 93.868948 228.520228 
L 94.292116 232.369706 
L 94.715284 231.055265 
L 95.350036 234.094217 
L 95.773204 234.092468 
L 95.984788 234.234232 
L 96.196372 232.353058 
L 96.61954 234.636745 
L 96.831125 235.053964 
L 97.042709 235.001396 
L 97.677461 235.681182 
L 97.889045 235.636351 
L 98.100629 235.721787 
L 98.523797 235.600526 
L 98.735381 235.087461 
L 98.946965 235.398287 
L 99.158549 234.514386 
L 99.370133 235.149425 
L 99.581717 234.330067 
L 99.793301 234.92231 
L 100.216469 235.334493 
L 100.428053 235.610825 
L 100.639637 217.212668 
L 101.062805 227.971702 
L 101.485973 232.181121 
L 101.697557 232.524853 
L 102.332309 234.69755 
L 102.543893 234.573049 
L 102.755478 234.649724 
L 103.178646 235.165551 
L 103.601814 235.02627 
L 104.024982 235.5997 
L 104.236566 235.099979 
L 104.659734 235.631111 
L 105.082902 235.699304 
L 105.50607 235.990465 
L 105.929238 235.814012 
L 106.140822 235.990229 
L 106.352406 235.978838 
L 106.56399 235.484223 
L 106.775574 235.710834 
L 107.198742 235.916505 
L 107.410326 235.368592 
L 107.833494 235.908385 
L 108.256662 236.04596 
L 108.891415 236.135911 
L 110.160919 235.997893 
L 110.584087 236.11806 
L 110.795671 236.033848 
L 111.218839 236.140907 
L 111.642007 236.171251 
L 111.853591 236.218633 
L 112.065175 236.096734 
L 112.911511 236.210578 
L 113.123095 236.107009 
L 113.546263 236.172091 
L 113.757847 235.971881 
L 113.969431 236.089289 
L 114.181015 232.880036 
L 114.604184 235.029258 
L 115.027352 235.733004 
L 115.45052 235.91967 
L 115.873688 236.050381 
L 116.296856 236.107968 
L 116.50844 235.619289 
L 116.720024 235.86831 
L 116.931608 235.884147 
L 117.143192 235.781165 
L 117.354776 235.255079 
L 117.777944 234.888577 
L 117.989528 235.424947 
L 118.201112 235.373266 
L 118.412696 235.678814 
L 118.62428 235.701942 
L 119.047448 236.013343 
L 119.259032 235.815454 
L 119.893784 236.133766 
L 120.528537 236.212819 
L 120.740121 236.110298 
L 120.951705 234.026311 
L 121.798041 235.712108 
L 122.432793 235.911556 
L 122.644377 236.038285 
L 122.855961 235.636414 
L 123.067545 235.785097 
L 123.279129 235.366931 
L 123.913881 235.93331 
L 124.548633 236.167989 
L 124.760217 236.031346 
L 124.971801 236.12033 
L 125.183385 235.799322 
L 125.606553 236.003616 
L 125.818137 235.878424 
L 126.029722 236.035907 
L 126.241306 235.645158 
L 126.876058 236.120341 
L 127.299226 236.174677 
L 127.51081 236.1987 
L 127.722394 232.983378 
L 128.145562 235.050037 
L 128.56873 235.793944 
L 128.780314 232.753687 
L 128.991898 234.120229 
L 129.415066 235.161728 
L 129.62665 234.826576 
L 129.838234 234.792865 
L 130.049818 233.89191 
L 130.472986 235.296425 
L 130.896154 235.884409 
L 131.107738 235.980862 
L 131.530906 235.87293 
L 132.377243 236.063353 
L 132.588827 235.855183 
L 133.011995 235.734916 
L 133.435163 236.060575 
L 134.069915 236.179275 
L 134.281499 236.147461 
L 134.493083 234.519487 
L 134.704667 235.178064 
L 135.551003 236.00088 
L 135.762587 235.478152 
L 136.185755 235.863523 
L 136.608923 236.09718 
L 136.820507 235.972557 
L 137.666844 236.202373 
L 137.878428 236.186898 
L 138.090012 235.571364 
L 138.301596 235.664995 
L 138.724764 236.011769 
L 139.147932 236.105675 
L 139.359516 235.846472 
L 139.782684 236.110397 
L 140.417436 236.230011 
L 140.840604 236.183883 
L 141.052188 236.168175 
L 141.263772 228.439362 
L 141.68694 233.410871 
L 142.110108 235.144611 
L 142.321692 235.512602 
L 142.533276 235.298118 
L 142.956444 235.88463 
L 143.379613 231.167104 
L 143.802781 234.298682 
L 144.014365 235.058894 
L 144.225949 235.21586 
L 144.437533 235.538 
L 144.649117 235.606235 
L 144.860701 235.03644 
L 145.283869 235.728948 
L 145.707037 235.825021 
L 146.130205 235.97257 
L 146.341789 235.726222 
L 146.764957 235.986723 
L 146.976541 236.013083 
L 147.188125 234.811315 
L 147.611293 235.672554 
L 147.822877 235.760112 
L 148.034461 233.858979 
L 148.457629 235.269761 
L 148.880797 235.771331 
L 149.092381 235.878462 
L 149.727134 235.863568 
L 150.361886 235.956412 
L 150.996638 236.12671 
L 151.842974 236.165301 
L 152.266142 235.794325 
L 152.477726 235.97752 
L 153.112478 236.022345 
L 153.958814 236.139185 
L 154.381982 235.970283 
L 154.593566 236.040614 
L 154.80515 235.380383 
L 155.228319 235.946525 
L 155.863071 236.191862 
L 157.344159 236.234883 
L 157.555743 235.839334 
L 158.825247 236.236134 
L 160.306335 236.133474 
L 160.517919 236.032027 
L 160.729503 236.11341 
L 160.941088 236.038985 
L 161.152672 236.125662 
L 161.364256 235.99174 
L 161.57584 234.710257 
L 161.787424 235.338297 
L 162.210592 235.78287 
L 162.422176 235.365445 
L 163.056928 235.950221 
L 163.903264 236.128963 
L 164.114848 236.056993 
L 164.538016 236.17742 
L 164.961184 236.208508 
L 165.172768 235.671236 
L 165.80752 236.126458 
L 166.019104 236.163786 
L 166.230688 236.065621 
L 167.077025 236.201437 
L 168.134945 236.240648 
L 168.346529 226.108259 
L 168.769697 232.450125 
L 169.192865 234.886127 
L 169.616033 235.733471 
L 170.673953 236.105278 
L 170.885537 236.112337 
L 171.097121 235.805595 
L 171.308705 235.955113 
L 171.520289 235.593391 
L 171.731873 235.610152 
L 171.943457 235.835454 
L 172.155041 235.704682 
L 172.57821 236.014748 
L 173.001378 236.154134 
L 173.212962 235.989976 
L 173.847714 236.085873 
L 174.059298 236.140482 
L 174.270882 235.306729 
L 174.482466 235.689001 
L 174.69405 235.43866 
L 174.905634 235.617831 
L 175.117218 234.976535 
L 175.540386 235.788515 
L 175.963554 235.991977 
L 176.598306 236.193495 
L 177.233058 236.214873 
L 177.656226 236.183489 
L 178.290979 236.23586 
L 178.925731 236.241854 
L 179.137315 236.254862 
L 179.348899 234.91091 
L 179.772067 235.751637 
L 180.195235 236.078441 
L 180.406819 236.157413 
L 180.829987 236.020912 
L 181.253155 236.152673 
L 181.464739 236.193426 
L 181.887907 235.795984 
L 182.522659 236.150849 
L 182.945827 236.209622 
L 183.157411 235.713638 
L 183.580579 236.036191 
L 184.215332 236.216729 
L 184.426916 236.237842 
L 184.6385 235.920088 
L 185.273252 236.196006 
L 188.447012 236.244991 
L 188.658596 235.902688 
L 190.351269 236.224229 
L 190.986021 236.268013 
L 191.197605 235.739099 
L 191.620773 236.064563 
L 192.255525 236.230838 
L 192.678693 236.267288 
L 192.890277 236.140736 
L 193.948197 236.268519 
L 194.371365 236.27119 
L 194.582949 236.098502 
L 195.217701 236.220166 
L 195.429285 235.506513 
L 195.852454 235.98891 
L 196.275622 236.180044 
L 197.968294 236.26261 
L 198.603046 236.249947 
L 198.81463 235.960558 
L 199.449382 236.185619 
L 200.295718 236.25991 
L 200.507302 235.721224 
L 200.93047 236.026058 
L 201.142054 236.122992 
L 201.353638 235.895603 
L 201.776807 236.144688 
L 201.988391 236.199255 
L 202.199975 235.703828 
L 202.623143 236.054678 
L 203.257895 236.21563 
L 204.527399 236.248682 
L 204.738983 235.683673 
L 204.950567 235.919505 
L 206.008487 236.153677 
L 206.220071 234.798594 
L 206.431655 234.582968 
L 206.854823 235.651767 
L 207.277992 235.962911 
L 207.912744 236.203335 
L 208.75908 236.243504 
L 208.970664 236.030584 
L 209.605416 236.218892 
L 210.240168 236.239409 
L 210.451752 236.094092 
L 211.721256 236.206731 
L 211.93284 235.924008 
L 212.779176 236.221525 
L 213.413929 236.218157 
L 213.625513 236.061597 
L 214.048681 236.201155 
L 214.260265 236.087893 
L 214.895017 236.201307 
L 215.106601 236.231581 
L 215.318185 236.069651 
L 215.529769 236.143164 
L 215.741353 231.122634 
L 216.164521 234.416697 
L 216.376105 234.757547 
L 216.587689 235.335858 
L 216.799273 235.492129 
L 217.222441 235.993036 
L 217.645609 236.179764 
L 217.857193 236.11724 
L 218.491945 236.219151 
L 221.242538 236.26333 
L 221.454122 235.945103 
L 221.665706 236.071726 
L 221.87729 236.062589 
L 222.088874 235.698263 
L 222.300458 235.883535 
L 222.512042 234.353652 
L 222.93521 235.558593 
L 223.358378 236.006432 
L 223.569962 235.939348 
L 223.99313 236.154274 
L 226.108971 236.269156 
L 226.320555 236.185085 
L 226.955307 236.26523 
L 227.166891 236.13277 
L 227.801643 236.214458 
L 229.071147 236.242691 
L 229.282731 234.458457 
L 229.705899 235.547499 
L 230.129067 236.013418 
L 230.975404 236.224986 
L 232.456492 236.265425 
L 233.93758 236.248858 
L 234.149164 235.773377 
L 234.572332 236.050787 
L 235.207084 236.231722 
L 235.630252 236.254772 
L 235.841836 236.138162 
L 236.05342 235.22217 
L 236.05342 235.22217 
" clip-path="url(#p48b87b6c41)" style="fill: none; stroke: #ffa500; stroke-width: 1.5; stroke-linecap: round"/>
   </g>
   <g id="patch_3">
    <path d="M 22.998875 246.357656 
L 22.998875 24.597656 
" style="fill: none; stroke: #262626; stroke-width: 1.25; stroke-linejoin: miter; stroke-linecap: square"/>
   </g>
   <g id="patch_4">
    <path d="M 246.198875 246.357656 
L 246.198875 24.597656 
" style="fill: none; stroke: #262626; stroke-width: 1.25; stroke-linejoin: miter; stroke-linecap: square"/>
   </g>
   <g id="patch_5">
    <path d="M 22.998875 246.357656 
L 246.198875 246.357656 
" style="fill: none; stroke: #262626; stroke-width: 1.25; stroke-linejoin: miter; stroke-linecap: square"/>
   </g>
   <g id="patch_6">
    <path d="M 22.998875 24.597656 
L 246.198875 24.597656 
" style="fill: none; stroke: #262626; stroke-width: 1.25; stroke-linejoin: miter; stroke-linecap: square"/>
   </g>
   <g id="text_14">
    <!-- Loss -->
    <g style="fill: #262626" transform="translate(118.148094 18.597656)scale(0.15 -0.15)">
     <defs>
      <path id="DejaVuSans-4c" d="M 628 4666 
L 1259 4666 
L 1259 531 
L 3531 531 
L 3531 0 
L 628 0 
L 628 4666 
z
" transform="scale(0.015625)"/>
      <path id="DejaVuSans-6f" d="M 1959 3097 
Q 1497 3097 1228 2736 
Q 959 2375 959 1747 
Q 959 1119 1226 758 
Q 1494 397 1959 397 
Q 2419 397 2687 759 
Q 2956 1122 2956 1747 
Q 2956 2369 2687 2733 
Q 2419 3097 1959 3097 
z
M 1959 3584 
Q 2709 3584 3137 3096 
Q 3566 2609 3566 1747 
Q 3566 888 3137 398 
Q 2709 -91 1959 -91 
Q 1206 -91 779 398 
Q 353 888 353 1747 
Q 353 2609 779 3096 
Q 1206 3584 1959 3584 
z
" transform="scale(0.015625)"/>
      <path id="DejaVuSans-73" d="M 2834 3397 
L 2834 2853 
Q 2591 2978 2328 3040 
Q 2066 3103 1784 3103 
Q 1356 3103 1142 2972 
Q 928 2841 928 2578 
Q 928 2378 1081 2264 
Q 1234 2150 1697 2047 
L 1894 2003 
Q 2506 1872 2764 1633 
Q 3022 1394 3022 966 
Q 3022 478 2636 193 
Q 2250 -91 1575 -91 
Q 1294 -91 989 -36 
Q 684 19 347 128 
L 347 722 
Q 666 556 975 473 
Q 1284 391 1588 391 
Q 1994 391 2212 530 
Q 2431 669 2431 922 
Q 2431 1156 2273 1281 
Q 2116 1406 1581 1522 
L 1381 1569 
Q 847 1681 609 1914 
Q 372 2147 372 2553 
Q 372 3047 722 3315 
Q 1072 3584 1716 3584 
Q 2034 3584 2315 3537 
Q 2597 3491 2834 3397 
z
" transform="scale(0.015625)"/>
     </defs>
     <use xlink:href="#DejaVuSans-4c"/>
     <use xlink:href="#DejaVuSans-6f" x="53.962891"/>
     <use xlink:href="#DejaVuSans-73" x="115.144531"/>
     <use xlink:href="#DejaVuSans-73" x="167.244141"/>
    </g>
   </g>
   <g id="legend_1">
    <g id="patch_7">
     <path d="M 149.333562 90.643031 
L 239.268875 90.643031 
Q 241.248875 90.643031 241.248875 88.663031 
L 241.248875 31.527656 
Q 241.248875 29.547656 239.268875 29.547656 
L 149.333562 29.547656 
Q 147.353562 29.547656 147.353562 31.527656 
L 147.353562 88.663031 
Q 147.353562 90.643031 149.333562 90.643031 
z
" style="fill: #ffffff; opacity: 0.8; stroke: #cccccc; stroke-linejoin: miter"/>
    </g>
    <g id="line2d_5">
     <path d="M 151.313562 37.565109 
L 161.213562 37.565109 
L 171.113563 37.565109 
" style="fill: none; stroke: #e8000b; stroke-width: 1.5; stroke-linecap: round"/>
    </g>
    <g id="text_15">
     <!-- ensemble-1 -->
     <g style="fill: #262626" transform="translate(179.033562 41.030109)scale(0.099 -0.099)">
      <defs>
       <path id="DejaVuSans-65" d="M 3597 1894 
L 3597 1613 
L 953 1613 
Q 991 1019 1311 708 
Q 1631 397 2203 397 
Q 2534 397 2845 478 
Q 3156 559 3463 722 
L 3463 178 
Q 3153 47 2828 -22 
Q 2503 -91 2169 -91 
Q 1331 -91 842 396 
Q 353 884 353 1716 
Q 353 2575 817 3079 
Q 1281 3584 2069 3584 
Q 2775 3584 3186 3129 
Q 3597 2675 3597 1894 
z
M 3022 2063 
Q 3016 2534 2758 2815 
Q 2500 3097 2075 3097 
Q 1594 3097 1305 2825 
Q 1016 2553 972 2059 
L 3022 2063 
z
" transform="scale(0.015625)"/>
       <path id="DejaVuSans-6e" d="M 3513 2113 
L 3513 0 
L 2938 0 
L 2938 2094 
Q 2938 2591 2744 2837 
Q 2550 3084 2163 3084 
Q 1697 3084 1428 2787 
Q 1159 2491 1159 1978 
L 1159 0 
L 581 0 
L 581 3500 
L 1159 3500 
L 1159 2956 
Q 1366 3272 1645 3428 
Q 1925 3584 2291 3584 
Q 2894 3584 3203 3211 
Q 3513 2838 3513 2113 
z
" transform="scale(0.015625)"/>
       <path id="DejaVuSans-6d" d="M 3328 2828 
Q 3544 3216 3844 3400 
Q 4144 3584 4550 3584 
Q 5097 3584 5394 3201 
Q 5691 2819 5691 2113 
L 5691 0 
L 5113 0 
L 5113 2094 
Q 5113 2597 4934 2840 
Q 4756 3084 4391 3084 
Q 3944 3084 3684 2787 
Q 3425 2491 3425 1978 
L 3425 0 
L 2847 0 
L 2847 2094 
Q 2847 2600 2669 2842 
Q 2491 3084 2119 3084 
Q 1678 3084 1418 2786 
Q 1159 2488 1159 1978 
L 1159 0 
L 581 0 
L 581 3500 
L 1159 3500 
L 1159 2956 
Q 1356 3278 1631 3431 
Q 1906 3584 2284 3584 
Q 2666 3584 2933 3390 
Q 3200 3197 3328 2828 
z
" transform="scale(0.015625)"/>
       <path id="DejaVuSans-62" d="M 3116 1747 
Q 3116 2381 2855 2742 
Q 2594 3103 2138 3103 
Q 1681 3103 1420 2742 
Q 1159 2381 1159 1747 
Q 1159 1113 1420 752 
Q 1681 391 2138 391 
Q 2594 391 2855 752 
Q 3116 1113 3116 1747 
z
M 1159 2969 
Q 1341 3281 1617 3432 
Q 1894 3584 2278 3584 
Q 2916 3584 3314 3078 
Q 3713 2572 3713 1747 
Q 3713 922 3314 415 
Q 2916 -91 2278 -91 
Q 1894 -91 1617 61 
Q 1341 213 1159 525 
L 1159 0 
L 581 0 
L 581 4863 
L 1159 4863 
L 1159 2969 
z
" transform="scale(0.015625)"/>
       <path id="DejaVuSans-6c" d="M 603 4863 
L 1178 4863 
L 1178 0 
L 603 0 
L 603 4863 
z
" transform="scale(0.015625)"/>
       <path id="DejaVuSans-2d" d="M 313 2009 
L 1997 2009 
L 1997 1497 
L 313 1497 
L 313 2009 
z
" transform="scale(0.015625)"/>
      </defs>
      <use xlink:href="#DejaVuSans-65"/>
      <use xlink:href="#DejaVuSans-6e" x="61.523438"/>
      <use xlink:href="#DejaVuSans-73" x="124.902344"/>
      <use xlink:href="#DejaVuSans-65" x="177.001953"/>
      <use xlink:href="#DejaVuSans-6d" x="238.525391"/>
      <use xlink:href="#DejaVuSans-62" x="335.9375"/>
      <use xlink:href="#DejaVuSans-6c" x="399.414062"/>
      <use xlink:href="#DejaVuSans-65" x="427.197266"/>
      <use xlink:href="#DejaVuSans-2d" x="488.720703"/>
      <use xlink:href="#DejaVuSans-31" x="524.804688"/>
     </g>
    </g>
    <g id="line2d_6">
     <path d="M 151.313562 52.096453 
L 161.213562 52.096453 
L 171.113563 52.096453 
" style="fill: none; stroke: #023eff; stroke-width: 1.5; stroke-linecap: round"/>
    </g>
    <g id="text_16">
     <!-- ensemble-2 -->
     <g style="fill: #262626" transform="translate(179.033562 55.561453)scale(0.099 -0.099)">
      <use xlink:href="#DejaVuSans-65"/>
      <use xlink:href="#DejaVuSans-6e" x="61.523438"/>
      <use xlink:href="#DejaVuSans-73" x="124.902344"/>
      <use xlink:href="#DejaVuSans-65" x="177.001953"/>
      <use xlink:href="#DejaVuSans-6d" x="238.525391"/>
      <use xlink:href="#DejaVuSans-62" x="335.9375"/>
      <use xlink:href="#DejaVuSans-6c" x="399.414062"/>
      <use xlink:href="#DejaVuSans-65" x="427.197266"/>
      <use xlink:href="#DejaVuSans-2d" x="488.720703"/>
      <use xlink:href="#DejaVuSans-32" x="524.804688"/>
     </g>
    </g>
    <g id="line2d_7">
     <path d="M 151.313562 66.627797 
L 161.213562 66.627797 
L 171.113563 66.627797 
" style="fill: none; stroke: #1ac938; stroke-width: 1.5; stroke-linecap: round"/>
    </g>
    <g id="text_17">
     <!-- ensemble-3 -->
     <g style="fill: #262626" transform="translate(179.033562 70.092797)scale(0.099 -0.099)">
      <use xlink:href="#DejaVuSans-65"/>
      <use xlink:href="#DejaVuSans-6e" x="61.523438"/>
      <use xlink:href="#DejaVuSans-73" x="124.902344"/>
      <use xlink:href="#DejaVuSans-65" x="177.001953"/>
      <use xlink:href="#DejaVuSans-6d" x="238.525391"/>
      <use xlink:href="#DejaVuSans-62" x="335.9375"/>
      <use xlink:href="#DejaVuSans-6c" x="399.414062"/>
      <use xlink:href="#DejaVuSans-65" x="427.197266"/>
      <use xlink:href="#DejaVuSans-2d" x="488.720703"/>
      <use xlink:href="#DejaVuSans-33" x="524.804688"/>
     </g>
    </g>
    <g id="line2d_8">
     <path d="M 151.313562 81.159141 
L 161.213562 81.159141 
L 171.113563 81.159141 
" style="fill: none; stroke: #ffa500; stroke-width: 1.5; stroke-linecap: round"/>
    </g>
    <g id="text_18">
     <!-- ensemble-4 -->
     <g style="fill: #262626" transform="translate(179.033562 84.624141)scale(0.099 -0.099)">
      <use xlink:href="#DejaVuSans-65"/>
      <use xlink:href="#DejaVuSans-6e" x="61.523438"/>
      <use xlink:href="#DejaVuSans-73" x="124.902344"/>
      <use xlink:href="#DejaVuSans-65" x="177.001953"/>
      <use xlink:href="#DejaVuSans-6d" x="238.525391"/>
      <use xlink:href="#DejaVuSans-62" x="335.9375"/>
      <use xlink:href="#DejaVuSans-6c" x="399.414062"/>
      <use xlink:href="#DejaVuSans-65" x="427.197266"/>
      <use xlink:href="#DejaVuSans-2d" x="488.720703"/>
      <use xlink:href="#DejaVuSans-34" x="524.804688"/>
     </g>
    </g>
   </g>
  </g>
 </g>
 <defs>
  <clipPath id="p48b87b6c41">
   <rect x="22.998875" y="24.597656" width="223.2" height="221.76"/>
  </clipPath>
 </defs>
</svg>
