<?xml version="1.0" encoding="utf-8" standalone="no"?>
<!DOCTYPE svg PUBLIC "-//W3C//DTD SVG 1.1//EN"
  "http://www.w3.org/Graphics/SVG/1.1/DTD/svg11.dtd">
<svg xmlns:xlink="http://www.w3.org/1999/xlink" width="460.8pt" height="345.6pt" viewBox="0 0 460.8 345.6" xmlns="http://www.w3.org/2000/svg" version="1.1">
 <metadata>
  <rdf:RDF xmlns:dc="http://purl.org/dc/elements/1.1/" xmlns:cc="http://creativecommons.org/ns#" xmlns:rdf="http://www.w3.org/1999/02/22-rdf-syntax-ns#">
   <cc:Work>
    <dc:type rdf:resource="http://purl.org/dc/dcmitype/StillImage"/>
    <dc:date>2023-04-03T19:16:54.892506</dc:date>
    <dc:format>image/svg+xml</dc:format>
    <dc:creator>
     <cc:Agent>
      <dc:title>Matplotlib v3.5.3, https://matplotlib.org/</dc:title>
     </cc:Agent>
    </dc:creator>
   </cc:Work>
  </rdf:RDF>
 </metadata>
 <defs>
  <style type="text/css">*{stroke-linejoin: round; stroke-linecap: butt}</style>
 </defs>
 <g id="figure_1">
  <g id="patch_1">
   <path d="M 0 345.6 
L 460.8 345.6 
L 460.8 0 
L 0 0 
z
" style="fill: #ffffff"/>
  </g>
  <g id="axes_1">
   <g id="patch_2">
    <path d="M 57.6 307.584 
L 414.72 307.584 
L 414.72 41.472 
L 57.6 41.472 
z
" style="fill: #ffffff"/>
   </g>
   <g id="patch_3">
    <path d="M 73.832727 307.584 
L 90.065455 307.584 
L 90.065455 54.144 
L 73.832727 54.144 
z
" clip-path="url(#pf784ac815c)" style="fill: #3182bd; fill-opacity: 0.5; stroke: #d9d9d9; stroke-linejoin: miter"/>
   </g>
   <g id="patch_4">
    <path d="M 90.065455 307.584 
L 106.298182 307.584 
L 106.298182 297.425739 
L 90.065455 297.425739 
z
" clip-path="url(#pf784ac815c)" style="fill: #3182bd; fill-opacity: 0.5; stroke: #d9d9d9; stroke-linejoin: miter"/>
   </g>
   <g id="patch_5">
    <path d="M 106.298182 307.584 
L 122.530909 307.584 
L 122.530909 303.796174 
L 106.298182 303.796174 
z
" clip-path="url(#pf784ac815c)" style="fill: #3182bd; fill-opacity: 0.5; stroke: #d9d9d9; stroke-linejoin: miter"/>
   </g>
   <g id="patch_6">
    <path d="M 122.530909 307.584 
L 138.763636 307.584 
L 138.763636 304.657043 
L 122.530909 304.657043 
z
" clip-path="url(#pf784ac815c)" style="fill: #3182bd; fill-opacity: 0.5; stroke: #d9d9d9; stroke-linejoin: miter"/>
   </g>
   <g id="patch_7">
    <path d="M 138.763636 307.584 
L 154.996364 307.584 
L 154.996364 305.345739 
L 138.763636 305.345739 
z
" clip-path="url(#pf784ac815c)" style="fill: #3182bd; fill-opacity: 0.5; stroke: #d9d9d9; stroke-linejoin: miter"/>
   </g>
   <g id="patch_8">
    <path d="M 154.996364 307.584 
L 171.229091 307.584 
L 171.229091 306.378783 
L 154.996364 306.378783 
z
" clip-path="url(#pf784ac815c)" style="fill: #3182bd; fill-opacity: 0.5; stroke: #d9d9d9; stroke-linejoin: miter"/>
   </g>
   <g id="patch_9">
    <path d="M 171.229091 307.584 
L 187.461818 307.584 
L 187.461818 306.206609 
L 171.229091 306.206609 
z
" clip-path="url(#pf784ac815c)" style="fill: #3182bd; fill-opacity: 0.5; stroke: #d9d9d9; stroke-linejoin: miter"/>
   </g>
   <g id="patch_10">
    <path d="M 187.461818 307.584 
L 203.694545 307.584 
L 203.694545 306.378783 
L 187.461818 306.378783 
z
" clip-path="url(#pf784ac815c)" style="fill: #3182bd; fill-opacity: 0.5; stroke: #d9d9d9; stroke-linejoin: miter"/>
   </g>
   <g id="patch_11">
    <path d="M 203.694545 307.584 
L 219.927273 307.584 
L 219.927273 306.206609 
L 203.694545 306.206609 
z
" clip-path="url(#pf784ac815c)" style="fill: #3182bd; fill-opacity: 0.5; stroke: #d9d9d9; stroke-linejoin: miter"/>
   </g>
   <g id="patch_12">
    <path d="M 219.927273 307.584 
L 236.16 307.584 
L 236.16 306.72313 
L 219.927273 306.72313 
z
" clip-path="url(#pf784ac815c)" style="fill: #3182bd; fill-opacity: 0.5; stroke: #d9d9d9; stroke-linejoin: miter"/>
   </g>
   <g id="patch_13">
    <path d="M 236.16 307.584 
L 252.392727 307.584 
L 252.392727 307.239652 
L 236.16 307.239652 
z
" clip-path="url(#pf784ac815c)" style="fill: #3182bd; fill-opacity: 0.5; stroke: #d9d9d9; stroke-linejoin: miter"/>
   </g>
   <g id="patch_14">
    <path d="M 252.392727 307.584 
L 268.625455 307.584 
L 268.625455 305.690087 
L 252.392727 305.690087 
z
" clip-path="url(#pf784ac815c)" style="fill: #3182bd; fill-opacity: 0.5; stroke: #d9d9d9; stroke-linejoin: miter"/>
   </g>
   <g id="patch_15">
    <path d="M 268.625455 307.584 
L 284.858182 307.584 
L 284.858182 307.067478 
L 268.625455 307.067478 
z
" clip-path="url(#pf784ac815c)" style="fill: #3182bd; fill-opacity: 0.5; stroke: #d9d9d9; stroke-linejoin: miter"/>
   </g>
   <g id="patch_16">
    <path d="M 284.858182 307.584 
L 301.090909 307.584 
L 301.090909 306.550957 
L 284.858182 306.550957 
z
" clip-path="url(#pf784ac815c)" style="fill: #3182bd; fill-opacity: 0.5; stroke: #d9d9d9; stroke-linejoin: miter"/>
   </g>
   <g id="patch_17">
    <path d="M 301.090909 307.584 
L 317.323636 307.584 
L 317.323636 307.239652 
L 301.090909 307.239652 
z
" clip-path="url(#pf784ac815c)" style="fill: #3182bd; fill-opacity: 0.5; stroke: #d9d9d9; stroke-linejoin: miter"/>
   </g>
   <g id="patch_18">
    <path d="M 317.323636 307.584 
L 333.556364 307.584 
L 333.556364 307.584 
L 317.323636 307.584 
z
" clip-path="url(#pf784ac815c)" style="fill: #3182bd; fill-opacity: 0.5; stroke: #d9d9d9; stroke-linejoin: miter"/>
   </g>
   <g id="patch_19">
    <path d="M 333.556364 307.584 
L 349.789091 307.584 
L 349.789091 307.067478 
L 333.556364 307.067478 
z
" clip-path="url(#pf784ac815c)" style="fill: #3182bd; fill-opacity: 0.5; stroke: #d9d9d9; stroke-linejoin: miter"/>
   </g>
   <g id="patch_20">
    <path d="M 349.789091 307.584 
L 366.021818 307.584 
L 366.021818 307.411826 
L 349.789091 307.411826 
z
" clip-path="url(#pf784ac815c)" style="fill: #3182bd; fill-opacity: 0.5; stroke: #d9d9d9; stroke-linejoin: miter"/>
   </g>
   <g id="patch_21">
    <path d="M 366.021818 307.584 
L 382.254545 307.584 
L 382.254545 307.411826 
L 366.021818 307.411826 
z
" clip-path="url(#pf784ac815c)" style="fill: #3182bd; fill-opacity: 0.5; stroke: #d9d9d9; stroke-linejoin: miter"/>
   </g>
   <g id="patch_22">
    <path d="M 382.254545 307.584 
L 398.487273 307.584 
L 398.487273 307.239652 
L 382.254545 307.239652 
z
" clip-path="url(#pf784ac815c)" style="fill: #3182bd; fill-opacity: 0.5; stroke: #d9d9d9; stroke-linejoin: miter"/>
   </g>
   <g id="patch_23">
    <path d="M 73.832727 307.584 
L 89.993209 307.584 
L 89.993209 54.316174 
L 73.832727 54.316174 
z
" clip-path="url(#pf784ac815c)" style="fill: #3182bd; fill-opacity: 0.5; stroke: #d9d9d9; stroke-linejoin: miter"/>
   </g>
   <g id="patch_24">
    <path d="M 89.993209 307.584 
L 106.15369 307.584 
L 106.15369 298.286609 
L 89.993209 298.286609 
z
" clip-path="url(#pf784ac815c)" style="fill: #3182bd; fill-opacity: 0.5; stroke: #d9d9d9; stroke-linejoin: miter"/>
   </g>
   <g id="patch_25">
    <path d="M 106.15369 307.584 
L 122.314172 307.584 
L 122.314172 304.140522 
L 106.15369 304.140522 
z
" clip-path="url(#pf784ac815c)" style="fill: #3182bd; fill-opacity: 0.5; stroke: #d9d9d9; stroke-linejoin: miter"/>
   </g>
   <g id="patch_26">
    <path d="M 122.314172 307.584 
L 138.474653 307.584 
L 138.474653 305.345739 
L 122.314172 305.345739 
z
" clip-path="url(#pf784ac815c)" style="fill: #3182bd; fill-opacity: 0.5; stroke: #d9d9d9; stroke-linejoin: miter"/>
   </g>
   <g id="patch_27">
    <path d="M 138.474653 307.584 
L 154.635135 307.584 
L 154.635135 305.690087 
L 138.474653 305.690087 
z
" clip-path="url(#pf784ac815c)" style="fill: #3182bd; fill-opacity: 0.5; stroke: #d9d9d9; stroke-linejoin: miter"/>
   </g>
   <g id="patch_28">
    <path d="M 154.635135 307.584 
L 170.795616 307.584 
L 170.795616 306.72313 
L 154.635135 306.72313 
z
" clip-path="url(#pf784ac815c)" style="fill: #3182bd; fill-opacity: 0.5; stroke: #d9d9d9; stroke-linejoin: miter"/>
   </g>
   <g id="patch_29">
    <path d="M 170.795616 307.584 
L 186.956097 307.584 
L 186.956097 306.72313 
L 170.795616 306.72313 
z
" clip-path="url(#pf784ac815c)" style="fill: #3182bd; fill-opacity: 0.5; stroke: #d9d9d9; stroke-linejoin: miter"/>
   </g>
   <g id="patch_30">
    <path d="M 186.956097 307.584 
L 203.116579 307.584 
L 203.116579 306.72313 
L 186.956097 306.72313 
z
" clip-path="url(#pf784ac815c)" style="fill: #3182bd; fill-opacity: 0.5; stroke: #d9d9d9; stroke-linejoin: miter"/>
   </g>
   <g id="patch_31">
    <path d="M 203.116579 307.584 
L 219.27706 307.584 
L 219.27706 306.206609 
L 203.116579 306.206609 
z
" clip-path="url(#pf784ac815c)" style="fill: #3182bd; fill-opacity: 0.5; stroke: #d9d9d9; stroke-linejoin: miter"/>
   </g>
   <g id="patch_32">
    <path d="M 219.27706 307.584 
L 235.437542 307.584 
L 235.437542 307.067478 
L 219.27706 307.067478 
z
" clip-path="url(#pf784ac815c)" style="fill: #3182bd; fill-opacity: 0.5; stroke: #d9d9d9; stroke-linejoin: miter"/>
   </g>
   <g id="patch_33">
    <path d="M 235.437542 307.584 
L 251.598023 307.584 
L 251.598023 307.584 
L 235.437542 307.584 
z
" clip-path="url(#pf784ac815c)" style="fill: #3182bd; fill-opacity: 0.5; stroke: #d9d9d9; stroke-linejoin: miter"/>
   </g>
   <g id="patch_34">
    <path d="M 251.598023 307.584 
L 267.758505 307.584 
L 267.758505 306.378783 
L 251.598023 306.378783 
z
" clip-path="url(#pf784ac815c)" style="fill: #3182bd; fill-opacity: 0.5; stroke: #d9d9d9; stroke-linejoin: miter"/>
   </g>
   <g id="patch_35">
    <path d="M 267.758505 307.584 
L 283.918986 307.584 
L 283.918986 307.067478 
L 267.758505 307.067478 
z
" clip-path="url(#pf784ac815c)" style="fill: #3182bd; fill-opacity: 0.5; stroke: #d9d9d9; stroke-linejoin: miter"/>
   </g>
   <g id="patch_36">
    <path d="M 283.918986 307.584 
L 300.079468 307.584 
L 300.079468 306.72313 
L 283.918986 306.72313 
z
" clip-path="url(#pf784ac815c)" style="fill: #3182bd; fill-opacity: 0.5; stroke: #d9d9d9; stroke-linejoin: miter"/>
   </g>
   <g id="patch_37">
    <path d="M 300.079468 307.584 
L 316.239949 307.584 
L 316.239949 307.067478 
L 300.079468 307.067478 
z
" clip-path="url(#pf784ac815c)" style="fill: #3182bd; fill-opacity: 0.5; stroke: #d9d9d9; stroke-linejoin: miter"/>
   </g>
   <g id="patch_38">
    <path d="M 316.239949 307.584 
L 332.400431 307.584 
L 332.400431 307.584 
L 316.239949 307.584 
z
" clip-path="url(#pf784ac815c)" style="fill: #3182bd; fill-opacity: 0.5; stroke: #d9d9d9; stroke-linejoin: miter"/>
   </g>
   <g id="patch_39">
    <path d="M 332.400431 307.584 
L 348.560912 307.584 
L 348.560912 307.067478 
L 332.400431 307.067478 
z
" clip-path="url(#pf784ac815c)" style="fill: #3182bd; fill-opacity: 0.5; stroke: #d9d9d9; stroke-linejoin: miter"/>
   </g>
   <g id="patch_40">
    <path d="M 348.560912 307.584 
L 364.721393 307.584 
L 364.721393 307.584 
L 348.560912 307.584 
z
" clip-path="url(#pf784ac815c)" style="fill: #3182bd; fill-opacity: 0.5; stroke: #d9d9d9; stroke-linejoin: miter"/>
   </g>
   <g id="patch_41">
    <path d="M 364.721393 307.584 
L 380.881875 307.584 
L 380.881875 307.239652 
L 364.721393 307.239652 
z
" clip-path="url(#pf784ac815c)" style="fill: #3182bd; fill-opacity: 0.5; stroke: #d9d9d9; stroke-linejoin: miter"/>
   </g>
   <g id="patch_42">
    <path d="M 380.881875 307.584 
L 397.042356 307.584 
L 397.042356 307.411826 
L 380.881875 307.411826 
z
" clip-path="url(#pf784ac815c)" style="fill: #3182bd; fill-opacity: 0.5; stroke: #d9d9d9; stroke-linejoin: miter"/>
   </g>
   <g id="matplotlib.axis_1">
    <g id="xtick_1">
     <g id="line2d_1">
      <path d="M 73.832715 307.584 
L 73.832715 41.472 
" clip-path="url(#pf784ac815c)" style="fill: none; stroke: #b0b0b0; stroke-width: 0.8; stroke-linecap: square"/>
     </g>
     <g id="line2d_2">
      <defs>
       <path id="m22fad3b783" d="M 0 0 
L 0 3.5 
" style="stroke: #000000; stroke-width: 0.8"/>
      </defs>
      <g>
       <use xlink:href="#m22fad3b783" x="73.832715" y="307.584" style="stroke: #000000; stroke-width: 0.8"/>
      </g>
     </g>
     <g id="text_1">
      <!-- 0.00 -->
      <g transform="translate(60.47334 323.702125)scale(0.12 -0.12)">
       <defs>
        <path id="DejaVuSans-30" d="M 2034 4250 
Q 1547 4250 1301 3770 
Q 1056 3291 1056 2328 
Q 1056 1369 1301 889 
Q 1547 409 2034 409 
Q 2525 409 2770 889 
Q 3016 1369 3016 2328 
Q 3016 3291 2770 3770 
Q 2525 4250 2034 4250 
z
M 2034 4750 
Q 2819 4750 3233 4129 
Q 3647 3509 3647 2328 
Q 3647 1150 3233 529 
Q 2819 -91 2034 -91 
Q 1250 -91 836 529 
Q 422 1150 422 2328 
Q 422 3509 836 4129 
Q 1250 4750 2034 4750 
z
" transform="scale(0.015625)"/>
        <path id="DejaVuSans-2e" d="M 684 794 
L 1344 794 
L 1344 0 
L 684 0 
L 684 794 
z
" transform="scale(0.015625)"/>
       </defs>
       <use xlink:href="#DejaVuSans-30"/>
       <use xlink:href="#DejaVuSans-2e" x="63.623047"/>
       <use xlink:href="#DejaVuSans-30" x="95.410156"/>
       <use xlink:href="#DejaVuSans-30" x="159.033203"/>
      </g>
     </g>
    </g>
    <g id="xtick_2">
     <g id="line2d_3">
      <path d="M 121.368393 307.584 
L 121.368393 41.472 
" clip-path="url(#pf784ac815c)" style="fill: none; stroke: #b0b0b0; stroke-width: 0.8; stroke-linecap: square"/>
     </g>
     <g id="line2d_4">
      <g>
       <use xlink:href="#m22fad3b783" x="121.368393" y="307.584" style="stroke: #000000; stroke-width: 0.8"/>
      </g>
     </g>
     <g id="text_2">
      <!-- 0.25 -->
      <g transform="translate(108.009018 323.702125)scale(0.12 -0.12)">
       <defs>
        <path id="DejaVuSans-32" d="M 1228 531 
L 3431 531 
L 3431 0 
L 469 0 
L 469 531 
Q 828 903 1448 1529 
Q 2069 2156 2228 2338 
Q 2531 2678 2651 2914 
Q 2772 3150 2772 3378 
Q 2772 3750 2511 3984 
Q 2250 4219 1831 4219 
Q 1534 4219 1204 4116 
Q 875 4013 500 3803 
L 500 4441 
Q 881 4594 1212 4672 
Q 1544 4750 1819 4750 
Q 2544 4750 2975 4387 
Q 3406 4025 3406 3419 
Q 3406 3131 3298 2873 
Q 3191 2616 2906 2266 
Q 2828 2175 2409 1742 
Q 1991 1309 1228 531 
z
" transform="scale(0.015625)"/>
        <path id="DejaVuSans-35" d="M 691 4666 
L 3169 4666 
L 3169 4134 
L 1269 4134 
L 1269 2991 
Q 1406 3038 1543 3061 
Q 1681 3084 1819 3084 
Q 2600 3084 3056 2656 
Q 3513 2228 3513 1497 
Q 3513 744 3044 326 
Q 2575 -91 1722 -91 
Q 1428 -91 1123 -41 
Q 819 9 494 109 
L 494 744 
Q 775 591 1075 516 
Q 1375 441 1709 441 
Q 2250 441 2565 725 
Q 2881 1009 2881 1497 
Q 2881 1984 2565 2268 
Q 2250 2553 1709 2553 
Q 1456 2553 1204 2497 
Q 953 2441 691 2322 
L 691 4666 
z
" transform="scale(0.015625)"/>
       </defs>
       <use xlink:href="#DejaVuSans-30"/>
       <use xlink:href="#DejaVuSans-2e" x="63.623047"/>
       <use xlink:href="#DejaVuSans-32" x="95.410156"/>
       <use xlink:href="#DejaVuSans-35" x="159.033203"/>
      </g>
     </g>
    </g>
    <g id="xtick_3">
     <g id="line2d_5">
      <path d="M 168.90407 307.584 
L 168.90407 41.472 
" clip-path="url(#pf784ac815c)" style="fill: none; stroke: #b0b0b0; stroke-width: 0.8; stroke-linecap: square"/>
     </g>
     <g id="line2d_6">
      <g>
       <use xlink:href="#m22fad3b783" x="168.90407" y="307.584" style="stroke: #000000; stroke-width: 0.8"/>
      </g>
     </g>
     <g id="text_3">
      <!-- 0.50 -->
      <g transform="translate(155.544695 323.702125)scale(0.12 -0.12)">
       <use xlink:href="#DejaVuSans-30"/>
       <use xlink:href="#DejaVuSans-2e" x="63.623047"/>
       <use xlink:href="#DejaVuSans-35" x="95.410156"/>
       <use xlink:href="#DejaVuSans-30" x="159.033203"/>
      </g>
     </g>
    </g>
    <g id="xtick_4">
     <g id="line2d_7">
      <path d="M 216.439748 307.584 
L 216.439748 41.472 
" clip-path="url(#pf784ac815c)" style="fill: none; stroke: #b0b0b0; stroke-width: 0.8; stroke-linecap: square"/>
     </g>
     <g id="line2d_8">
      <g>
       <use xlink:href="#m22fad3b783" x="216.439748" y="307.584" style="stroke: #000000; stroke-width: 0.8"/>
      </g>
     </g>
     <g id="text_4">
      <!-- 0.75 -->
      <g transform="translate(203.080373 323.702125)scale(0.12 -0.12)">
       <defs>
        <path id="DejaVuSans-37" d="M 525 4666 
L 3525 4666 
L 3525 4397 
L 1831 0 
L 1172 0 
L 2766 4134 
L 525 4134 
L 525 4666 
z
" transform="scale(0.015625)"/>
       </defs>
       <use xlink:href="#DejaVuSans-30"/>
       <use xlink:href="#DejaVuSans-2e" x="63.623047"/>
       <use xlink:href="#DejaVuSans-37" x="95.410156"/>
       <use xlink:href="#DejaVuSans-35" x="159.033203"/>
      </g>
     </g>
    </g>
    <g id="xtick_5">
     <g id="line2d_9">
      <path d="M 263.975425 307.584 
L 263.975425 41.472 
" clip-path="url(#pf784ac815c)" style="fill: none; stroke: #b0b0b0; stroke-width: 0.8; stroke-linecap: square"/>
     </g>
     <g id="line2d_10">
      <g>
       <use xlink:href="#m22fad3b783" x="263.975425" y="307.584" style="stroke: #000000; stroke-width: 0.8"/>
      </g>
     </g>
     <g id="text_5">
      <!-- 1.00 -->
      <g transform="translate(250.61605 323.702125)scale(0.12 -0.12)">
       <defs>
        <path id="DejaVuSans-31" d="M 794 531 
L 1825 531 
L 1825 4091 
L 703 3866 
L 703 4441 
L 1819 4666 
L 2450 4666 
L 2450 531 
L 3481 531 
L 3481 0 
L 794 0 
L 794 531 
z
" transform="scale(0.015625)"/>
       </defs>
       <use xlink:href="#DejaVuSans-31"/>
       <use xlink:href="#DejaVuSans-2e" x="63.623047"/>
       <use xlink:href="#DejaVuSans-30" x="95.410156"/>
       <use xlink:href="#DejaVuSans-30" x="159.033203"/>
      </g>
     </g>
    </g>
    <g id="xtick_6">
     <g id="line2d_11">
      <path d="M 311.511102 307.584 
L 311.511102 41.472 
" clip-path="url(#pf784ac815c)" style="fill: none; stroke: #b0b0b0; stroke-width: 0.8; stroke-linecap: square"/>
     </g>
     <g id="line2d_12">
      <g>
       <use xlink:href="#m22fad3b783" x="311.511102" y="307.584" style="stroke: #000000; stroke-width: 0.8"/>
      </g>
     </g>
     <g id="text_6">
      <!-- 1.25 -->
      <g transform="translate(298.151727 323.702125)scale(0.12 -0.12)">
       <use xlink:href="#DejaVuSans-31"/>
       <use xlink:href="#DejaVuSans-2e" x="63.623047"/>
       <use xlink:href="#DejaVuSans-32" x="95.410156"/>
       <use xlink:href="#DejaVuSans-35" x="159.033203"/>
      </g>
     </g>
    </g>
    <g id="xtick_7">
     <g id="line2d_13">
      <path d="M 359.04678 307.584 
L 359.04678 41.472 
" clip-path="url(#pf784ac815c)" style="fill: none; stroke: #b0b0b0; stroke-width: 0.8; stroke-linecap: square"/>
     </g>
     <g id="line2d_14">
      <g>
       <use xlink:href="#m22fad3b783" x="359.04678" y="307.584" style="stroke: #000000; stroke-width: 0.8"/>
      </g>
     </g>
     <g id="text_7">
      <!-- 1.50 -->
      <g transform="translate(345.687405 323.702125)scale(0.12 -0.12)">
       <use xlink:href="#DejaVuSans-31"/>
       <use xlink:href="#DejaVuSans-2e" x="63.623047"/>
       <use xlink:href="#DejaVuSans-35" x="95.410156"/>
       <use xlink:href="#DejaVuSans-30" x="159.033203"/>
      </g>
     </g>
    </g>
    <g id="xtick_8">
     <g id="line2d_15">
      <path d="M 406.582457 307.584 
L 406.582457 41.472 
" clip-path="url(#pf784ac815c)" style="fill: none; stroke: #b0b0b0; stroke-width: 0.8; stroke-linecap: square"/>
     </g>
     <g id="line2d_16">
      <g>
       <use xlink:href="#m22fad3b783" x="406.582457" y="307.584" style="stroke: #000000; stroke-width: 0.8"/>
      </g>
     </g>
     <g id="text_8">
      <!-- 1.75 -->
      <g transform="translate(393.223082 323.702125)scale(0.12 -0.12)">
       <use xlink:href="#DejaVuSans-31"/>
       <use xlink:href="#DejaVuSans-2e" x="63.623047"/>
       <use xlink:href="#DejaVuSans-37" x="95.410156"/>
       <use xlink:href="#DejaVuSans-35" x="159.033203"/>
      </g>
     </g>
    </g>
    <g id="text_9">
     <!-- Uncertainty -->
     <g transform="translate(192.343594 341.595406)scale(0.15 -0.15)">
      <defs>
       <path id="DejaVuSans-55" d="M 556 4666 
L 1191 4666 
L 1191 1831 
Q 1191 1081 1462 751 
Q 1734 422 2344 422 
Q 2950 422 3222 751 
Q 3494 1081 3494 1831 
L 3494 4666 
L 4128 4666 
L 4128 1753 
Q 4128 841 3676 375 
Q 3225 -91 2344 -91 
Q 1459 -91 1007 375 
Q 556 841 556 1753 
L 556 4666 
z
" transform="scale(0.015625)"/>
       <path id="DejaVuSans-6e" d="M 3513 2113 
L 3513 0 
L 2938 0 
L 2938 2094 
Q 2938 2591 2744 2837 
Q 2550 3084 2163 3084 
Q 1697 3084 1428 2787 
Q 1159 2491 1159 1978 
L 1159 0 
L 581 0 
L 581 3500 
L 1159 3500 
L 1159 2956 
Q 1366 3272 1645 3428 
Q 1925 3584 2291 3584 
Q 2894 3584 3203 3211 
Q 3513 2838 3513 2113 
z
" transform="scale(0.015625)"/>
       <path id="DejaVuSans-63" d="M 3122 3366 
L 3122 2828 
Q 2878 2963 2633 3030 
Q 2388 3097 2138 3097 
Q 1578 3097 1268 2742 
Q 959 2388 959 1747 
Q 959 1106 1268 751 
Q 1578 397 2138 397 
Q 2388 397 2633 464 
Q 2878 531 3122 666 
L 3122 134 
Q 2881 22 2623 -34 
Q 2366 -91 2075 -91 
Q 1284 -91 818 406 
Q 353 903 353 1747 
Q 353 2603 823 3093 
Q 1294 3584 2113 3584 
Q 2378 3584 2631 3529 
Q 2884 3475 3122 3366 
z
" transform="scale(0.015625)"/>
       <path id="DejaVuSans-65" d="M 3597 1894 
L 3597 1613 
L 953 1613 
Q 991 1019 1311 708 
Q 1631 397 2203 397 
Q 2534 397 2845 478 
Q 3156 559 3463 722 
L 3463 178 
Q 3153 47 2828 -22 
Q 2503 -91 2169 -91 
Q 1331 -91 842 396 
Q 353 884 353 1716 
Q 353 2575 817 3079 
Q 1281 3584 2069 3584 
Q 2775 3584 3186 3129 
Q 3597 2675 3597 1894 
z
M 3022 2063 
Q 3016 2534 2758 2815 
Q 2500 3097 2075 3097 
Q 1594 3097 1305 2825 
Q 1016 2553 972 2059 
L 3022 2063 
z
" transform="scale(0.015625)"/>
       <path id="DejaVuSans-72" d="M 2631 2963 
Q 2534 3019 2420 3045 
Q 2306 3072 2169 3072 
Q 1681 3072 1420 2755 
Q 1159 2438 1159 1844 
L 1159 0 
L 581 0 
L 581 3500 
L 1159 3500 
L 1159 2956 
Q 1341 3275 1631 3429 
Q 1922 3584 2338 3584 
Q 2397 3584 2469 3576 
Q 2541 3569 2628 3553 
L 2631 2963 
z
" transform="scale(0.015625)"/>
       <path id="DejaVuSans-74" d="M 1172 4494 
L 1172 3500 
L 2356 3500 
L 2356 3053 
L 1172 3053 
L 1172 1153 
Q 1172 725 1289 603 
Q 1406 481 1766 481 
L 2356 481 
L 2356 0 
L 1766 0 
Q 1100 0 847 248 
Q 594 497 594 1153 
L 594 3053 
L 172 3053 
L 172 3500 
L 594 3500 
L 594 4494 
L 1172 4494 
z
" transform="scale(0.015625)"/>
       <path id="DejaVuSans-61" d="M 2194 1759 
Q 1497 1759 1228 1600 
Q 959 1441 959 1056 
Q 959 750 1161 570 
Q 1363 391 1709 391 
Q 2188 391 2477 730 
Q 2766 1069 2766 1631 
L 2766 1759 
L 2194 1759 
z
M 3341 1997 
L 3341 0 
L 2766 0 
L 2766 531 
Q 2569 213 2275 61 
Q 1981 -91 1556 -91 
Q 1019 -91 701 211 
Q 384 513 384 1019 
Q 384 1609 779 1909 
Q 1175 2209 1959 2209 
L 2766 2209 
L 2766 2266 
Q 2766 2663 2505 2880 
Q 2244 3097 1772 3097 
Q 1472 3097 1187 3025 
Q 903 2953 641 2809 
L 641 3341 
Q 956 3463 1253 3523 
Q 1550 3584 1831 3584 
Q 2591 3584 2966 3190 
Q 3341 2797 3341 1997 
z
" transform="scale(0.015625)"/>
       <path id="DejaVuSans-69" d="M 603 3500 
L 1178 3500 
L 1178 0 
L 603 0 
L 603 3500 
z
M 603 4863 
L 1178 4863 
L 1178 4134 
L 603 4134 
L 603 4863 
z
" transform="scale(0.015625)"/>
       <path id="DejaVuSans-79" d="M 2059 -325 
Q 1816 -950 1584 -1140 
Q 1353 -1331 966 -1331 
L 506 -1331 
L 506 -850 
L 844 -850 
Q 1081 -850 1212 -737 
Q 1344 -625 1503 -206 
L 1606 56 
L 191 3500 
L 800 3500 
L 1894 763 
L 2988 3500 
L 3597 3500 
L 2059 -325 
z
" transform="scale(0.015625)"/>
      </defs>
      <use xlink:href="#DejaVuSans-55"/>
      <use xlink:href="#DejaVuSans-6e" x="73.193359"/>
      <use xlink:href="#DejaVuSans-63" x="136.572266"/>
      <use xlink:href="#DejaVuSans-65" x="191.552734"/>
      <use xlink:href="#DejaVuSans-72" x="253.076172"/>
      <use xlink:href="#DejaVuSans-74" x="294.189453"/>
      <use xlink:href="#DejaVuSans-61" x="333.398438"/>
      <use xlink:href="#DejaVuSans-69" x="394.677734"/>
      <use xlink:href="#DejaVuSans-6e" x="422.460938"/>
      <use xlink:href="#DejaVuSans-74" x="485.839844"/>
      <use xlink:href="#DejaVuSans-79" x="525.048828"/>
     </g>
    </g>
   </g>
   <g id="matplotlib.axis_2">
    <g id="ytick_1">
     <g id="line2d_17">
      <path d="M 57.6 307.584 
L 414.72 307.584 
" clip-path="url(#pf784ac815c)" style="fill: none; stroke: #b0b0b0; stroke-width: 0.8; stroke-linecap: square"/>
     </g>
     <g id="line2d_18">
      <defs>
       <path id="m5dfb2eb81f" d="M 0 0 
L -3.5 0 
" style="stroke: #000000; stroke-width: 0.8"/>
      </defs>
      <g>
       <use xlink:href="#m5dfb2eb81f" x="57.6" y="307.584" style="stroke: #000000; stroke-width: 0.8"/>
      </g>
     </g>
     <g id="text_10">
      <!-- 0 -->
      <g transform="translate(42.965 312.143062)scale(0.12 -0.12)">
       <use xlink:href="#DejaVuSans-30"/>
      </g>
     </g>
    </g>
    <g id="ytick_2">
     <g id="line2d_19">
      <path d="M 57.6 273.149217 
L 414.72 273.149217 
" clip-path="url(#pf784ac815c)" style="fill: none; stroke: #b0b0b0; stroke-width: 0.8; stroke-linecap: square"/>
     </g>
     <g id="line2d_20">
      <g>
       <use xlink:href="#m5dfb2eb81f" x="57.6" y="273.149217" style="stroke: #000000; stroke-width: 0.8"/>
      </g>
     </g>
     <g id="text_11">
      <!-- 200 -->
      <g transform="translate(27.695 277.70828)scale(0.12 -0.12)">
       <use xlink:href="#DejaVuSans-32"/>
       <use xlink:href="#DejaVuSans-30" x="63.623047"/>
       <use xlink:href="#DejaVuSans-30" x="127.246094"/>
      </g>
     </g>
    </g>
    <g id="ytick_3">
     <g id="line2d_21">
      <path d="M 57.6 238.714435 
L 414.72 238.714435 
" clip-path="url(#pf784ac815c)" style="fill: none; stroke: #b0b0b0; stroke-width: 0.8; stroke-linecap: square"/>
     </g>
     <g id="line2d_22">
      <g>
       <use xlink:href="#m5dfb2eb81f" x="57.6" y="238.714435" style="stroke: #000000; stroke-width: 0.8"/>
      </g>
     </g>
     <g id="text_12">
      <!-- 400 -->
      <g transform="translate(27.695 243.273497)scale(0.12 -0.12)">
       <defs>
        <path id="DejaVuSans-34" d="M 2419 4116 
L 825 1625 
L 2419 1625 
L 2419 4116 
z
M 2253 4666 
L 3047 4666 
L 3047 1625 
L 3713 1625 
L 3713 1100 
L 3047 1100 
L 3047 0 
L 2419 0 
L 2419 1100 
L 313 1100 
L 313 1709 
L 2253 4666 
z
" transform="scale(0.015625)"/>
       </defs>
       <use xlink:href="#DejaVuSans-34"/>
       <use xlink:href="#DejaVuSans-30" x="63.623047"/>
       <use xlink:href="#DejaVuSans-30" x="127.246094"/>
      </g>
     </g>
    </g>
    <g id="ytick_4">
     <g id="line2d_23">
      <path d="M 57.6 204.279652 
L 414.72 204.279652 
" clip-path="url(#pf784ac815c)" style="fill: none; stroke: #b0b0b0; stroke-width: 0.8; stroke-linecap: square"/>
     </g>
     <g id="line2d_24">
      <g>
       <use xlink:href="#m5dfb2eb81f" x="57.6" y="204.279652" style="stroke: #000000; stroke-width: 0.8"/>
      </g>
     </g>
     <g id="text_13">
      <!-- 600 -->
      <g transform="translate(27.695 208.838715)scale(0.12 -0.12)">
       <defs>
        <path id="DejaVuSans-36" d="M 2113 2584 
Q 1688 2584 1439 2293 
Q 1191 2003 1191 1497 
Q 1191 994 1439 701 
Q 1688 409 2113 409 
Q 2538 409 2786 701 
Q 3034 994 3034 1497 
Q 3034 2003 2786 2293 
Q 2538 2584 2113 2584 
z
M 3366 4563 
L 3366 3988 
Q 3128 4100 2886 4159 
Q 2644 4219 2406 4219 
Q 1781 4219 1451 3797 
Q 1122 3375 1075 2522 
Q 1259 2794 1537 2939 
Q 1816 3084 2150 3084 
Q 2853 3084 3261 2657 
Q 3669 2231 3669 1497 
Q 3669 778 3244 343 
Q 2819 -91 2113 -91 
Q 1303 -91 875 529 
Q 447 1150 447 2328 
Q 447 3434 972 4092 
Q 1497 4750 2381 4750 
Q 2619 4750 2861 4703 
Q 3103 4656 3366 4563 
z
" transform="scale(0.015625)"/>
       </defs>
       <use xlink:href="#DejaVuSans-36"/>
       <use xlink:href="#DejaVuSans-30" x="63.623047"/>
       <use xlink:href="#DejaVuSans-30" x="127.246094"/>
      </g>
     </g>
    </g>
    <g id="ytick_5">
     <g id="line2d_25">
      <path d="M 57.6 169.84487 
L 414.72 169.84487 
" clip-path="url(#pf784ac815c)" style="fill: none; stroke: #b0b0b0; stroke-width: 0.8; stroke-linecap: square"/>
     </g>
     <g id="line2d_26">
      <g>
       <use xlink:href="#m5dfb2eb81f" x="57.6" y="169.84487" style="stroke: #000000; stroke-width: 0.8"/>
      </g>
     </g>
     <g id="text_14">
      <!-- 800 -->
      <g transform="translate(27.695 174.403932)scale(0.12 -0.12)">
       <defs>
        <path id="DejaVuSans-38" d="M 2034 2216 
Q 1584 2216 1326 1975 
Q 1069 1734 1069 1313 
Q 1069 891 1326 650 
Q 1584 409 2034 409 
Q 2484 409 2743 651 
Q 3003 894 3003 1313 
Q 3003 1734 2745 1975 
Q 2488 2216 2034 2216 
z
M 1403 2484 
Q 997 2584 770 2862 
Q 544 3141 544 3541 
Q 544 4100 942 4425 
Q 1341 4750 2034 4750 
Q 2731 4750 3128 4425 
Q 3525 4100 3525 3541 
Q 3525 3141 3298 2862 
Q 3072 2584 2669 2484 
Q 3125 2378 3379 2068 
Q 3634 1759 3634 1313 
Q 3634 634 3220 271 
Q 2806 -91 2034 -91 
Q 1263 -91 848 271 
Q 434 634 434 1313 
Q 434 1759 690 2068 
Q 947 2378 1403 2484 
z
M 1172 3481 
Q 1172 3119 1398 2916 
Q 1625 2713 2034 2713 
Q 2441 2713 2670 2916 
Q 2900 3119 2900 3481 
Q 2900 3844 2670 4047 
Q 2441 4250 2034 4250 
Q 1625 4250 1398 4047 
Q 1172 3844 1172 3481 
z
" transform="scale(0.015625)"/>
       </defs>
       <use xlink:href="#DejaVuSans-38"/>
       <use xlink:href="#DejaVuSans-30" x="63.623047"/>
       <use xlink:href="#DejaVuSans-30" x="127.246094"/>
      </g>
     </g>
    </g>
    <g id="ytick_6">
     <g id="line2d_27">
      <path d="M 57.6 135.410087 
L 414.72 135.410087 
" clip-path="url(#pf784ac815c)" style="fill: none; stroke: #b0b0b0; stroke-width: 0.8; stroke-linecap: square"/>
     </g>
     <g id="line2d_28">
      <g>
       <use xlink:href="#m5dfb2eb81f" x="57.6" y="135.410087" style="stroke: #000000; stroke-width: 0.8"/>
      </g>
     </g>
     <g id="text_15">
      <!-- 1000 -->
      <g transform="translate(20.06 139.969149)scale(0.12 -0.12)">
       <use xlink:href="#DejaVuSans-31"/>
       <use xlink:href="#DejaVuSans-30" x="63.623047"/>
       <use xlink:href="#DejaVuSans-30" x="127.246094"/>
       <use xlink:href="#DejaVuSans-30" x="190.869141"/>
      </g>
     </g>
    </g>
    <g id="ytick_7">
     <g id="line2d_29">
      <path d="M 57.6 100.975304 
L 414.72 100.975304 
" clip-path="url(#pf784ac815c)" style="fill: none; stroke: #b0b0b0; stroke-width: 0.8; stroke-linecap: square"/>
     </g>
     <g id="line2d_30">
      <g>
       <use xlink:href="#m5dfb2eb81f" x="57.6" y="100.975304" style="stroke: #000000; stroke-width: 0.8"/>
      </g>
     </g>
     <g id="text_16">
      <!-- 1200 -->
      <g transform="translate(20.06 105.534367)scale(0.12 -0.12)">
       <use xlink:href="#DejaVuSans-31"/>
       <use xlink:href="#DejaVuSans-32" x="63.623047"/>
       <use xlink:href="#DejaVuSans-30" x="127.246094"/>
       <use xlink:href="#DejaVuSans-30" x="190.869141"/>
      </g>
     </g>
    </g>
    <g id="ytick_8">
     <g id="line2d_31">
      <path d="M 57.6 66.540522 
L 414.72 66.540522 
" clip-path="url(#pf784ac815c)" style="fill: none; stroke: #b0b0b0; stroke-width: 0.8; stroke-linecap: square"/>
     </g>
     <g id="line2d_32">
      <g>
       <use xlink:href="#m5dfb2eb81f" x="57.6" y="66.540522" style="stroke: #000000; stroke-width: 0.8"/>
      </g>
     </g>
     <g id="text_17">
      <!-- 1400 -->
      <g transform="translate(20.06 71.099584)scale(0.12 -0.12)">
       <use xlink:href="#DejaVuSans-31"/>
       <use xlink:href="#DejaVuSans-34" x="63.623047"/>
       <use xlink:href="#DejaVuSans-30" x="127.246094"/>
       <use xlink:href="#DejaVuSans-30" x="190.869141"/>
      </g>
     </g>
    </g>
    <g id="text_18">
     <!-- Num of Actions -->
     <g transform="translate(12.940469 231.590109)rotate(-90)scale(0.15 -0.15)">
      <defs>
       <path id="DejaVuSans-4e" d="M 628 4666 
L 1478 4666 
L 3547 763 
L 3547 4666 
L 4159 4666 
L 4159 0 
L 3309 0 
L 1241 3903 
L 1241 0 
L 628 0 
L 628 4666 
z
" transform="scale(0.015625)"/>
       <path id="DejaVuSans-75" d="M 544 1381 
L 544 3500 
L 1119 3500 
L 1119 1403 
Q 1119 906 1312 657 
Q 1506 409 1894 409 
Q 2359 409 2629 706 
Q 2900 1003 2900 1516 
L 2900 3500 
L 3475 3500 
L 3475 0 
L 2900 0 
L 2900 538 
Q 2691 219 2414 64 
Q 2138 -91 1772 -91 
Q 1169 -91 856 284 
Q 544 659 544 1381 
z
M 1991 3584 
L 1991 3584 
z
" transform="scale(0.015625)"/>
       <path id="DejaVuSans-6d" d="M 3328 2828 
Q 3544 3216 3844 3400 
Q 4144 3584 4550 3584 
Q 5097 3584 5394 3201 
Q 5691 2819 5691 2113 
L 5691 0 
L 5113 0 
L 5113 2094 
Q 5113 2597 4934 2840 
Q 4756 3084 4391 3084 
Q 3944 3084 3684 2787 
Q 3425 2491 3425 1978 
L 3425 0 
L 2847 0 
L 2847 2094 
Q 2847 2600 2669 2842 
Q 2491 3084 2119 3084 
Q 1678 3084 1418 2786 
Q 1159 2488 1159 1978 
L 1159 0 
L 581 0 
L 581 3500 
L 1159 3500 
L 1159 2956 
Q 1356 3278 1631 3431 
Q 1906 3584 2284 3584 
Q 2666 3584 2933 3390 
Q 3200 3197 3328 2828 
z
" transform="scale(0.015625)"/>
       <path id="DejaVuSans-20" transform="scale(0.015625)"/>
       <path id="DejaVuSans-6f" d="M 1959 3097 
Q 1497 3097 1228 2736 
Q 959 2375 959 1747 
Q 959 1119 1226 758 
Q 1494 397 1959 397 
Q 2419 397 2687 759 
Q 2956 1122 2956 1747 
Q 2956 2369 2687 2733 
Q 2419 3097 1959 3097 
z
M 1959 3584 
Q 2709 3584 3137 3096 
Q 3566 2609 3566 1747 
Q 3566 888 3137 398 
Q 2709 -91 1959 -91 
Q 1206 -91 779 398 
Q 353 888 353 1747 
Q 353 2609 779 3096 
Q 1206 3584 1959 3584 
z
" transform="scale(0.015625)"/>
       <path id="DejaVuSans-66" d="M 2375 4863 
L 2375 4384 
L 1825 4384 
Q 1516 4384 1395 4259 
Q 1275 4134 1275 3809 
L 1275 3500 
L 2222 3500 
L 2222 3053 
L 1275 3053 
L 1275 0 
L 697 0 
L 697 3053 
L 147 3053 
L 147 3500 
L 697 3500 
L 697 3744 
Q 697 4328 969 4595 
Q 1241 4863 1831 4863 
L 2375 4863 
z
" transform="scale(0.015625)"/>
       <path id="DejaVuSans-41" d="M 2188 4044 
L 1331 1722 
L 3047 1722 
L 2188 4044 
z
M 1831 4666 
L 2547 4666 
L 4325 0 
L 3669 0 
L 3244 1197 
L 1141 1197 
L 716 0 
L 50 0 
L 1831 4666 
z
" transform="scale(0.015625)"/>
       <path id="DejaVuSans-73" d="M 2834 3397 
L 2834 2853 
Q 2591 2978 2328 3040 
Q 2066 3103 1784 3103 
Q 1356 3103 1142 2972 
Q 928 2841 928 2578 
Q 928 2378 1081 2264 
Q 1234 2150 1697 2047 
L 1894 2003 
Q 2506 1872 2764 1633 
Q 3022 1394 3022 966 
Q 3022 478 2636 193 
Q 2250 -91 1575 -91 
Q 1294 -91 989 -36 
Q 684 19 347 128 
L 347 722 
Q 666 556 975 473 
Q 1284 391 1588 391 
Q 1994 391 2212 530 
Q 2431 669 2431 922 
Q 2431 1156 2273 1281 
Q 2116 1406 1581 1522 
L 1381 1569 
Q 847 1681 609 1914 
Q 372 2147 372 2553 
Q 372 3047 722 3315 
Q 1072 3584 1716 3584 
Q 2034 3584 2315 3537 
Q 2597 3491 2834 3397 
z
" transform="scale(0.015625)"/>
      </defs>
      <use xlink:href="#DejaVuSans-4e"/>
      <use xlink:href="#DejaVuSans-75" x="74.804688"/>
      <use xlink:href="#DejaVuSans-6d" x="138.183594"/>
      <use xlink:href="#DejaVuSans-20" x="235.595703"/>
      <use xlink:href="#DejaVuSans-6f" x="267.382812"/>
      <use xlink:href="#DejaVuSans-66" x="328.564453"/>
      <use xlink:href="#DejaVuSans-20" x="363.769531"/>
      <use xlink:href="#DejaVuSans-41" x="395.556641"/>
      <use xlink:href="#DejaVuSans-63" x="462.214844"/>
      <use xlink:href="#DejaVuSans-74" x="517.195312"/>
      <use xlink:href="#DejaVuSans-69" x="556.404297"/>
      <use xlink:href="#DejaVuSans-6f" x="584.1875"/>
      <use xlink:href="#DejaVuSans-6e" x="645.369141"/>
      <use xlink:href="#DejaVuSans-73" x="708.748047"/>
     </g>
    </g>
   </g>
   <g id="line2d_33">
    <path d="M 73.832727 114.229276 
L 75.464157 114.006177 
L 77.095587 120.871486 
L 78.727017 133.948278 
L 80.358447 151.736818 
L 86.884166 233.946568 
L 88.515596 250.248634 
L 90.147026 263.561973 
L 91.778456 273.968305 
L 93.409886 281.798856 
L 95.041316 287.510681 
L 96.672746 291.586325 
L 98.304175 294.4664 
L 99.935605 296.514258 
L 101.567035 298.005824 
L 103.198465 299.135729 
L 104.829895 300.031744 
L 108.092755 301.399466 
L 111.355614 302.399276 
L 114.618474 303.119354 
L 117.881334 303.61868 
L 122.775624 304.098687 
L 130.932773 304.577397 
L 157.035651 305.883718 
L 163.56137 306.300135 
L 170.08709 306.478654 
L 176.61281 306.420569 
L 191.295678 306.146898 
L 207.609977 306.268481 
L 228.818566 306.747535 
L 246.764294 306.751363 
L 259.815733 306.166445 
L 264.710023 306.245539 
L 282.655751 306.878568 
L 297.33862 306.785912 
L 305.49577 306.98389 
L 320.178639 307.455179 
L 328.335788 307.393067 
L 339.755797 307.257899 
L 390.330123 307.38966 
L 398.487273 307.31129 
L 398.487273 307.31129 
" clip-path="url(#pf784ac815c)" style="fill: none; stroke: #3182bd; stroke-width: 1.5; stroke-linecap: square"/>
   </g>
   <g id="line2d_34">
    <path d="M 73.832727 96.734068 
L 75.456896 96.788235 
L 77.081065 106.082419 
L 78.705234 123.217786 
L 80.329403 145.885984 
L 85.20191 220.813582 
L 86.826079 241.323263 
L 88.450248 257.966452 
L 90.074417 270.766667 
L 91.698586 280.165741 
L 93.322755 286.81031 
L 94.946924 291.381481 
L 96.571093 294.486924 
L 98.195262 296.611406 
L 99.819431 298.109489 
L 101.4436 299.221839 
L 103.067769 300.100495 
L 106.316107 301.470082 
L 109.564445 302.522982 
L 112.812783 303.324788 
L 116.061121 303.91686 
L 120.933628 304.541274 
L 127.430304 305.091872 
L 133.92698 305.43281 
L 140.423656 305.552139 
L 148.544501 305.597699 
L 153.417008 305.858583 
L 168.034529 306.913263 
L 172.907036 306.965214 
L 181.027881 306.744703 
L 189.148726 306.58977 
L 202.142078 306.441663 
L 208.638753 306.401838 
L 215.135429 306.660803 
L 223.256274 307.009465 
L 242.746302 307.238964 
L 247.618809 307.07502 
L 257.363823 306.576205 
L 263.860499 306.567059 
L 271.981344 306.829504 
L 278.47802 307.021536 
L 286.598865 306.961332 
L 299.592217 306.873395 
L 306.088893 307.008574 
L 320.706414 307.48884 
L 328.827259 307.388988 
L 338.572273 307.239833 
L 351.565625 307.386224 
L 361.310639 307.378146 
L 372.679821 307.339328 
L 388.921511 307.488069 
L 397.042356 307.432915 
L 397.042356 307.432915 
" clip-path="url(#pf784ac815c)" style="fill: none; stroke: #3182bd; stroke-width: 1.5; stroke-linecap: square"/>
   </g>
  </g>
 </g>
 <defs>
  <clipPath id="pf784ac815c">
   <rect x="57.6" y="41.472" width="357.12" height="266.112"/>
  </clipPath>
 </defs>
</svg>
